STARTFONT 2.1
COMMENT
COMMENT Converted from OpenType font "NimbusSans-Regular.otf" by "otf2bdf 3.0".
COMMENT
FONT -FreeType-Nimbus Sans-Medium-R-Normal--89-640-100-100-P-461-ISO10646-1
SIZE 64 100 100
FONTBOUNDINGBOX 111 123 -19 -27
STARTPROPERTIES 19
FOUNDRY "FreeType"
FAMILY_NAME "Nimbus Sans"
WEIGHT_NAME "Medium"
SLANT "R"
SETWIDTH_NAME "Normal"
ADD_STYLE_NAME ""
PIXEL_SIZE 89
POINT_SIZE 640
RESOLUTION_X 100
RESOLUTION_Y 100
SPACING "P"
AVERAGE_WIDTH 461
CHARSET_REGISTRY "ISO10646"
CHARSET_ENCODING "1"
FONT_ASCENT 64
FONT_DESCENT 24
COPYRIGHT "(URW)++,Copyright 2014 by (URW)++ Design & Development"
_OTF_FONTFILE "NimbusSans-Regular.otf"
_OTF_PSNAME "NimbusSans-Regular"
ENDPROPERTIES
CHARS 854
STARTCHAR 0020
ENCODING 32
SWIDTH 281 0
DWIDTH 25 0
BBX 0 0 0 0
BITMAP
ENDCHAR
STARTCHAR 0021
ENCODING 33
SWIDTH 281 0
DWIDTH 25 0
BBX 7 65 11 0
BITMAP
FE
FE
FE
FE
FE
FE
FE
FE
FE
FE
FE
FE
FE
FE
FE
FE
FE
FE
FE
FE
FE
FE
FE
FE
FE
FE
FE
FE
FE
FE
FE
FE
FE
FE
7E
7E
7E
7E
7E
7E
7C
7C
7C
7C
7C
3C
3C
3C
3C
3C
00
00
00
00
00
00
FE
FE
FE
FE
FE
FE
FE
FE
FE
ENDCHAR
STARTCHAR 0022
ENCODING 34
SWIDTH 360 0
DWIDTH 32 0
BBX 22 22 5 41
BITMAP
FF03FC
FF03FC
FF03FC
FF03FC
FF03FC
FF03FC
FF03FC
FF03FC
FF03FC
FF03FC
FF03FC
FF03FC
FE03FC
FE01F8
7E01F8
7E01F8
7E01F8
7C01F8
7C00F0
3C00F0
3C00F0
3C00F0
ENDCHAR
STARTCHAR 0023
ENCODING 35
SWIDTH 551 0
DWIDTH 49 0
BBX 47 63 1 -2
BITMAP
00007F001FC0
00007F001FC0
00007F001FC0
00007F001F80
00007E003F80
0000FE003F80
0000FE003F80
0000FE003F80
0000FE003F00
0000FC007F00
0001FC007F00
0001FC007F00
0001FC007F00
0001FC007F00
0001F8007E00
0001F800FE00
0003F800FE00
0FFFFFFFFFFE
0FFFFFFFFFFE
0FFFFFFFFFFE
0FFFFFFFFFFE
0FFFFFFFFFFE
0FFFFFFFFFFE
0007F001FC00
0007F001F800
0007E001F800
000FE003F800
000FE003F800
000FE003F800
000FE003F800
000FE003F000
000FC007F000
001FC007F000
001FC007F000
001FC007F000
001FC007E000
001F8007E000
003F800FE000
FFFFFFFFFFF0
FFFFFFFFFFF0
FFFFFFFFFFF0
FFFFFFFFFFF0
FFFFFFFFFFF0
FFFFFFFFFFF0
007F001FC000
007F001FC000
007F001F8000
007E003F8000
00FE003F8000
00FE003F8000
00FE003F8000
00FE003F8000
00FE003F0000
00FC007F0000
01FC007F0000
01FC007F0000
01FC007F0000
01FC007E0000
01F8007E0000
03F800FE0000
03F800FE0000
03F800FE0000
03F800FE0000
ENDCHAR
STARTCHAR 0024
ENCODING 36
SWIDTH 551 0
DWIDTH 49 0
BBX 43 79 4 -11
BITMAP
00003E000000
00003E000000
00003E000000
00003E000000
00007F800000
0007FFF80000
003FFFFF0000
00FFFFFFC000
01FFFFFFE000
03FFFFFFF000
07FFFFFFF800
0FFE3E1FFC00
1FF83E07FC00
1FE03E03FE00
3FC03E01FE00
3F803E00FF00
3F803E007F00
7F803E007F00
7F003E007F00
7F003E007F80
7F003E003F80
7F003E003F80
7F003E000000
7F003E000000
7F003E000000
7F803E000000
7F803E000000
7FC03E000000
3FE03E000000
3FF03E000000
1FFC3E000000
1FFFBE000000
0FFFFE000000
07FFFFC00000
03FFFFF80000
01FFFFFF0000
007FFFFFC000
001FFFFFF000
0003FFFFF800
00007FFFFE00
00003FFFFE00
00003E3FFF00
00003E07FF80
00003E01FF80
00003E00FFC0
00003E007FC0
00003E003FC0
00003E001FC0
00003E001FE0
00003E001FE0
FE003E001FE0
FE003E001FE0
FE003E001FE0
FE003E001FE0
FE003E001FC0
FE003E001FC0
FF003E003FC0
FF003E003FC0
7F803E007F80
7F803E007F80
3FC03E00FF00
3FF03E01FF00
1FF83E07FE00
1FFF3E3FFC00
0FFFFFFFF800
07FFFFFFF000
01FFFFFFE000
00FFFFFF8000
001FFFFE0000
0003FFF00000
00003E000000
00003E000000
00003E000000
00003E000000
00003E000000
00003E000000
00003E000000
00003E000000
00003E000000
ENDCHAR
STARTCHAR 0025
ENCODING 37
SWIDTH 888 0
DWIDTH 79 0
BBX 73 65 3 -2
BITMAP
0000000000001F800000
0000000000003F000000
001FE00000003F000000
00FFF80000007E000000
01FFFE0000007E000000
07FFFF000000FC000000
0FFFFFC00000F8000000
1FFFFFC00001F8000000
3FF87FE00003F0000000
3FC01FF00003F0000000
7F8007F00007E0000000
7F0003F80007E0000000
FE0003F8000FC0000000
FE0001F8000FC0000000
FC0001FC001F80000000
FC0000FC001F80000000
FC0000FC003F00000000
FC0000FC003E00000000
FC0000FC007E00000000
FC0000FC007C00000000
FC0001FC00FC00000000
FE0001F801F800000000
FE0003F801F800000000
7F0003F803F000000000
7F8007F003F000000000
3FC01FF007E000000000
3FF87FE007E000000000
1FFFFFC00FC000000000
0FFFFF800FC000000000
07FFFF001F8000000000
03FFFE001F0000000000
00FFF8003F0000000000
001FC0003E0000000000
000000007E0000000000
00000000FC0000000000
00000000FC0003FE0000
00000001F8001FFF8000
00000001F8003FFFE000
00000003F000FFFFF000
00000003F001FFFFF800
00000007E003FFFFFC00
00000007E003FE07FE00
0000000FC007F801FE00
0000000F800FF000FF00
0000001F800FE0007F00
0000001F000FC0003F80
0000003F001FC0003F80
0000007E001FC0001F80
0000007E001F80001F80
000000FC001F80001F80
000000FC001F80001F80
000001F8001F80001F80
000001F8001FC0001F80
000003F0001FC0003F80
000003F0000FE0003F80
000007E0000FE0007F00
000007C00007F000FF00
00000FC00007FC01FE00
00000F800003FF07FE00
00001F800003FFFFFC00
00003F000001FFFFF800
00003F000000FFFFF000
00007E0000003FFFE000
00007E0000000FFF8000
0000FC00000003FC0000
ENDCHAR
STARTCHAR 0026
ENCODING 38
SWIDTH 663 0
DWIDTH 59 0
BBX 51 65 5 -2
BITMAP
00003FC0000000
0001FFF8000000
0007FFFE000000
000FFFFF000000
001FFFFF800000
003FFFFFC00000
007FF0FFE00000
007F803FE00000
00FF001FF00000
00FE000FF00000
01FE0007F00000
01FC0007F00000
01FC0007F00000
01FC0007F80000
01FC0007F80000
01FC0007F00000
01FE0007F00000
01FE0007F00000
00FE000FF00000
00FF001FE00000
007F803FE00000
007FC07FC00000
003FC0FF800000
003FE3FF800000
001FF7FF000000
000FFFFC000000
0007FFF8000000
0007FFE0000000
0003FFC0000000
000FFF00000000
001FFF80000000
007FFFC0000000
00FFFFE0000000
03FFBFF001FC00
07FF1FF001FC00
0FFC0FF801FC00
1FF807FC01FC00
3FF003FE03FC00
3FE003FF03F800
7FC001FF03F800
7F8000FF83F800
FF00007FC7F800
FF00003FE7F000
FF00003FFFF000
FE00001FFFF000
FE00000FFFE000
FE000007FFE000
FE000003FFC000
FE000003FF8000
FE000001FF8000
FF000000FFC000
FF000000FFC000
FF800003FFE000
7F800007FFF000
7FC0000FFFF800
7FE0001FFFFC00
3FF8007FF7FC00
3FFE01FFE3FE00
1FFFFFFFC3FF00
0FFFFFFF81FF80
07FFFFFE00FFC0
03FFFFFC007FC0
00FFFFF8003FE0
003FFFC0000000
0007FE00000000
ENDCHAR
STARTCHAR 0027
ENCODING 39
SWIDTH 191 0
DWIDTH 17 0
BBX 9 22 4 41
BITMAP
FF80
FF80
FF80
FF80
FF80
FF80
FF80
FF80
FF80
FF80
FF00
7F00
7F00
7F00
7F00
7E00
3E00
3E00
3E00
3E00
3C00
1C00
ENDCHAR
STARTCHAR 0028
ENCODING 40
SWIDTH 337 0
DWIDTH 30 0
BBX 20 84 6 -19
BITMAP
0001F0
0003E0
0007C0
0007C0
000F80
001F80
001F00
003F00
003E00
007E00
007C00
00FC00
00FC00
01F800
01F800
03F000
03F000
07F000
07E000
07E000
0FE000
0FE000
0FC000
1FC000
1FC000
1FC000
1F8000
3F8000
3F8000
3F8000
3F8000
7F0000
7F0000
7F0000
7F0000
7F0000
7F0000
7F0000
7F0000
7F0000
7F0000
FF0000
7F0000
7F0000
7F0000
7F0000
7F0000
7F0000
7F0000
7F0000
7F0000
7F0000
7F8000
3F8000
3F8000
3F8000
3F8000
1F8000
1FC000
1FC000
1FC000
0FC000
0FE000
0FE000
07E000
07F000
07F000
03F000
03F800
01F800
01F800
00FC00
00FC00
007E00
007E00
003F00
003F00
001F00
001F80
000FC0
0007C0
0007E0
0003E0
0001F0
ENDCHAR
STARTCHAR 0029
ENCODING 41
SWIDTH 337 0
DWIDTH 30 0
BBX 20 84 3 -19
BITMAP
7C0000
7C0000
3E0000
3F0000
1F0000
1F8000
0FC000
0FC000
07E000
07E000
03F000
03F000
01F800
01F800
01FC00
00FC00
00FE00
007E00
007E00
007F00
007F00
003F00
003F80
003F80
003F80
001FC0
001FC0
001FC0
001FC0
000FC0
000FE0
000FE0
000FE0
000FE0
000FE0
000FE0
000FF0
000FF0
000FF0
0007F0
0007F0
0007F0
0007F0
0007F0
0007F0
000FF0
000FF0
000FF0
000FE0
000FE0
000FE0
000FE0
000FE0
000FE0
000FC0
001FC0
001FC0
001FC0
001F80
003F80
003F80
003F80
003F00
007F00
007F00
007E00
00FE00
00FC00
00FC00
01FC00
01F800
01F800
03F000
03F000
07E000
07E000
0FC000
0F8000
1F8000
1F0000
3F0000
3E0000
7C0000
F80000
ENDCHAR
STARTCHAR 002A
ENCODING 42
SWIDTH 393 0
DWIDTH 35 0
BBX 26 26 4 39
BITMAP
003F0000
003F0000
003F0000
003F0000
003F0000
003F0000
003F0000
701E0380
7E1E1F80
FF9E7FC0
FFFFFFC0
FFFFFFC0
3FFFFF00
03FFF000
007F8000
00FFC000
00FFC000
01FFE000
03F3F000
07F3F800
0FE1FC00
0FC0FC00
1FC0FE00
07807C00
03003000
01002000
ENDCHAR
STARTCHAR 002B
ENCODING 43
SWIDTH 585 0
DWIDTH 52 0
BBX 43 43 4 -1
BITMAP
00001F800000
00001F800000
00001F800000
00001F800000
00001F800000
00001F800000
00001F800000
00001F800000
00001F800000
00001F800000
00001F800000
00001F800000
00001F800000
00001F800000
00001F800000
00001F800000
00001F800000
00001F800000
FFFFFFFFFFE0
FFFFFFFFFFE0
FFFFFFFFFFE0
FFFFFFFFFFE0
FFFFFFFFFFE0
FFFFFFFFFFE0
00001F800000
00001F800000
00001F800000
00001F800000
00001F800000
00001F800000
00001F800000
00001F800000
00001F800000
00001F800000
00001F800000
00001F800000
00001F800000
00001F800000
00001F800000
00001F800000
00001F800000
00001F800000
00001F800000
ENDCHAR
STARTCHAR 002C
ENCODING 44
SWIDTH 281 0
DWIDTH 25 0
BBX 9 22 8 -13
BITMAP
FF80
FF80
FF80
FF80
FF80
FF80
FF80
FF80
FF80
0780
0780
0780
0780
0780
0780
0700
0F00
1F00
7E00
FC00
F800
E000
ENDCHAR
STARTCHAR 002D
ENCODING 45
SWIDTH 337 0
DWIDTH 30 0
BBX 21 6 4 22
BITMAP
FFFFF8
FFFFF8
FFFFF8
FFFFF8
FFFFF8
FFFFF8
ENDCHAR
STARTCHAR 002E
ENCODING 46
SWIDTH 281 0
DWIDTH 25 0
BBX 9 9 8 0
BITMAP
FF80
FF80
FF80
FF80
FF80
FF80
FF80
FF80
FF80
ENDCHAR
STARTCHAR 002F
ENCODING 47
SWIDTH 281 0
DWIDTH 25 0
BBX 26 67 -1 -2
BITMAP
000007C0
000007C0
00000780
00000F80
00000F80
00000F80
00001F00
00001F00
00001F00
00003E00
00003E00
00003E00
00007C00
00007C00
00007C00
0000F800
0000F800
0000F800
0000F000
0001F000
0001F000
0001E000
0003E000
0003E000
0003E000
0007C000
0007C000
0007C000
000F8000
000F8000
000F8000
001F0000
001F0000
001F0000
003E0000
003E0000
003E0000
003C0000
007C0000
007C0000
007C0000
00F80000
00F80000
00F80000
01F00000
01F00000
01F00000
03E00000
03E00000
03E00000
07C00000
07C00000
07C00000
07800000
0F800000
0F800000
0F000000
1F000000
1F000000
1F000000
3E000000
3E000000
3E000000
7C000000
7C000000
7C000000
F8000000
ENDCHAR
STARTCHAR 0030
ENCODING 48
SWIDTH 551 0
DWIDTH 49 0
BBX 41 66 4 -2
BITMAP
0000FF800000
0007FFF00000
001FFFFC0000
003FFFFF0000
00FFFFFF8000
01FFFFFFC000
03FFFFFFE000
03FF80FFE000
07FE003FF000
0FFC001FF800
0FF8000FF800
1FF00007FC00
1FE00007FC00
1FE00003FC00
3FE00003FE00
3FC00001FE00
3FC00001FE00
7FC00001FF00
7F800000FF00
7F800000FF00
7F800000FF00
7F800000FF00
7F000000FF00
FF0000007F80
FF0000007F80
FF0000007F80
FF0000007F80
FF0000007F80
FF0000007F80
FF0000007F80
FF0000007F80
FF0000007F80
FF0000007F80
FF0000007F80
FF0000007F80
FF0000007F80
FF0000007F80
FF0000007F80
FF0000007F80
FF0000007F80
FF0000007F80
FF0000007F80
FF0000007F80
FF000000FF00
7F800000FF00
7F800000FF00
7F800000FF00
7F800000FF00
7F800000FF00
3FC00001FE00
3FC00001FE00
3FC00001FE00
1FE00003FC00
1FE00003FC00
1FF00007F800
0FF8000FF800
0FF8000FF000
07FC001FF000
03FF007FE000
03FFFFFFC000
01FFFFFFC000
00FFFFFF8000
007FFFFE0000
001FFFFC0000
0007FFF00000
0000FF800000
ENDCHAR
STARTCHAR 0031
ENCODING 49
SWIDTH 551 0
DWIDTH 49 0
BBX 22 64 9 0
BITMAP
00007C
0000FC
0000FC
0000FC
0001FC
0001FC
0003FC
0003FC
0007FC
000FFC
003FFC
03FFFC
FFFFFC
FFFFFC
FFFFFC
FFFFFC
FFFFFC
FFFFFC
0003FC
0003FC
0003FC
0003FC
0003FC
0003FC
0003FC
0003FC
0003FC
0003FC
0003FC
0003FC
0003FC
0003FC
0003FC
0003FC
0003FC
0003FC
0003FC
0003FC
0003FC
0003FC
0003FC
0003FC
0003FC
0003FC
0003FC
0003FC
0003FC
0003FC
0003FC
0003FC
0003FC
0003FC
0003FC
0003FC
0003FC
0003FC
0003FC
0003FC
0003FC
0003FC
0003FC
0003FC
0003FC
0003FC
ENDCHAR
STARTCHAR 0032
ENCODING 50
SWIDTH 551 0
DWIDTH 49 0
BBX 42 64 3 0
BITMAP
00007FF00000
0007FFFE0000
001FFFFF8000
003FFFFFE000
00FFFFFFF000
01FFFFFFF800
03FFFFFFFC00
07FFC03FFE00
07FF000FFF00
0FFC0003FF00
0FF80001FF80
1FF00000FF80
1FF000007F80
1FE000007FC0
3FE000003FC0
3FC000003FC0
3FC000003FC0
3FC000003FC0
3FC000003FC0
3FC000003FC0
3F8000003FC0
7F8000003FC0
000000003FC0
000000003FC0
000000007FC0
000000007F80
00000000FF80
00000001FF00
00000003FF00
00000007FE00
0000000FFC00
0000003FF800
000000FFF800
000001FFE000
000007FFC000
00001FFF8000
00003FFF0000
0000FFFC0000
0003FFF00000
0007FFC00000
001FFF800000
003FFE000000
007FF8000000
00FFE0000000
01FFC0000000
03FF00000000
07FE00000000
0FFC00000000
0FF800000000
1FF000000000
1FE000000000
3FC000000000
3FC000000000
3FC000000000
7F8000000000
7F8000000000
7FFFFFFFFFC0
7FFFFFFFFFC0
7FFFFFFFFFC0
FFFFFFFFFFC0
FFFFFFFFFFC0
FFFFFFFFFFC0
FFFFFFFFFFC0
FFFFFFFFFFC0
ENDCHAR
STARTCHAR 0033
ENCODING 51
SWIDTH 551 0
DWIDTH 49 0
BBX 42 66 3 -2
BITMAP
0000FFC00000
000FFFFC0000
003FFFFF0000
00FFFFFFC000
01FFFFFFE000
03FFFFFFF000
07FFFFFFF800
07FF807FF800
0FFC001FFC00
0FF80007FE00
1FF00003FE00
1FE00003FE00
3FC00001FF00
3FC00001FF00
3FC00000FF00
3F800000FF00
3F800000FF00
7F800000FF00
7F800000FF00
7F800000FF00
7F800000FF00
00000000FF00
00000001FE00
00000001FE00
00000003FE00
00000007FC00
0000001FF800
000000FFF800
00007FFFE000
00007FFFC000
00007FFF0000
00007FFF8000
00007FFFE000
00007FFFF800
00007FFFFC00
0000001FFE00
00000007FF00
00000001FF00
00000000FF80
00000000FF80
000000007F80
000000007FC0
000000003FC0
000000003FC0
000000003FC0
FF0000003FC0
FF0000003FC0
FF0000003FC0
FF0000003FC0
FF0000003FC0
FF8000007FC0
7F8000007F80
7F8000007F80
7FC00000FF80
3FC00000FF00
3FE00001FF00
3FF00003FE00
1FFC000FFE00
0FFF003FFC00
0FFFFFFFF800
07FFFFFFF000
03FFFFFFE000
00FFFFFFC000
007FFFFF0000
001FFFFC0000
0001FFC00000
ENDCHAR
STARTCHAR 0034
ENCODING 52
SWIDTH 551 0
DWIDTH 49 0
BBX 44 65 2 0
BITMAP
00000007E000
0000000FE000
0000000FE000
0000001FE000
0000003FE000
0000007FE000
0000007FE000
000000FFE000
000001FFE000
000001FFE000
000003FFE000
000007FFE000
00000FFFE000
00000FFFE000
00001FDFE000
00003FDFE000
00003F9FE000
00007F1FE000
0000FF1FE000
0000FE1FE000
0001FC1FE000
0003FC1FE000
0007F81FE000
0007F01FE000
000FF01FE000
001FE01FE000
001FC01FE000
003F801FE000
007F801FE000
00FF001FE000
00FE001FE000
01FE001FE000
03FC001FE000
03F8001FE000
07F8001FE000
0FF0001FE000
0FE0001FE000
1FC0001FE000
3FC0001FE000
7F80001FE000
7F00001FE000
FF00001FE000
FFFFFFFFFFF0
FFFFFFFFFFF0
FFFFFFFFFFF0
FFFFFFFFFFF0
FFFFFFFFFFF0
FFFFFFFFFFF0
FFFFFFFFFFF0
0000001FE000
0000001FE000
0000001FE000
0000001FE000
0000001FE000
0000001FE000
0000001FE000
0000001FE000
0000001FE000
0000001FE000
0000001FE000
0000001FE000
0000001FE000
0000001FE000
0000001FE000
0000001FE000
ENDCHAR
STARTCHAR 0035
ENCODING 53
SWIDTH 551 0
DWIDTH 49 0
BBX 43 65 3 -2
BITMAP
01FFFFFFFE00
01FFFFFFFE00
03FFFFFFFE00
03FFFFFFFE00
03FFFFFFFE00
03FFFFFFFE00
03FFFFFFFE00
03FFFFFFFE00
03F800000000
07F800000000
07F800000000
07F800000000
07F000000000
07F000000000
07F000000000
07F000000000
0FF000000000
0FF000000000
0FF000000000
0FE000000000
0FE000000000
0FE03FE00000
0FE1FFFC0000
0FE7FFFF8000
1FFFFFFFC000
1FFFFFFFF000
1FFFFFFFF800
1FFFFFFFFC00
1FFF807FFC00
1FFC001FFE00
1FF80007FF00
3FF00003FF00
3FE00001FF80
3FC00000FF80
000000007F80
000000007FC0
000000007FC0
000000003FC0
000000003FC0
000000003FE0
000000003FE0
000000001FE0
000000001FE0
000000001FE0
000000001FE0
000000001FC0
000000003FC0
FF0000003FC0
FF0000003FC0
7F8000003FC0
7F8000007F80
7FC000007F80
7FC00000FF80
3FE00000FF00
3FF00001FF00
1FF80007FE00
1FFC000FFC00
0FFF807FFC00
07FFFFFFF800
03FFFFFFF000
01FFFFFFE000
00FFFFFF8000
003FFFFE0000
000FFFF80000
0000FFC00000
ENDCHAR
STARTCHAR 0036
ENCODING 54
SWIDTH 551 0
DWIDTH 49 0
BBX 42 66 4 -2
BITMAP
00003FE00000
0001FFFC0000
0007FFFF0000
001FFFFF8000
003FFFFFE000
007FFFFFF000
00FFFFFFF000
01FFC07FF800
03FF001FFC00
07FE0007FC00
07F80003FE00
0FF80003FE00
0FF00001FE00
1FE00000FF00
1FE00000FF00
3FC00000FF00
3FC000000000
3FC000000000
7F8000000000
7F8000000000
7F8000000000
7F8000000000
7F0000000000
7F0000000000
FF003FE00000
FF01FFFC0000
FF07FFFF0000
FF1FFFFFC000
FF3FFFFFE000
FF7FFFFFF000
FFFFFFFFF800
FFFF807FFC00
FFFE001FFC00
FFF80007FE00
FFF00003FF00
FFE00001FF00
FFE00000FF00
FFC00000FF80
FF800000FF80
FF8000007F80
FF8000007F80
FF8000007F80
FF0000007FC0
FF0000003FC0
FF0000003FC0
7F0000003FC0
7F0000003FC0
7F8000007F80
7F8000007F80
7F8000007F80
3F8000007F80
3FC00000FF80
3FC00000FF00
1FE00001FF00
1FF00001FE00
0FF80003FE00
0FFC0007FC00
07FE001FFC00
07FF807FF800
03FFFFFFF000
01FFFFFFE000
00FFFFFFC000
007FFFFF8000
001FFFFE0000
0007FFF80000
0000FFC00000
ENDCHAR
STARTCHAR 0037
ENCODING 55
SWIDTH 551 0
DWIDTH 49 0
BBX 42 63 4 0
BITMAP
FFFFFFFFFFC0
FFFFFFFFFFC0
FFFFFFFFFFC0
FFFFFFFFFFC0
FFFFFFFFFFC0
FFFFFFFFFFC0
FFFFFFFFFFC0
FFFFFFFFFFC0
000000003F80
000000007F00
00000000FE00
00000000FE00
00000001FC00
00000003F800
00000003F800
00000007F000
0000000FE000
0000000FE000
0000001FC000
0000003F8000
0000003F8000
0000007F0000
000000FF0000
000000FE0000
000001FC0000
000001FC0000
000003F80000
000003F80000
000007F00000
00000FF00000
00000FE00000
00001FE00000
00001FC00000
00003FC00000
00003F800000
00007F800000
00007F000000
00007F000000
0000FF000000
0000FE000000
0001FE000000
0001FC000000
0003FC000000
0003FC000000
0003F8000000
0007F8000000
0007F8000000
0007F0000000
000FF0000000
000FF0000000
000FE0000000
001FE0000000
001FE0000000
001FE0000000
003FC0000000
003FC0000000
003FC0000000
003FC0000000
007FC0000000
007F80000000
007F80000000
007F80000000
00FF80000000
ENDCHAR
STARTCHAR 0038
ENCODING 56
SWIDTH 551 0
DWIDTH 49 0
BBX 43 66 3 -2
BITMAP
00007FC00000
0007FFFC0000
001FFFFF0000
003FFFFFC000
00FFFFFFE000
01FFFFFFF000
03FFFFFFF800
07FF807FFC00
07FE000FFC00
0FFC0007FE00
0FF80003FE00
1FF00001FF00
1FF00001FF00
1FE00000FF00
1FE00000FF00
1FE00000FF00
1FE00000FF00
1FE00000FF00
1FE00000FF00
1FE00000FF00
1FE00000FF00
1FE00000FF00
1FF00001FF00
0FF80003FE00
0FF80003FE00
07FE000FFC00
03FF803FF800
01FFFFFFF000
00FFFFFFE000
003FFFFF8000
001FFFFF0000
007FFFFFC000
00FFFFFFE000
03FFFFFFF800
07FF807FFC00
0FFE000FFE00
1FF80003FF00
1FF00001FF00
3FE00000FF80
3FC000007F80
7FC000007FC0
7F8000003FC0
7F8000003FC0
7F8000003FC0
FF0000003FE0
FF0000001FE0
FF0000001FE0
FF0000001FE0
FF0000003FE0
7F8000003FC0
7F8000003FC0
7F8000003FC0
7FC000007FC0
3FC000007F80
3FE00000FF80
3FF00001FF00
1FF80003FF00
0FFE000FFE00
0FFF803FFE00
07FFFFFFFC00
03FFFFFFF800
01FFFFFFE000
007FFFFFC000
003FFFFF0000
0007FFFC0000
0000FFC00000
ENDCHAR
STARTCHAR 0039
ENCODING 57
SWIDTH 551 0
DWIDTH 49 0
BBX 42 66 3 -2
BITMAP
0000FFC00000
0007FFF80000
001FFFFE0000
007FFFFF8000
00FFFFFFC000
01FFFFFFE000
03FFFFFFF000
07FF807FF800
0FFE001FF800
0FF80007FC00
1FF00003FC00
3FE00001FE00
3FE00001FE00
3FC00000FF00
7FC00000FF00
7F8000007F00
7F8000007F80
7F8000007F80
7F8000003F80
FF0000003F80
FF0000003FC0
FF0000003FC0
FF8000003FC0
FF8000003FC0
7F8000007FC0
7F8000007FC0
7F8000007FC0
7FC00000FFC0
3FC00000FFC0
3FE00001FFC0
3FF00003FFC0
1FF80007FFC0
0FFC001FFFC0
0FFF807FFFC0
07FFFFFFFFC0
03FFFFFFBFC0
01FFFFFF3FC0
00FFFFFE3FC0
003FFFF83FC0
000FFFE03FC0
0001FF003FC0
000000003FC0
000000003F80
000000007F80
000000007F80
000000007F80
000000007F80
000000007F00
00000000FF00
3FC00000FF00
3FC00000FF00
3FC00001FE00
3FE00001FE00
1FE00003FC00
1FF00007FC00
1FF0000FF800
0FF8001FF800
0FFE003FF000
07FF80FFE000
03FFFFFFE000
01FFFFFFC000
00FFFFFF0000
007FFFFE0000
003FFFF80000
000FFFE00000
0001FF000000
ENDCHAR
STARTCHAR 003A
ENCODING 58
SWIDTH 281 0
DWIDTH 25 0
BBX 9 47 10 0
BITMAP
FF80
FF80
FF80
FF80
FF80
FF80
FF80
FF80
FF80
0000
0000
0000
0000
0000
0000
0000
0000
0000
0000
0000
0000
0000
0000
0000
0000
0000
0000
0000
0000
0000
0000
0000
0000
0000
0000
0000
0000
0000
FF80
FF80
FF80
FF80
FF80
FF80
FF80
FF80
FF80
ENDCHAR
STARTCHAR 003B
ENCODING 59
SWIDTH 281 0
DWIDTH 25 0
BBX 9 60 10 -13
BITMAP
FF80
FF80
FF80
FF80
FF80
FF80
FF80
FF80
FF80
0000
0000
0000
0000
0000
0000
0000
0000
0000
0000
0000
0000
0000
0000
0000
0000
0000
0000
0000
0000
0000
0000
0000
0000
0000
0000
0000
0000
0000
FF80
FF80
FF80
FF80
FF80
FF80
FF80
FF80
FF80
0780
0780
0780
0780
0780
0780
0700
0F00
0F00
7E00
FC00
F800
E000
ENDCHAR
STARTCHAR 003C
ENCODING 60
SWIDTH 585 0
DWIDTH 52 0
BBX 43 43 4 -1
BITMAP
000000000020
0000000000E0
0000000003E0
000000001FE0
000000007FE0
00000001FFE0
0000000FFFE0
0000003FFFC0
000000FFFF00
000007FFFC00
00001FFFE000
0000FFFF8000
0003FFFC0000
000FFFF00000
007FFF800000
01FFFE000000
07FFF0000000
3FFFC0000000
FFFF00000000
FFF800000000
FFE000000000
FF8000000000
FFE000000000
FFF800000000
FFFF00000000
3FFFC0000000
0FFFF8000000
01FFFE000000
007FFFC00000
000FFFF00000
0003FFFC0000
0000FFFF8000
00001FFFE000
000007FFFC00
000001FFFF00
0000003FFFC0
0000000FFFE0
00000003FFE0
000000007FE0
000000001FE0
0000000003E0
0000000000E0
000000000020
ENDCHAR
STARTCHAR 003D
ENCODING 61
SWIDTH 585 0
DWIDTH 52 0
BBX 43 21 4 10
BITMAP
FFFFFFFFFFE0
FFFFFFFFFFE0
FFFFFFFFFFE0
FFFFFFFFFFE0
FFFFFFFFFFE0
FFFFFFFFFFE0
000000000000
000000000000
000000000000
000000000000
000000000000
000000000000
000000000000
000000000000
000000000000
FFFFFFFFFFE0
FFFFFFFFFFE0
FFFFFFFFFFE0
FFFFFFFFFFE0
FFFFFFFFFFE0
FFFFFFFFFFE0
ENDCHAR
STARTCHAR 003E
ENCODING 62
SWIDTH 585 0
DWIDTH 52 0
BBX 44 43 4 -1
BITMAP
800000000000
F00000000000
FC0000000000
FF8000000000
FFE000000000
FFF800000000
FFFF00000000
7FFFC0000000
0FFFF0000000
03FFFE000000
007FFF800000
001FFFE00000
0007FFFC0000
0000FFFF0000
00003FFFE000
000007FFF800
000001FFFE00
0000007FFFC0
0000000FFFF0
00000003FFF0
000000007FF0
000000001FF0
000000007FF0
00000001FFF0
00000007FFF0
0000003FFFC0
000000FFFE00
000007FFF800
00001FFFE000
0000FFFF0000
0003FFFC0000
001FFFF00000
007FFF800000
01FFFE000000
0FFFF8000000
3FFFC0000000
FFFF00000000
FFF800000000
FFE000000000
FF8000000000
FC0000000000
F00000000000
C00000000000
ENDCHAR
STARTCHAR 003F
ENCODING 63
SWIDTH 551 0
DWIDTH 49 0
BBX 38 66 7 0
BITMAP
0003FF8000
003FFFF000
00FFFFFC00
01FFFFFF00
03FFFFFF80
07FFFFFFC0
0FFFFFFFE0
1FFC01FFF0
1FF0007FF0
3FE0001FF8
3FC0000FF8
7F800007F8
7F800007FC
7F000003FC
FF000003FC
FF000003FC
FF000003FC
FF000003FC
FE000003FC
FE000003FC
FE000003FC
00000007FC
00000007F8
0000000FF8
0000000FF8
0000001FF0
0000003FE0
0000007FE0
000000FFC0
000001FF80
000003FF00
000007FE00
00000FFC00
00001FF800
00003FF000
00007FE000
0000FFC000
0000FF8000
0001FF0000
0001FE0000
0001FE0000
0003FE0000
0003FC0000
0003FC0000
0003FC0000
0003FC0000
0003FC0000
0003FC0000
0000000000
0000000000
0000000000
0000000000
0000000000
0000000000
0000000000
0000000000
0000000000
0003FC0000
0003FC0000
0003FC0000
0003FC0000
0003FC0000
0003FC0000
0003FC0000
0003FC0000
0003FC0000
ENDCHAR
STARTCHAR 0040
ENCODING 64
SWIDTH 1012 0
DWIDTH 90 0
BBX 82 79 3 -13
BITMAP
0000000003FFC000000000
000000007FFFFE00000000
00000003FFFFFFC0000000
0000001FFFFFFFF8000000
0000007FFFFFFFFE000000
000001FFFFFFFFFF800000
000007FFFFFFFFFFC00000
00001FFFF0007FFFF00000
00003FFF000007FFF80000
0000FFF8000000FFFC0000
0001FFE00000003FFE0000
0003FF800000000FFF0000
0007FF0000000007FF8000
000FFC0000000001FFC000
001FF80000000000FFE000
003FF000000000007FF000
007FE000000000003FF000
007FC000000000001FF800
00FF8000000000000FFC00
01FF00000078000007FC00
01FE000007FF800003FE00
03FC00001FFFC0FE03FE00
07FC00007FFFE0FE01FF00
07F80001FFFFF1FE01FF00
0FF00003FFFFF9FC00FF00
0FF00007FF03F9FC00FF80
0FE0000FFC00FFFC007F80
1FE0001FF0007FF8007F80
1FC0003FE0003FF8007F80
3FC0007FC0003FF8007F80
3FC0007F80001FF8003F80
3F8000FF00001FF0003FC0
7F8000FF00001FF0003FC0
7F8001FE00001FF0003FC0
7F0001FE00001FE0003FC0
7F0003FC00001FE0003F80
7F0003FC00001FE0003F80
FF0003FC00001FC0003F80
FF0007F800003FC0007F80
FF0007F800003FC0007F80
FF0007F800003F80007F80
FF0007F800003F80007F00
FF0007F800007F8000FF00
FF0007F800007F0000FF00
FF000FF800007F0001FE00
FF0007F80000FF0001FE00
FF0007F80000FE0003FC00
FF0007F80001FE0003FC00
FF0007F80001FE0007F800
7F8007FC0003FE000FF800
7F8007FC0007FC001FF000
7F8003FE000FFE003FE000
7FC003FF001FFE007FC000
3FC001FF803FFF00FFC000
3FE001FFE0FEFF87FF8000
1FE000FFFFFCFFFFFF0000
1FF0007FFFF8FFFFFC0000
1FF0003FFFF07FFFF80000
0FF8001FFFE03FFFE00000
0FFC0007FF801FFF800000
07FE0000780007FC000000
03FF000000000000000000
03FF000000000000000000
01FFC00000000000000000
00FFE00000000000000000
007FF00000000000000000
003FFC0000000000000000
001FFE0000000000000000
000FFF8000000000000000
0007FFE000000040000000
0003FFFC000007E0000000
0000FFFFE000FFE0000000
00007FFFFFFFFFE0000000
00001FFFFFFFFFF0000000
000007FFFFFFFFF0000000
000001FFFFFFFFE0000000
0000003FFFFFFF00000000
00000007FFFFF000000000
000000003FFC0000000000
ENDCHAR
STARTCHAR 0041
ENCODING 65
SWIDTH 663 0
DWIDTH 59 0
BBX 56 65 2 0
BITMAP
000003FF800000
000003FFC00000
000003FFC00000
000007FFE00000
000007FFE00000
000007FFE00000
00000FFFF00000
00000FFFF00000
00000FFFF00000
00001FFFF80000
00001FEFF80000
00001FE7F80000
00003FE7FC0000
00003FC7FC0000
00007FC3FC0000
00007F83FE0000
00007F83FE0000
0000FF81FE0000
0000FF01FF0000
0000FF01FF0000
0001FF00FF0000
0001FE00FF8000
0001FE007F8000
0003FC007FC000
0003FC007FC000
0003FC003FC000
0007F8003FE000
0007F8003FE000
000FF8001FE000
000FF0001FF000
000FF0001FF000
001FF0000FF000
001FE0000FF800
001FE0000FF800
003FC00007F800
003FC00007FC00
003FC00007FC00
007F800003FC00
007FFFFFFFFE00
007FFFFFFFFE00
00FFFFFFFFFE00
00FFFFFFFFFF00
00FFFFFFFFFF00
01FFFFFFFFFF80
01FFFFFFFFFF80
03FE000000FF80
03FE0000007FC0
03FC0000007FC0
07FC0000007FC0
07FC0000003FE0
07F80000003FE0
0FF80000003FE0
0FF80000001FF0
0FF00000001FF0
1FF00000001FF0
1FF00000000FF8
1FE00000000FF8
3FE00000000FF8
3FE000000007FC
7FC000000007FC
7FC000000007FC
7F8000000003FE
FF8000000003FE
FF8000000003FF
FF0000000001FF
ENDCHAR
STARTCHAR 0042
ENCODING 66
SWIDTH 663 0
DWIDTH 59 0
BBX 48 65 7 0
BITMAP
FFFFFFFF0000
FFFFFFFFF000
FFFFFFFFFC00
FFFFFFFFFE00
FFFFFFFFFF00
FFFFFFFFFF80
FFFFFFFFFFC0
FF00000FFFE0
FF000000FFF0
FF0000003FF0
FF0000001FF8
FF0000001FF8
FF0000000FF8
FF00000007F8
FF00000007F8
FF00000007FC
FF00000007FC
FF00000007FC
FF00000007F8
FF00000007F8
FF00000007F8
FF00000007F8
FF0000000FF8
FF0000000FF0
FF0000001FF0
FF0000003FE0
FF000000FFC0
FF000003FF80
FFFFFFFFFF00
FFFFFFFFFE00
FFFFFFFFF800
FFFFFFFFFE00
FFFFFFFFFF80
FFFFFFFFFFC0
FFFFFFFFFFE0
FF000001FFF8
FF0000003FF8
FF0000000FFC
FF00000007FE
FF00000003FE
FF00000001FF
FF00000001FF
FF00000000FF
FF00000000FF
FF00000000FF
FF00000000FF
FF00000000FF
FF00000000FF
FF00000000FF
FF00000000FF
FF00000000FF
FF00000001FF
FF00000001FF
FF00000003FE
FF00000007FE
FF0000000FFC
FF0000001FFC
FF000001FFF8
FFFFFFFFFFF0
FFFFFFFFFFE0
FFFFFFFFFFC0
FFFFFFFFFF80
FFFFFFFFFF00
FFFFFFFFFC00
FFFFFFFFC000
ENDCHAR
STARTCHAR 0043
ENCODING 67
SWIDTH 720 0
DWIDTH 64 0
BBX 56 68 4 -2
BITMAP
000000FFF00000
00000FFFFF0000
00007FFFFFE000
0001FFFFFFF000
0003FFFFFFFC00
000FFFFFFFFE00
001FFFFFFFFF00
003FFFE0FFFF80
007FFC0007FFC0
00FFF00001FFE0
01FFC000007FE0
01FF8000003FF0
03FF0000001FF0
07FE0000001FF8
07FC0000000FF8
0FF800000007F8
0FF800000007FC
1FF000000007FC
1FF000000003FC
1FE000000003FE
3FE000000003FE
3FC00000000000
3FC00000000000
3FC00000000000
7FC00000000000
7F800000000000
7F800000000000
7F800000000000
7F800000000000
7F800000000000
FF800000000000
FF800000000000
FF800000000000
FF800000000000
FF800000000000
FF800000000000
FF800000000000
FF800000000000
FF800000000000
7F800000000000
7F800000000000
7F800000000000
7F8000000000FF
7FC000000001FF
7FC000000001FF
3FC000000001FF
3FE000000001FF
3FE000000001FE
3FE000000003FE
1FF000000003FE
1FF000000003FE
0FF800000007FC
0FFC00000007FC
07FC0000000FF8
07FE0000001FF8
03FF0000001FF8
03FF8000003FF0
01FFE00000FFE0
00FFF00001FFE0
007FFE0007FFC0
003FFFE07FFF80
001FFFFFFFFF00
000FFFFFFFFE00
0007FFFFFFFC00
0001FFFFFFF000
00007FFFFFC000
00001FFFFF0000
000001FFF00000
ENDCHAR
STARTCHAR 0044
ENCODING 68
SWIDTH 720 0
DWIDTH 64 0
BBX 51 65 8 0
BITMAP
FFFFFFFC000000
FFFFFFFFC00000
FFFFFFFFF80000
FFFFFFFFFC0000
FFFFFFFFFF0000
FFFFFFFFFF8000
FFFFFFFFFFC000
FF00003FFFE000
FF000001FFF000
FF0000007FF800
FF0000001FFC00
FF0000000FFC00
FF00000007FE00
FF00000003FE00
FF00000001FF00
FF00000001FF00
FF00000000FF80
FF00000000FF80
FF000000007F80
FF000000007FC0
FF000000007FC0
FF000000003FC0
FF000000003FC0
FF000000003FE0
FF000000003FE0
FF000000001FE0
FF000000001FE0
FF000000001FE0
FF000000001FE0
FF000000001FE0
FF000000001FE0
FF000000001FE0
FF000000001FE0
FF000000001FE0
FF000000001FE0
FF000000001FE0
FF000000001FE0
FF000000001FE0
FF000000001FE0
FF000000001FE0
FF000000003FE0
FF000000003FE0
FF000000003FC0
FF000000003FC0
FF000000007FC0
FF000000007FC0
FF000000007F80
FF00000000FF80
FF00000000FF80
FF00000001FF00
FF00000001FF00
FF00000003FE00
FF00000007FE00
FF0000000FFC00
FF0000001FFC00
FF0000007FF800
FF000001FFF000
FF00003FFFE000
FFFFFFFFFFC000
FFFFFFFFFF8000
FFFFFFFFFF0000
FFFFFFFFFC0000
FFFFFFFFF00000
FFFFFFFFC00000
FFFFFFFC000000
ENDCHAR
STARTCHAR 0045
ENCODING 69
SWIDTH 663 0
DWIDTH 59 0
BBX 46 65 8 0
BITMAP
FFFFFFFFFFF8
FFFFFFFFFFF8
FFFFFFFFFFF8
FFFFFFFFFFF8
FFFFFFFFFFF8
FFFFFFFFFFF8
FFFFFFFFFFF8
FF0000000000
FF0000000000
FF0000000000
FF0000000000
FF0000000000
FF0000000000
FF0000000000
FF0000000000
FF0000000000
FF0000000000
FF0000000000
FF0000000000
FF0000000000
FF0000000000
FF0000000000
FF0000000000
FF0000000000
FF0000000000
FF0000000000
FF0000000000
FF0000000000
FFFFFFFFFFF0
FFFFFFFFFFF0
FFFFFFFFFFF0
FFFFFFFFFFF0
FFFFFFFFFFF0
FFFFFFFFFFF0
FFFFFFFFFFF0
FF0000000000
FF0000000000
FF0000000000
FF0000000000
FF0000000000
FF0000000000
FF0000000000
FF0000000000
FF0000000000
FF0000000000
FF0000000000
FF0000000000
FF0000000000
FF0000000000
FF0000000000
FF0000000000
FF0000000000
FF0000000000
FF0000000000
FF0000000000
FF0000000000
FF0000000000
FF0000000000
FFFFFFFFFFFC
FFFFFFFFFFFC
FFFFFFFFFFFC
FFFFFFFFFFFC
FFFFFFFFFFFC
FFFFFFFFFFFC
FFFFFFFFFFFC
ENDCHAR
STARTCHAR 0046
ENCODING 70
SWIDTH 607 0
DWIDTH 54 0
BBX 43 65 8 0
BITMAP
FFFFFFFFFFE0
FFFFFFFFFFE0
FFFFFFFFFFE0
FFFFFFFFFFE0
FFFFFFFFFFE0
FFFFFFFFFFE0
FFFFFFFFFFE0
FF0000000000
FF0000000000
FF0000000000
FF0000000000
FF0000000000
FF0000000000
FF0000000000
FF0000000000
FF0000000000
FF0000000000
FF0000000000
FF0000000000
FF0000000000
FF0000000000
FF0000000000
FF0000000000
FF0000000000
FF0000000000
FF0000000000
FF0000000000
FF0000000000
FFFFFFFFFE00
FFFFFFFFFE00
FFFFFFFFFE00
FFFFFFFFFE00
FFFFFFFFFE00
FFFFFFFFFE00
FFFFFFFFFE00
FF0000000000
FF0000000000
FF0000000000
FF0000000000
FF0000000000
FF0000000000
FF0000000000
FF0000000000
FF0000000000
FF0000000000
FF0000000000
FF0000000000
FF0000000000
FF0000000000
FF0000000000
FF0000000000
FF0000000000
FF0000000000
FF0000000000
FF0000000000
FF0000000000
FF0000000000
FF0000000000
FF0000000000
FF0000000000
FF0000000000
FF0000000000
FF0000000000
FF0000000000
FF0000000000
ENDCHAR
STARTCHAR 0047
ENCODING 71
SWIDTH 776 0
DWIDTH 69 0
BBX 59 68 4 -2
BITMAP
0000007FF8000000
00000FFFFFC00000
00003FFFFFF00000
0000FFFFFFFC0000
0003FFFFFFFF0000
0007FFFFFFFF8000
001FFFFFFFFFE000
003FFFF83FFFF000
007FFE0001FFF800
00FFF800007FF800
00FFE000001FFC00
01FFC000000FFE00
03FF00000007FE00
07FE00000003FF00
07FC00000001FF00
0FFC00000000FF80
0FF800000000FF80
1FF0000000007F80
1FF0000000007FC0
3FE0000000007FC0
3FE0000000003FC0
3FC0000000000000
3FC0000000000000
7FC0000000000000
7F80000000000000
7F80000000000000
7F80000000000000
FF80000000000000
FF80000000000000
FF00000000000000
FF00000000000000
FF00000000000000
FF000000FFFFFFE0
FF000000FFFFFFE0
FF000000FFFFFFE0
FF000000FFFFFFE0
FF000000FFFFFFE0
FF000000FFFFFFE0
FF800000FFFFFFE0
FF80000000000FE0
FF80000000000FE0
FF80000000000FE0
7F80000000000FE0
7FC0000000000FE0
7FC0000000001FE0
7FC0000000001FE0
3FE0000000001FE0
3FE0000000001FE0
3FE0000000003FE0
1FF0000000003FE0
1FF0000000007FE0
0FF8000000007FE0
0FFC00000000FFE0
07FE00000000FFE0
07FE00000001FFE0
03FF00000003FFE0
01FFC000000FFFE0
01FFE000001FFFE0
00FFF800007FEFE0
007FFF0001FFCFE0
003FFFF83FFF8FE0
001FFFFFFFFF07E0
000FFFFFFFFC07E0
0003FFFFFFF807E0
0001FFFFFFE007E0
00007FFFFFC003E0
00000FFFFE000000
000000FFE0000000
ENDCHAR
STARTCHAR 0048
ENCODING 72
SWIDTH 720 0
DWIDTH 64 0
BBX 50 65 7 0
BITMAP
FF800000003FC0
FF800000003FC0
FF800000003FC0
FF800000003FC0
FF800000003FC0
FF800000003FC0
FF800000003FC0
FF800000003FC0
FF800000003FC0
FF800000003FC0
FF800000003FC0
FF800000003FC0
FF800000003FC0
FF800000003FC0
FF800000003FC0
FF800000003FC0
FF800000003FC0
FF800000003FC0
FF800000003FC0
FF800000003FC0
FF800000003FC0
FF800000003FC0
FF800000003FC0
FF800000003FC0
FF800000003FC0
FF800000003FC0
FF800000003FC0
FF800000003FC0
FFFFFFFFFFFFC0
FFFFFFFFFFFFC0
FFFFFFFFFFFFC0
FFFFFFFFFFFFC0
FFFFFFFFFFFFC0
FFFFFFFFFFFFC0
FFFFFFFFFFFFC0
FF800000003FC0
FF800000003FC0
FF800000003FC0
FF800000003FC0
FF800000003FC0
FF800000003FC0
FF800000003FC0
FF800000003FC0
FF800000003FC0
FF800000003FC0
FF800000003FC0
FF800000003FC0
FF800000003FC0
FF800000003FC0
FF800000003FC0
FF800000003FC0
FF800000003FC0
FF800000003FC0
FF800000003FC0
FF800000003FC0
FF800000003FC0
FF800000003FC0
FF800000003FC0
FF800000003FC0
FF800000003FC0
FF800000003FC0
FF800000003FC0
FF800000003FC0
FF800000003FC0
FF800000003FC0
ENDCHAR
STARTCHAR 0049
ENCODING 73
SWIDTH 281 0
DWIDTH 25 0
BBX 8 65 9 0
BITMAP
FF
FF
FF
FF
FF
FF
FF
FF
FF
FF
FF
FF
FF
FF
FF
FF
FF
FF
FF
FF
FF
FF
FF
FF
FF
FF
FF
FF
FF
FF
FF
FF
FF
FF
FF
FF
FF
FF
FF
FF
FF
FF
FF
FF
FF
FF
FF
FF
FF
FF
FF
FF
FF
FF
FF
FF
FF
FF
FF
FF
FF
FF
FF
FF
FF
ENDCHAR
STARTCHAR 004A
ENCODING 74
SWIDTH 495 0
DWIDTH 44 0
BBX 36 67 2 -2
BITMAP
0000000FF0
0000000FF0
0000000FF0
0000000FF0
0000000FF0
0000000FF0
0000000FF0
0000000FF0
0000000FF0
0000000FF0
0000000FF0
0000000FF0
0000000FF0
0000000FF0
0000000FF0
0000000FF0
0000000FF0
0000000FF0
0000000FF0
0000000FF0
0000000FF0
0000000FF0
0000000FF0
0000000FF0
0000000FF0
0000000FF0
0000000FF0
0000000FF0
0000000FF0
0000000FF0
0000000FF0
0000000FF0
0000000FF0
0000000FF0
0000000FF0
0000000FF0
0000000FF0
0000000FF0
0000000FF0
0000000FF0
0000000FF0
0000000FF0
0000000FF0
0000000FF0
FF00000FF0
FF00000FF0
FF00000FF0
FF00000FF0
FF00000FF0
FF00001FF0
FF00001FF0
FF00001FF0
FF00001FF0
FF80001FE0
FF80003FE0
FFC0003FE0
7FC0007FE0
7FE000FFC0
7FF001FFC0
3FFC07FF80
1FFFFFFF00
1FFFFFFE00
0FFFFFFC00
03FFFFF800
01FFFFF000
007FFFC000
0007FC0000
ENDCHAR
STARTCHAR 004B
ENCODING 75
SWIDTH 663 0
DWIDTH 59 0
BBX 51 65 7 0
BITMAP
FF00000000FFE0
FF00000001FFC0
FF00000003FF80
FF00000007FF00
FF0000000FFE00
FF0000001FFC00
FF0000003FF800
FF0000007FF000
FF000000FFE000
FF000001FFC000
FF000003FF8000
FF000007FF0000
FF00000FFE0000
FF00001FFC0000
FF00003FF80000
FF00007FF00000
FF0000FFE00000
FF0001FFC00000
FF0003FF800000
FF0007FF000000
FF000FFE000000
FF001FFC000000
FF003FF8000000
FF003FF0000000
FF007FE0000000
FF00FFC0000000
FF01FF80000000
FF03FFC0000000
FF07FFC0000000
FF0FFFE0000000
FF1FFFF0000000
FF3FFFF0000000
FF7FDFF8000000
FFFF8FFC000000
FFFF07FC000000
FFFE07FE000000
FFFC03FF000000
FFF801FF000000
FFF000FF800000
FFE000FFC00000
FFC0007FE00000
FF80003FE00000
FF00003FF00000
FF00001FF80000
FF00000FF80000
FF00000FFC0000
FF000007FE0000
FF000003FE0000
FF000003FF0000
FF000001FF8000
FF000000FF8000
FF000000FFC000
FF0000007FE000
FF0000003FF000
FF0000003FF000
FF0000001FF800
FF0000000FFC00
FF00000007FC00
FF00000007FE00
FF00000003FF00
FF00000001FF00
FF00000001FF80
FF00000000FFC0
FF000000007FC0
FF000000007FE0
ENDCHAR
STARTCHAR 004C
ENCODING 76
SWIDTH 551 0
DWIDTH 49 0
BBX 40 65 7 0
BITMAP
FF00000000
FF00000000
FF00000000
FF00000000
FF00000000
FF00000000
FF00000000
FF00000000
FF00000000
FF00000000
FF00000000
FF00000000
FF00000000
FF00000000
FF00000000
FF00000000
FF00000000
FF00000000
FF00000000
FF00000000
FF00000000
FF00000000
FF00000000
FF00000000
FF00000000
FF00000000
FF00000000
FF00000000
FF00000000
FF00000000
FF00000000
FF00000000
FF00000000
FF00000000
FF00000000
FF00000000
FF00000000
FF00000000
FF00000000
FF00000000
FF00000000
FF00000000
FF00000000
FF00000000
FF00000000
FF00000000
FF00000000
FF00000000
FF00000000
FF00000000
FF00000000
FF00000000
FF00000000
FF00000000
FF00000000
FF00000000
FF00000000
FF00000000
FFFFFFFFFF
FFFFFFFFFF
FFFFFFFFFF
FFFFFFFFFF
FFFFFFFFFF
FFFFFFFFFF
FFFFFFFFFF
ENDCHAR
STARTCHAR 004D
ENCODING 77
SWIDTH 832 0
DWIDTH 74 0
BBX 61 65 7 0
BITMAP
FFE0000000007FF8
FFF0000000007FF8
FFF000000000FFF8
FFF000000000FFF8
FFF800000000FFF8
FFF800000001FFF8
FFF800000001FFF8
FFFC00000001FFF8
FFFC00000003FFF8
FFFC00000003FFF8
FFFE00000003FFF8
FEFE00000007FFF8
FEFE00000007F7F8
FEFF00000007F7F8
FE7F0000000FF7F8
FE7F0000000FE7F8
FE7F8000000FE7F8
FE3F8000001FC7F8
FE3F8000001FC7F8
FE1FC000001FC7F8
FE1FC000003F87F8
FE1FC000003F87F8
FE0FE000003F87F8
FE0FE000007F07F8
FE0FE000007F07F8
FE07F000007F07F8
FE07F00000FE07F8
FE07F00000FE07F8
FE03F80000FE07F8
FE03F80001FC07F8
FE03F80001FC07F8
FE01FC0001FC07F8
FE01FC0003F807F8
FE01FC0003F807F8
FE00FE0003F807F8
FE00FE0007F007F8
FE00FF0007F007F8
FE007F0007F007F8
FE007F000FE007F8
FE007F800FE007F8
FE003F800FE007F8
FE003F801FC007F8
FE003FC01FC007F8
FE001FC01FC007F8
FE001FC03F8007F8
FE001FE03F8007F8
FE000FE03F8007F8
FE000FE07F0007F8
FE000FF07F0007F8
FE0007F07F0007F8
FE0007F0FE0007F8
FE0007F8FE0007F8
FE0003F8FE0007F8
FE0003F9FC0007F8
FE0003FDFC0007F8
FE0001FDFC0007F8
FE0001FFF80007F8
FE0001FFF80007F8
FE0000FFF80007F8
FE0000FFF00007F8
FE0000FFF00007F8
FE00007FF00007F8
FE00007FE00007F8
FE00007FE00007F8
FE00003FE00007F8
ENDCHAR
STARTCHAR 004E
ENCODING 78
SWIDTH 720 0
DWIDTH 64 0
BBX 50 65 7 0
BITMAP
FF800000001FC0
FFC00000001FC0
FFC00000001FC0
FFE00000001FC0
FFF00000001FC0
FFF00000001FC0
FFF80000001FC0
FFFC0000001FC0
FFFC0000001FC0
FFFE0000001FC0
FFFE0000001FC0
FFFF0000001FC0
FFFF8000001FC0
FFFF8000001FC0
FF7FC000001FC0
FF3FE000001FC0
FF3FE000001FC0
FF1FF000001FC0
FF0FF800001FC0
FF0FF800001FC0
FF07FC00001FC0
FF07FC00001FC0
FF03FE00001FC0
FF01FF00001FC0
FF01FF00001FC0
FF00FF80001FC0
FF007FC0001FC0
FF007FC0001FC0
FF003FE0001FC0
FF003FF0001FC0
FF001FF0001FC0
FF000FF8001FC0
FF000FF8001FC0
FF0007FC001FC0
FF0003FE001FC0
FF0003FE001FC0
FF0001FF001FC0
FF0000FF801FC0
FF0000FF801FC0
FF00007FC01FC0
FF00007FE01FC0
FF00003FE01FC0
FF00001FF01FC0
FF00001FF01FC0
FF00000FF81FC0
FF000007FC1FC0
FF000007FC1FC0
FF000003FE1FC0
FF000001FF1FC0
FF000001FF1FC0
FF000000FF9FC0
FF000000FFDFC0
FF0000007FDFC0
FF0000003FFFC0
FF0000003FFFC0
FF0000001FFFC0
FF0000000FFFC0
FF0000000FFFC0
FF00000007FFC0
FF00000003FFC0
FF00000003FFC0
FF00000001FFC0
FF00000001FFC0
FF00000000FFC0
FF000000007FC0
ENDCHAR
STARTCHAR 004F
ENCODING 79
SWIDTH 776 0
DWIDTH 69 0
BBX 63 68 3 -2
BITMAP
0000003FFC000000
000003FFFFC00000
00001FFFFFF80000
00007FFFFFFE0000
0001FFFFFFFF8000
0007FFFFFFFFC000
000FFFFFFFFFE000
001FFFF81FFFF800
003FFF0001FFFC00
007FFC00003FFC00
00FFF000000FFE00
01FFC0000007FF00
01FF80000003FF80
03FF00000001FFC0
07FE00000000FFC0
07FC000000007FE0
0FFC000000003FE0
0FF8000000003FF0
1FF0000000001FF0
1FF0000000000FF0
1FE0000000000FF8
3FE0000000000FF8
3FE00000000007F8
3FC00000000007FC
7FC00000000007FC
7FC00000000003FC
7F800000000003FC
7F800000000003FE
7F800000000003FE
7F800000000003FE
7F800000000001FE
FF800000000001FE
FF800000000001FE
FF800000000001FE
FF800000000001FE
FF800000000001FE
FF800000000001FE
7F800000000001FE
7F800000000001FE
7F800000000003FE
7F800000000003FE
7F800000000003FC
7FC00000000003FC
7FC00000000003FC
3FC00000000007FC
3FE00000000007F8
3FE00000000007F8
1FE0000000000FF8
1FF0000000000FF0
1FF0000000001FF0
0FF8000000001FF0
0FFC000000003FE0
07FC000000007FE0
07FE00000000FFC0
03FF00000001FF80
03FF80000003FF80
01FFC0000007FF00
00FFF000000FFE00
007FFC00003FFC00
003FFF0001FFFC00
001FFFF83FFFF000
000FFFFFFFFFE000
0007FFFFFFFFC000
0001FFFFFFFF8000
00007FFFFFFE0000
00001FFFFFF80000
000007FFFFC00000
0000003FFC000000
ENDCHAR
STARTCHAR 0050
ENCODING 80
SWIDTH 663 0
DWIDTH 59 0
BBX 47 65 8 0
BITMAP
FFFFFFFF8000
FFFFFFFFF000
FFFFFFFFFC00
FFFFFFFFFF00
FFFFFFFFFF80
FFFFFFFFFFC0
FFFFFFFFFFE0
FF00000FFFF0
FF000000FFF0
FF0000003FF8
FF0000001FF8
FF0000000FFC
FF00000007FC
FF00000007FC
FF00000003FE
FF00000003FE
FF00000003FE
FF00000003FE
FF00000003FE
FF00000003FE
FF00000003FE
FF00000003FE
FF00000003FE
FF00000007FC
FF00000007FC
FF0000000FFC
FF0000001FFC
FF0000003FF8
FF0000007FF8
FF000003FFF0
FFFFFFFFFFE0
FFFFFFFFFFC0
FFFFFFFFFF80
FFFFFFFFFF00
FFFFFFFFFE00
FFFFFFFFF800
FFFFFFFFC000
FF0000000000
FF0000000000
FF0000000000
FF0000000000
FF0000000000
FF0000000000
FF0000000000
FF0000000000
FF0000000000
FF0000000000
FF0000000000
FF0000000000
FF0000000000
FF0000000000
FF0000000000
FF0000000000
FF0000000000
FF0000000000
FF0000000000
FF0000000000
FF0000000000
FF0000000000
FF0000000000
FF0000000000
FF0000000000
FF0000000000
FF0000000000
FF0000000000
ENDCHAR
STARTCHAR 0051
ENCODING 81
SWIDTH 776 0
DWIDTH 69 0
BBX 63 71 3 -5
BITMAP
0000003FFC000000
000003FFFFC00000
00001FFFFFF80000
00007FFFFFFE0000
0001FFFFFFFF8000
0007FFFFFFFFC000
000FFFFFFFFFE000
001FFFFC1FFFF800
003FFF0001FFFC00
007FFC00003FFE00
00FFF000001FFE00
01FFC0000007FF00
01FF80000003FF80
03FF00000001FFC0
07FE00000000FFC0
07FC000000007FE0
0FFC000000003FE0
0FF8000000003FF0
1FF0000000001FF0
1FF0000000000FF8
1FE0000000000FF8
3FE0000000000FF8
3FE00000000007FC
3FC00000000007FC
7FC00000000007FC
7FC00000000003FC
7F800000000003FC
7F800000000003FE
7F800000000003FE
7F800000000003FE
7F800000000001FE
FF800000000001FE
FF800000000001FE
FF800000000001FE
FF800000000001FE
FF800000000001FE
FF800000000001FE
7F800000000001FE
7F800000000003FE
7F800000000003FE
7F800000000003FE
7F800000000003FC
7FC00000000003FC
7FC00000000003FC
3FC00000000007FC
3FE00000000007F8
3FE00000000007F8
1FE0000000000FF8
1FF0000001800FF0
1FF0000003C01FF0
0FF8000007E03FF0
0FFC000007F03FE0
07FC00000FFC7FE0
07FE000007FEFFC0
03FF000003FFFF80
01FF800001FFFF80
01FFC00000FFFF00
00FFF000007FFE00
007FFC00003FFC00
003FFF0001FFFC00
001FFFF81FFFFE00
000FFFFFFFFFFF80
0007FFFFFFFFFFC0
0001FFFFFFFFFFE0
00007FFFFFFE3FF0
00001FFFFFF81FF8
000007FFFFC00FFC
0000003FFC0007F8
00000000000001F0
00000000000000E0
0000000000000060
ENDCHAR
STARTCHAR 0052
ENCODING 82
SWIDTH 720 0
DWIDTH 64 0
BBX 52 65 8 0
BITMAP
FFFFFFFFF00000
FFFFFFFFFF0000
FFFFFFFFFFC000
FFFFFFFFFFF000
FFFFFFFFFFF800
FFFFFFFFFFFC00
FFFFFFFFFFFE00
FF800000FFFE00
FF8000000FFF00
FF80000007FF00
FF80000001FF80
FF80000001FF80
FF80000000FF80
FF80000000FFC0
FF800000007FC0
FF800000007FC0
FF800000007FC0
FF800000007FC0
FF800000007FC0
FF800000007FC0
FF800000007FC0
FF800000007FC0
FF800000007F80
FF800000007F80
FF80000000FF80
FF80000000FF00
FF80000001FF00
FF80000003FE00
FF8000000FFC00
FF800000FFF800
FFFFFFFFFFF000
FFFFFFFFFFC000
FFFFFFFFFF0000
FFFFFFFFFF8000
FFFFFFFFFFE000
FFFFFFFFFFF000
FFFFFFFFFFF800
FF8000003FFC00
FF8000000FFE00
FF80000003FE00
FF80000001FE00
FF80000001FF00
FF80000000FF00
FF80000000FF00
FF80000000FF00
FF80000000FF00
FF80000000FF00
FF800000007F00
FF800000007F00
FF800000007F00
FF80000000FF00
FF80000000FF80
FF80000000FF80
FF80000000FF80
FF80000000FF80
FF80000000FF80
FF800000007F80
FF800000007F80
FF800000007F80
FF800000007FC0
FF800000007FC0
FF800000007FE0
FF800000007FF0
FF800000003FF0
FF800000003FF0
ENDCHAR
STARTCHAR 0053
ENCODING 83
SWIDTH 663 0
DWIDTH 59 0
BBX 51 68 4 -2
BITMAP
00001FFF000000
0001FFFFF00000
0007FFFFFC0000
001FFFFFFF0000
007FFFFFFFC000
00FFFFFFFFE000
01FFFFFFFFF000
03FFF003FFF800
07FF80003FFC00
07FE00000FFC00
0FFC000007FE00
0FF8000003FE00
1FF0000001FF00
1FE0000000FF00
1FE0000000FF80
1FE0000000FF80
3FE00000007F80
3FE00000007F80
3FE00000007F80
3FE00000007F80
3FE00000000000
3FE00000000000
1FF00000000000
1FF80000000000
1FFC0000000000
1FFF0000000000
0FFFC000000000
0FFFF800000000
07FFFF80000000
03FFFFF8000000
01FFFFFF000000
00FFFFFFF00000
003FFFFFFF0000
0007FFFFFFC000
0000FFFFFFF000
00000FFFFFF800
000000FFFFFC00
0000001FFFFE00
00000001FFFF00
000000003FFF80
0000000007FF80
0000000001FFC0
0000000000FFC0
00000000007FE0
00000000003FE0
FF000000003FE0
FF000000001FE0
FF000000001FE0
FF000000001FE0
7F800000001FE0
7F800000001FE0
7F800000001FE0
7FC00000003FE0
7FC00000003FC0
3FE00000007FC0
3FF00000007FC0
1FF8000000FF80
1FFC000001FF80
0FFE000003FF00
07FFC0001FFE00
07FFFE01FFFE00
03FFFFFFFFFC00
00FFFFFFFFF800
007FFFFFFFE000
001FFFFFFFC000
0007FFFFFF0000
0001FFFFF80000
00001FFF000000
ENDCHAR
STARTCHAR 0054
ENCODING 84
SWIDTH 607 0
DWIDTH 54 0
BBX 51 65 2 0
BITMAP
FFFFFFFFFFFFE0
FFFFFFFFFFFFE0
FFFFFFFFFFFFE0
FFFFFFFFFFFFE0
FFFFFFFFFFFFE0
FFFFFFFFFFFFE0
FFFFFFFFFFFFE0
000007F8000000
000007F8000000
000007F8000000
000007F8000000
000007F8000000
000007F8000000
000007F8000000
000007F8000000
000007F8000000
000007F8000000
000007F8000000
000007F8000000
000007F8000000
000007F8000000
000007F8000000
000007F8000000
000007F8000000
000007F8000000
000007F8000000
000007F8000000
000007F8000000
000007F8000000
000007F8000000
000007F8000000
000007F8000000
000007F8000000
000007F8000000
000007F8000000
000007F8000000
000007F8000000
000007F8000000
000007F8000000
000007F8000000
000007F8000000
000007F8000000
000007F8000000
000007F8000000
000007F8000000
000007F8000000
000007F8000000
000007F8000000
000007F8000000
000007F8000000
000007F8000000
000007F8000000
000007F8000000
000007F8000000
000007F8000000
000007F8000000
000007F8000000
000007F8000000
000007F8000000
000007F8000000
000007F8000000
000007F8000000
000007F8000000
000007F8000000
000007F8000000
ENDCHAR
STARTCHAR 0055
ENCODING 85
SWIDTH 720 0
DWIDTH 64 0
BBX 49 67 8 -2
BITMAP
FF000000007F80
FF000000007F80
FF000000007F80
FF000000007F80
FF000000007F80
FF000000007F80
FF000000007F80
FF000000007F80
FF000000007F80
FF000000007F80
FF000000007F80
FF000000007F80
FF000000007F80
FF000000007F80
FF000000007F80
FF000000007F80
FF000000007F80
FF000000007F80
FF000000007F80
FF000000007F80
FF000000007F80
FF000000007F80
FF000000007F80
FF000000007F80
FF000000007F80
FF000000007F80
FF000000007F80
FF000000007F80
FF000000007F80
FF000000007F80
FF000000007F80
FF000000007F80
FF000000007F80
FF000000007F80
FF000000007F80
FF000000007F80
FF000000007F80
FF000000007F80
FF000000007F80
FF000000007F80
FF000000007F80
FF000000007F80
FF000000007F80
FF000000007F80
FF000000007F80
FF000000007F80
FF000000007F80
FF000000007F80
FF000000007F80
FF000000007F80
FF80000000FF80
FF80000000FF80
7F80000001FF00
7FC0000001FF00
7FE0000003FF00
3FF0000007FE00
3FF800000FFE00
1FFE00003FFC00
0FFF8000FFF800
0FFFF80FFFF000
07FFFFFFFFE000
03FFFFFFFFC000
00FFFFFFFF8000
007FFFFFFE0000
001FFFFFF80000
0003FFFFE00000
00003FFC000000
ENDCHAR
STARTCHAR 0056
ENCODING 86
SWIDTH 663 0
DWIDTH 59 0
BBX 54 65 3 0
BITMAP
FF8000000007FC
FF8000000007FC
7F8000000007F8
7FC00000000FF8
7FC00000000FF8
3FC00000000FF0
3FE00000001FF0
3FE00000001FF0
1FE00000001FE0
1FF00000003FE0
1FF00000003FE0
0FF80000003FC0
0FF80000007FC0
0FF80000007FC0
07FC0000007F80
07FC000000FF80
03FC000000FF80
03FE000000FF00
03FE000000FF00
01FE000001FF00
01FF000001FE00
01FF000001FE00
00FF000003FE00
00FF800003FC00
00FF800003FC00
007F800007FC00
007FC00007F800
007FC00007F800
003FC0000FF000
003FE0000FF000
001FE0000FF000
001FE0001FE000
001FF0001FE000
000FF0001FE000
000FF0003FC000
000FF8003FC000
0007F8003FC000
0007FC007F8000
0007FC007F8000
0003FC007F8000
0003FE00FF0000
0001FE00FF0000
0001FE00FF0000
0001FF01FE0000
0000FF01FE0000
0000FF01FE0000
0000FF83FC0000
00007F83FC0000
00007F83FC0000
00007FC7F80000
00003FC7F80000
00003FC7F80000
00003FEFF00000
00001FEFF00000
00001FEFE00000
00000FFFE00000
00000FFFE00000
00000FFFC00000
000007FFC00000
000007FFC00000
000007FF800000
000003FF800000
000003FF800000
000003FF000000
000001FF000000
ENDCHAR
STARTCHAR 0057
ENCODING 87
SWIDTH 945 0
DWIDTH 84 0
BBX 80 65 2 0
BITMAP
FF8000000FF8000001FF
FFC000001FF8000001FF
7FC000001FF8000001FF
7FC000001FFC000001FF
7FC000001FFC000003FE
7FC000003FFC000003FE
3FE000003FFC000003FE
3FE000003FFE000003FE
3FE000007FFE000007FC
3FE000007FFE000007FC
1FF000007FFF000007FC
1FF000007FFF000007FC
1FF00000FFFF000007F8
1FF00000FF7F00000FF8
0FF80000FE7F80000FF8
0FF80000FE7F80000FF8
0FF80001FE7F80000FF0
0FF80001FE3FC0001FF0
07F80001FC3FC0001FF0
07FC0003FC3FC0001FF0
07FC0003FC1FC0001FE0
07FC0003F81FE0003FE0
03FC0003F81FE0003FE0
03FE0007F81FE0003FE0
03FE0007F80FF0003FC0
03FE0007F00FF0003FC0
01FE0007F00FF0007FC0
01FF000FF007F0007FC0
01FF000FF007F8007F80
01FF000FE007F8007F80
00FF001FE007F800FF80
00FF001FE003F800FF80
00FF801FC003FC00FF00
007F801FC003FC00FF00
007F803FC001FC00FF00
007F803FC001FE01FF00
007FC03F8001FE01FE00
003FC03F8001FE01FE00
003FC07F8000FE01FE00
003FC07F8000FF03FE00
003FE07F0000FF03FC00
001FE0FF0000FF03FC00
001FE0FF00007F83FC00
001FE0FE00007F83FC00
001FE0FE00007F87F800
000FF1FE00003F87F800
000FF1FE00003FC7F800
000FF1FC00003FC7F800
000FF1FC00003FCFF000
0007FBFC00001FEFF000
0007FBFC00001FEFF000
0007FBF800001FEFF000
0007FFF800000FFFE000
0003FFF800000FFFE000
0003FFF000000FFFE000
0003FFF000000FFFE000
0003FFF0000007FFC000
0001FFF0000007FFC000
0001FFE0000007FFC000
0001FFE0000003FFC000
0001FFE0000003FF8000
0000FFE0000003FF8000
0000FFC0000003FF8000
0000FFC0000001FF8000
0000FFC0000001FF0000
ENDCHAR
STARTCHAR 0058
ENCODING 88
SWIDTH 663 0
DWIDTH 59 0
BBX 55 65 2 0
BITMAP
3FF00000000FFC
3FF00000000FFC
1FF80000001FF8
0FFC0000003FF0
0FFC0000003FF0
07FE0000007FE0
03FF000000FFC0
03FF000000FF80
01FF800001FF80
00FFC00001FF00
00FFC00003FE00
007FE00007FE00
003FF00007FC00
001FF0000FF800
001FF8001FF800
000FFC001FF000
0007FC003FE000
0007FE007FE000
0003FE007FC000
0001FF00FF8000
0001FF81FF0000
0000FF81FF0000
00007FC3FE0000
00007FE7FC0000
00003FE7FC0000
00001FFFF80000
00001FFFF00000
00000FFFF00000
000007FFE00000
000007FFC00000
000003FFC00000
000001FF800000
000003FF800000
000003FFC00000
000007FFE00000
00000FFFE00000
00000FFFF00000
00001FFFF80000
00003FEFF80000
00007FE7FC0000
00007FC7FE0000
0000FF83FF0000
0001FF81FF0000
0001FF01FF8000
0003FE00FFC000
0007FE007FC000
0007FC007FE000
000FF8003FF000
001FF8001FF000
001FF0001FF800
003FF0000FFC00
007FE00007FC00
007FC00007FE00
00FFC00003FF00
01FF800001FF00
03FF000001FF80
03FF000000FFC0
07FE0000007FE0
0FFC0000007FE0
0FFC0000003FF0
1FF80000001FF8
3FF00000001FF8
3FF00000000FFC
7FE00000000FFE
FFC000000007FE
ENDCHAR
STARTCHAR 0059
ENCODING 89
SWIDTH 663 0
DWIDTH 59 0
BBX 57 65 1 0
BITMAP
FFE000000000FF80
7FE000000001FF80
3FF000000003FF00
3FF000000003FF00
1FF800000007FE00
0FFC00000007FC00
0FFC0000000FFC00
07FE0000000FF800
07FE0000001FF800
03FF0000003FF000
01FF8000003FE000
01FF8000007FE000
00FFC000007FC000
007FE00000FF8000
007FE00001FF8000
003FF00001FF0000
001FF00003FF0000
001FF80003FE0000
000FFC0007FC0000
000FFC000FFC0000
0007FE000FF80000
0003FE001FF80000
0003FF001FF00000
0001FF803FE00000
0000FF803FE00000
0000FFC07FC00000
00007FC0FF800000
00003FE0FF800000
00003FF1FF000000
00001FF1FF000000
00001FFBFE000000
00000FFFFC000000
000007FFFC000000
000007FFF8000000
000003FFF0000000
000001FFF0000000
000001FFE0000000
000000FFE0000000
000000FFC0000000
0000007F80000000
0000007F80000000
0000007F80000000
0000007F80000000
0000007F80000000
0000007F80000000
0000007F80000000
0000007F80000000
0000007F80000000
0000007F80000000
0000007F80000000
0000007F80000000
0000007F80000000
0000007F80000000
0000007F80000000
0000007F80000000
0000007F80000000
0000007F80000000
0000007F80000000
0000007F80000000
0000007F80000000
0000007F80000000
0000007F80000000
0000007F80000000
0000007F80000000
0000007F80000000
ENDCHAR
STARTCHAR 005A
ENCODING 90
SWIDTH 607 0
DWIDTH 54 0
BBX 50 65 2 0
BITMAP
1FFFFFFFFFFFC0
1FFFFFFFFFFFC0
1FFFFFFFFFFFC0
1FFFFFFFFFFFC0
1FFFFFFFFFFFC0
1FFFFFFFFFFFC0
1FFFFFFFFFFFC0
0000000001FFC0
0000000003FF80
0000000003FF00
0000000007FE00
000000000FFE00
000000001FFC00
000000001FF800
000000003FF000
000000007FE000
00000000FFE000
00000000FFC000
00000001FF8000
00000003FF0000
00000007FF0000
0000000FFE0000
0000000FFC0000
0000001FF80000
0000003FF80000
0000007FF00000
0000007FE00000
000000FFC00000
000001FF800000
000003FF800000
000003FF000000
000007FE000000
00000FFC000000
00001FFC000000
00003FF8000000
00003FF0000000
00007FE0000000
0000FFC0000000
0001FFC0000000
0001FF80000000
0003FF00000000
0007FE00000000
000FFE00000000
001FFC00000000
001FF800000000
003FF000000000
007FF000000000
00FFE000000000
00FFC000000000
01FF8000000000
03FF0000000000
07FF0000000000
07FE0000000000
0FFC0000000000
1FF80000000000
3FF80000000000
7FF00000000000
7FE00000000000
FFFFFFFFFFFFC0
FFFFFFFFFFFFC0
FFFFFFFFFFFFC0
FFFFFFFFFFFFC0
FFFFFFFFFFFFC0
FFFFFFFFFFFFC0
FFFFFFFFFFFFC0
ENDCHAR
STARTCHAR 005B
ENCODING 91
SWIDTH 281 0
DWIDTH 25 0
BBX 16 84 6 -19
BITMAP
FFFF
FFFF
FFFF
FFFF
FFFF
FFFF
FE00
FE00
FE00
FE00
FE00
FE00
FE00
FE00
FE00
FE00
FE00
FE00
FE00
FE00
FE00
FE00
FE00
FE00
FE00
FE00
FE00
FE00
FE00
FE00
FE00
FE00
FE00
FE00
FE00
FE00
FE00
FE00
FE00
FE00
FE00
FE00
FE00
FE00
FE00
FE00
FE00
FE00
FE00
FE00
FE00
FE00
FE00
FE00
FE00
FE00
FE00
FE00
FE00
FE00
FE00
FE00
FE00
FE00
FE00
FE00
FE00
FE00
FE00
FE00
FE00
FE00
FE00
FE00
FE00
FE00
FE00
FE00
FFFF
FFFF
FFFF
FFFF
FFFF
FFFF
ENDCHAR
STARTCHAR 005C
ENCODING 92
SWIDTH 281 0
DWIDTH 25 0
BBX 26 67 -1 -2
BITMAP
F8000000
7C000000
7C000000
7C000000
3E000000
3E000000
3E000000
1F000000
1F000000
1F000000
0F000000
0F800000
0F800000
07800000
07C00000
07C00000
07C00000
03E00000
03E00000
03E00000
01F00000
01F00000
01F00000
00F80000
00F80000
00F80000
007C0000
007C0000
007C0000
003C0000
003E0000
003E0000
003E0000
001F0000
001F0000
001F0000
000F8000
000F8000
000F8000
0007C000
0007C000
0007C000
0003E000
0003E000
0003E000
0001E000
0001F000
0001F000
0000F000
0000F800
0000F800
0000F800
00007C00
00007C00
00007C00
00003E00
00003E00
00003E00
00001F00
00001F00
00001F00
00000F80
00000F80
00000F80
00000780
000007C0
000007C0
ENDCHAR
STARTCHAR 005D
ENCODING 93
SWIDTH 281 0
DWIDTH 25 0
BBX 17 84 2 -19
BITMAP
FFFF80
FFFF80
FFFF80
FFFF80
FFFF80
FFFF80
007F80
007F80
007F80
007F80
007F80
007F80
007F80
007F80
007F80
007F80
007F80
007F80
007F80
007F80
007F80
007F80
007F80
007F80
007F80
007F80
007F80
007F80
007F80
007F80
007F80
007F80
007F80
007F80
007F80
007F80
007F80
007F80
007F80
007F80
007F80
007F80
007F80
007F80
007F80
007F80
007F80
007F80
007F80
007F80
007F80
007F80
007F80
007F80
007F80
007F80
007F80
007F80
007F80
007F80
007F80
007F80
007F80
007F80
007F80
007F80
007F80
007F80
007F80
007F80
007F80
007F80
007F80
007F80
007F80
007F80
007F80
007F80
FFFF80
FFFF80
FFFF80
FFFF80
FFFF80
FFFF80
ENDCHAR
STARTCHAR 005E
ENCODING 94
SWIDTH 472 0
DWIDTH 42 0
BBX 34 34 4 29
BITMAP
0007F00000
0007F80000
000FF80000
000FF80000
000FFC0000
001FFC0000
001FFE0000
003FFE0000
003F7E0000
003F3F0000
007E3F0000
007E1F8000
00FE1F8000
00FC1FC000
00FC0FC000
01F80FC000
01F807E000
03F807E000
03F007F000
03F003F000
07E003F000
07E001F800
0FE001F800
0FC001FC00
0FC000FC00
1F8000FC00
1F80007E00
3F80007E00
3F00007F00
3F00003F00
7E00003F00
7E00001F80
FE00001F80
FC00000FC0
ENDCHAR
STARTCHAR 005F
ENCODING 95
SWIDTH 551 0
DWIDTH 49 0
BBX 53 4 -2 -15
BITMAP
FFFFFFFFFFFFF8
FFFFFFFFFFFFF8
FFFFFFFFFFFFF8
FFFFFFFFFFFFF8
ENDCHAR
STARTCHAR 0060
ENCODING 96
SWIDTH 337 0
DWIDTH 30 0
BBX 18 13 2 53
BITMAP
FFC000
7FE000
3FF000
1FF000
0FF800
07FC00
03FC00
01FE00
00FF00
007F00
003F80
001F80
000FC0
ENDCHAR
STARTCHAR 0061
ENCODING 97
SWIDTH 551 0
DWIDTH 49 0
BBX 44 50 4 -2
BITMAP
0001FFE00000
001FFFFC0000
007FFFFF0000
01FFFFFFC000
03FFFFFFE000
07FFFFFFF000
0FFFFFFFF800
0FFE007FF800
1FF8000FF800
1FF00007FC00
3FE00003FC00
3FC00003FC00
3FC00003FC00
3FC00001FC00
3F800001FC00
00000001FC00
00000001FC00
00000003FC00
00000003FC00
00000007FC00
0000007FFC00
00001FFFFC00
000FFFFFFC00
007FFFFFFC00
03FFFFFFFC00
07FFFFF9FC00
0FFFFF81FC00
1FFFE001FC00
3FFC0001FC00
7FE00001FC00
7FC00001FC00
FF800001FC00
FF000001FC00
FF000001FC00
FF000001FC00
FE000003FC00
FF000003FC00
FF000007FC00
FF000007FC00
FF00001FFC00
FF80003FFC00
7FC0007FFC00
7FF001FFFE00
3FFF7FFDFF00
3FFFFFF9FFF0
1FFFFFF1FFF0
0FFFFFE0FFF0
07FFFF80FFF0
01FFFE007FF0
003FF0001FC0
ENDCHAR
STARTCHAR 0062
ENCODING 98
SWIDTH 551 0
DWIDTH 49 0
BBX 41 67 5 -2
BITMAP
FE0000000000
FE0000000000
FE0000000000
FE0000000000
FE0000000000
FE0000000000
FE0000000000
FE0000000000
FE0000000000
FE0000000000
FE0000000000
FE0000000000
FE0000000000
FE0000000000
FE0000000000
FE0000000000
FE0000000000
FE007FC00000
FE03FFFC0000
FE0FFFFF0000
FE1FFFFF8000
FE3FFFFFC000
FE7FFFFFE000
FEFFFFFFF000
FFFF80FFF800
FFFC003FFC00
FFF8000FFC00
FFF00007FE00
FFE00003FE00
FFC00003FF00
FFC00001FF00
FF800000FF00
FF800000FF80
FF000000FF80
FF0000007F80
FF0000007F80
FF0000007F80
FF0000007F80
FE0000003F80
FE0000003F80
FE0000003F80
FE0000003F80
FE0000003F80
FE0000003F80
FE0000003F80
FE0000003F80
FF0000007F80
FF0000007F80
FF0000007F80
FF0000007F80
FF000000FF00
FF800000FF00
FF800000FF00
FFC00001FF00
FFC00003FE00
FFE00003FE00
FFF00007FC00
FFF8000FFC00
FFFC003FF800
FDFF80FFF000
FCFFFFFFF000
FCFFFFFFE000
FC7FFFFFC000
FC3FFFFF0000
FC0FFFFE0000
0003FFF80000
00007FC00000
ENDCHAR
STARTCHAR 0063
ENCODING 99
SWIDTH 495 0
DWIDTH 44 0
BBX 39 50 3 -2
BITMAP
0000FF8000
0007FFF800
001FFFFE00
007FFFFF00
00FFFFFFC0
01FFFFFFE0
03FFFFFFE0
07FF00FFF0
0FFC001FF8
0FF8000FF8
1FF00007FC
1FE00003FC
3FC00003FC
3FC00001FC
7F800001FE
7F800001FE
7F800001FE
7F00000000
FF00000000
FF00000000
FF00000000
FF00000000
FF00000000
FF00000000
FF00000000
FF00000000
FF00000000
FF00000000
FF00000000
FF00000000
FF00000000
FF00000000
FF000000FE
7F800000FE
7F800001FE
7F800001FE
3FC00001FE
3FC00003FC
3FE00003FC
1FF00007FC
1FF8000FF8
0FFC001FF8
07FF807FF0
07FFFFFFE0
03FFFFFFC0
01FFFFFF80
007FFFFF00
003FFFFE00
000FFFF800
0000FF8000
ENDCHAR
STARTCHAR 0064
ENCODING 100
SWIDTH 551 0
DWIDTH 49 0
BBX 42 67 2 -2
BITMAP
000000001FC0
000000001FC0
000000001FC0
000000001FC0
000000001FC0
000000001FC0
000000001FC0
000000001FC0
000000001FC0
000000001FC0
000000001FC0
000000001FC0
000000001FC0
000000001FC0
000000001FC0
000000001FC0
000000001FC0
0000FF801FC0
0007FFF01FC0
001FFFFC1FC0
007FFFFE1FC0
00FFFFFF1FC0
01FFFFFF9FC0
03FFFFFFDFC0
07FFC07FFFC0
07FF001FFFC0
0FFC0007FFC0
1FF80003FFC0
1FF00001FFC0
3FE00000FFC0
3FE00000FFC0
3FC000007FC0
7FC000007FC0
7F8000007FC0
7F8000003FC0
7F8000003FC0
7F8000003FC0
7F0000003FC0
FF0000003FC0
FF0000001FC0
FF0000001FC0
FF0000001FC0
FF0000001FC0
FF0000001FC0
FF0000001FC0
FF0000003FC0
7F0000003FC0
7F8000003FC0
7F8000003FC0
7F8000003FC0
7F8000007FC0
3FC000007FC0
3FC000007FC0
3FE00000FFC0
3FE00000FFC0
1FF00001FFC0
1FF80003FFC0
0FFC0007FFC0
07FF000FFFC0
07FFC07FFFC0
03FFFFFFDFC0
01FFFFFF9FC0
00FFFFFF1FC0
007FFFFE1FC0
001FFFFC1FC0
0007FFF00000
0000FF800000
ENDCHAR
STARTCHAR 0065
ENCODING 101
SWIDTH 551 0
DWIDTH 49 0
BBX 42 50 4 -2
BITMAP
0000FFC00000
0007FFF80000
001FFFFE0000
007FFFFF8000
00FFFFFFC000
01FFFFFFE000
03FFFFFFF000
07FF807FF800
0FFC001FFC00
1FF80007FC00
1FF00003FE00
3FE00001FE00
3FC00001FF00
3FC00000FF00
7F800000FF00
7F8000007F80
7F0000007F80
FF0000007F80
FF0000007F80
FF0000003F80
FF0000003F80
FFFFFFFFFFC0
FFFFFFFFFFC0
FFFFFFFFFFC0
FFFFFFFFFFC0
FFFFFFFFFFC0
FFFFFFFFFFC0
FE0000000000
FE0000000000
FE0000000000
FF0000000000
FF0000000000
FF0000000000
FF0000000000
7F0000007F00
7F8000007F00
7F800000FF00
3FC00001FF00
3FE00001FE00
1FF00003FE00
1FF80007FC00
0FFC000FFC00
0FFF807FF800
07FFFFFFF000
03FFFFFFE000
01FFFFFFC000
007FFFFF8000
003FFFFE0000
000FFFF80000
0000FFC00000
ENDCHAR
STARTCHAR 0066
ENCODING 102
SWIDTH 281 0
DWIDTH 25 0
BBX 21 65 2 0
BITMAP
0007F8
001FF8
007FF8
00FFF8
01FFF8
01FFF8
03FFF8
03FE00
03FC00
03F800
03F800
03F800
03F800
03F800
03F800
03F800
03F800
03F800
FFFFF8
FFFFF8
FFFFF8
FFFFF8
FFFFF8
FFFFF8
03F800
03F800
03F800
03F800
03F800
03F800
03F800
03F800
03F800
03F800
03F800
03F800
03F800
03F800
03F800
03F800
03F800
03F800
03F800
03F800
03F800
03F800
03F800
03F800
03F800
03F800
03F800
03F800
03F800
03F800
03F800
03F800
03F800
03F800
03F800
03F800
03F800
03F800
03F800
03F800
03F800
ENDCHAR
STARTCHAR 0067
ENCODING 103
SWIDTH 551 0
DWIDTH 49 0
BBX 40 67 3 -19
BITMAP
0001FE0000
000FFFC07F
003FFFF07F
007FFFF87F
00FFFFFC7F
01FFFFFE7F
03FFFFFF7F
07FF00FFFF
07FC003FFF
0FF8001FFF
1FF0000FFF
1FE00007FF
3FE00003FF
3FC00003FF
3FC00001FF
7F800001FF
7F800001FF
7F800001FF
7F000000FF
7F000000FF
FF000000FF
FF000000FF
FF000000FF
FF000000FF
FF000000FF
FF000000FF
FF000000FF
FF000000FF
FF000000FF
FF000000FF
FF000000FF
7F000000FF
7F800001FF
7F800001FF
7F800001FF
7FC00001FF
3FC00003FF
3FE00003FF
1FE00007FF
1FF0000FFF
0FF8001FFF
0FFC003FFF
07FF00FFFF
03FFFFFEFF
01FFFFFCFF
00FFFFF8FF
007FFFF0FF
003FFFE0FF
000FFF80FE
0001FE00FE
00000000FE
00000000FE
00000001FE
3F800001FE
3F800001FC
3FC00003FC
3FC00003FC
1FE00007F8
1FF0000FF8
1FF8001FF0
0FFE00FFE0
07FFFFFFE0
03FFFFFFC0
01FFFFFF00
00FFFFFE00
003FFFF800
0007FFC000
ENDCHAR
STARTCHAR 0068
ENCODING 104
SWIDTH 551 0
DWIDTH 49 0
BBX 37 65 6 0
BITMAP
FF00000000
FF00000000
FF00000000
FF00000000
FF00000000
FF00000000
FF00000000
FF00000000
FF00000000
FF00000000
FF00000000
FF00000000
FF00000000
FF00000000
FF00000000
FF00000000
FF00000000
FF003FE000
FF01FFFC00
FF07FFFF00
FF0FFFFF80
FF1FFFFFC0
FF3FFFFFE0
FF7FFFFFF0
FFFE007FF0
FFFC001FF8
FFF0000FF8
FFE00007F8
FFE00007F8
FFC00007F8
FF800003F8
FF800003F8
FF800003F8
FF000003F8
FF000003F8
FF000003F8
FF000003F8
FF000003F8
FF000003F8
FF000003F8
FF000003F8
FF000003F8
FF000003F8
FF000003F8
FF000003F8
FF000003F8
FF000003F8
FF000003F8
FF000003F8
FF000003F8
FF000003F8
FF000003F8
FF000003F8
FF000003F8
FF000003F8
FF000003F8
FF000003F8
FF000003F8
FF000003F8
FF000003F8
FF000003F8
FF000003F8
FF000003F8
FF000003F8
FF000003F8
ENDCHAR
STARTCHAR 0069
ENCODING 105
SWIDTH 225 0
DWIDTH 20 0
BBX 7 65 6 0
BITMAP
FE
FE
FE
FE
FE
FE
FE
FE
FE
00
00
00
00
00
00
00
00
00
FE
FE
FE
FE
FE
FE
FE
FE
FE
FE
FE
FE
FE
FE
FE
FE
FE
FE
FE
FE
FE
FE
FE
FE
FE
FE
FE
FE
FE
FE
FE
FE
FE
FE
FE
FE
FE
FE
FE
FE
FE
FE
FE
FE
FE
FE
FE
ENDCHAR
STARTCHAR 006A
ENCODING 106
SWIDTH 225 0
DWIDTH 20 0
BBX 16 84 -2 -19
BITMAP
00FF
00FF
00FF
00FF
00FF
00FF
00FF
00FF
00FF
0000
0000
0000
0000
0000
0000
0000
0000
0000
00FF
00FF
00FF
00FF
00FF
00FF
00FF
00FF
00FF
00FF
00FF
00FF
00FF
00FF
00FF
00FF
00FF
00FF
00FF
00FF
00FF
00FF
00FF
00FF
00FF
00FF
00FF
00FF
00FF
00FF
00FF
00FF
00FF
00FF
00FF
00FF
00FF
00FF
00FF
00FF
00FF
00FF
00FF
00FF
00FF
00FF
00FF
00FF
00FF
00FF
00FF
00FF
00FF
00FF
00FF
00FF
00FF
00FF
01FE
03FE
FFFE
FFFE
FFFC
FFF8
FFF0
FFC0
ENDCHAR
STARTCHAR 006B
ENCODING 107
SWIDTH 495 0
DWIDTH 44 0
BBX 39 65 5 0
BITMAP
FF00000000
FF00000000
FF00000000
FF00000000
FF00000000
FF00000000
FF00000000
FF00000000
FF00000000
FF00000000
FF00000000
FF00000000
FF00000000
FF00000000
FF00000000
FF00000000
FF00000000
FF00000000
FF00001FF0
FF00003FE0
FF00007FC0
FF0000FF80
FF0001FF00
FF0003FE00
FF0007FC00
FF000FF800
FF001FF000
FF003FE000
FF007FC000
FF00FF8000
FF01FF0000
FF03FE0000
FF07FC0000
FF0FF80000
FF1FF80000
FF3FF80000
FF7FFC0000
FFFFFE0000
FFFFFE0000
FFFFFF0000
FFFDFF0000
FFF8FF8000
FFF07FC000
FFE07FC000
FFC03FE000
FF803FF000
FF001FF000
FF000FF800
FF000FF800
FF0007FC00
FF0007FE00
FF0003FE00
FF0001FF00
FF0001FF80
FF0000FF80
FF00007FC0
FF00007FC0
FF00003FE0
FF00003FF0
FF00001FF0
FF00000FF8
FF00000FF8
FF000007FC
FF000003FE
FF000003FE
ENDCHAR
STARTCHAR 006C
ENCODING 108
SWIDTH 225 0
DWIDTH 20 0
BBX 8 65 6 0
BITMAP
FF
FF
FF
FF
FF
FF
FF
FF
FF
FF
FF
FF
FF
FF
FF
FF
FF
FF
FF
FF
FF
FF
FF
FF
FF
FF
FF
FF
FF
FF
FF
FF
FF
FF
FF
FF
FF
FF
FF
FF
FF
FF
FF
FF
FF
FF
FF
FF
FF
FF
FF
FF
FF
FF
FF
FF
FF
FF
FF
FF
FF
FF
FF
FF
FF
ENDCHAR
STARTCHAR 006D
ENCODING 109
SWIDTH 832 0
DWIDTH 74 0
BBX 62 48 6 0
BITMAP
0000FFC0000FF800
FE07FFF8007FFF00
FE0FFFFC01FFFF80
FE1FFFFE03FFFFC0
FE3FFFFF0FFFFFE0
FE7FFFFF9FFFFFF0
FEFFFFFFFFFFFFF8
FFFC01FFFF803FF8
FFF8007FFF001FF8
FFE0007FFC000FF8
FFE0003FFC0007FC
FFC0001FF80003FC
FF80001FF00003FC
FF80001FF00003FC
FF00001FE00003FC
FF00001FE00003FC
FF00001FE00003FC
FF00001FE00003FC
FF00001FE00003FC
FF00001FE00003FC
FF00001FE00003FC
FF00001FE00003FC
FF00001FE00003FC
FF00001FE00003FC
FF00001FE00003FC
FF00001FE00003FC
FF00001FE00003FC
FF00001FE00003FC
FF00001FE00003FC
FF00001FE00003FC
FF00001FE00003FC
FF00001FE00003FC
FF00001FE00003FC
FF00001FE00003FC
FF00001FE00003FC
FF00001FE00003FC
FF00001FE00003FC
FF00001FE00003FC
FF00001FE00003FC
FF00001FE00003FC
FF00001FE00003FC
FF00001FE00003FC
FF00001FE00003FC
FF00001FE00003FC
FF00001FE00003FC
FF00001FE00003FC
FF00001FE00003FC
FF00001FE00003FC
ENDCHAR
STARTCHAR 006E
ENCODING 110
SWIDTH 551 0
DWIDTH 49 0
BBX 37 48 6 0
BITMAP
00007FE000
FE03FFFC00
FE07FFFF00
FE1FFFFF80
FE3FFFFFC0
FE3FFFFFE0
FE7FFFFFF0
FEFE007FF0
FFFC001FF8
FFF0000FF8
FFE00007F8
FFE00007F8
FFC00007F8
FF800003F8
FF800003F8
FF800003F8
FF000003F8
FF000003F8
FF000003F8
FF000003F8
FF000003F8
FF000003F8
FF000003F8
FF000003F8
FF000003F8
FF000003F8
FF000003F8
FF000003F8
FF000003F8
FF000003F8
FF000003F8
FF000003F8
FF000003F8
FF000003F8
FF000003F8
FF000003F8
FF000003F8
FF000003F8
FF000003F8
FF000003F8
FF000003F8
FF000003F8
FF000003F8
FF000003F8
FF000003F8
FF000003F8
FF000003F8
FF000003F8
ENDCHAR
STARTCHAR 006F
ENCODING 111
SWIDTH 551 0
DWIDTH 49 0
BBX 42 50 3 -2
BITMAP
0000FFC00000
0007FFFC0000
001FFFFF0000
007FFFFFC000
00FFFFFFE000
01FFFFFFF000
03FFFFFFF800
07FF807FFC00
0FFE000FFC00
0FFC0007FE00
1FF80003FE00
1FF00001FF00
3FE00000FF00
3FC00000FF80
3FC000007F80
7FC000007F80
7F8000007F80
7F8000003FC0
7F8000003FC0
7F0000003FC0
FF0000003FC0
FF0000003FC0
FF0000001FC0
FF0000001FC0
FF0000001FC0
FF0000001FC0
FF0000001FC0
FF0000001FC0
FF0000003FC0
FF0000003FC0
7F0000003FC0
7F8000003FC0
7F8000003FC0
7F8000007FC0
7FC000007F80
3FC000007F80
3FC00000FF80
3FE00000FF00
1FF00001FF00
1FF80003FE00
0FFC0007FE00
0FFE000FFC00
07FF807FF800
03FFFFFFF800
01FFFFFFF000
00FFFFFFE000
007FFFFF8000
001FFFFF0000
0007FFFC0000
0000FFC00000
ENDCHAR
STARTCHAR 0070
ENCODING 112
SWIDTH 551 0
DWIDTH 49 0
BBX 41 67 5 -19
BITMAP
0000FFC00000
FE03FFF80000
FE0FFFFE0000
FE1FFFFF8000
FE7FFFFFC000
FE7FFFFFE000
FEFFFFFFF000
FFFF80FFF800
FFFC003FF800
FFF8000FFC00
FFF00007FC00
FFE00003FE00
FFC00003FE00
FFC00001FF00
FF800000FF00
FF800000FF00
FF800000FF80
FF0000007F80
FF0000007F80
FF0000007F80
FF0000007F80
FE0000003F80
FE0000003F80
FE0000003F80
FE0000003F80
FE0000003F80
FE0000003F80
FE0000003F80
FF0000003F80
FF0000007F80
FF0000007F80
FF0000007F80
FF0000007F80
FF8000007F80
FF800000FF00
FF800000FF00
FFC00001FF00
FFC00001FE00
FFE00003FE00
FFF00007FE00
FFF8000FFC00
FFFC003FF800
FFFF80FFF800
FEFFFFFFF000
FEFFFFFFE000
FE3FFFFFC000
FE1FFFFF8000
FE0FFFFE0000
FE03FFF80000
FE007FC00000
FE0000000000
FE0000000000
FE0000000000
FE0000000000
FE0000000000
FE0000000000
FE0000000000
FE0000000000
FE0000000000
FE0000000000
FE0000000000
FE0000000000
FE0000000000
FE0000000000
FE0000000000
FE0000000000
FE0000000000
ENDCHAR
STARTCHAR 0071
ENCODING 113
SWIDTH 551 0
DWIDTH 49 0
BBX 42 67 2 -19
BITMAP
0000FF800000
0007FFF01FC0
001FFFFC1FC0
003FFFFF1FC0
00FFFFFF9FC0
01FFFFFFDFC0
03FFFFFFFFC0
07FFC07FFFC0
07FF001FFFC0
0FFC0007FFC0
0FF80003FFC0
1FF00001FFC0
1FE00000FFC0
3FE00000FFC0
3FC000007FC0
3FC000007FC0
7F8000007FC0
7F8000003FC0
7F8000003FC0
7F8000003FC0
7F0000003FC0
7F0000003FC0
FF0000001FC0
FF0000001FC0
FF0000001FC0
FF0000001FC0
FF0000001FC0
FF0000001FC0
FF0000003FC0
7F0000003FC0
7F8000003FC0
7F8000003FC0
7F8000003FC0
7F8000007FC0
7FC000007FC0
3FC000007FC0
3FE00000FFC0
3FE00000FFC0
1FF00001FFC0
1FF80003FFC0
0FFC0007FFC0
0FFF000FFFC0
07FFC07FFFC0
03FFFFFFDFC0
01FFFFFF9FC0
00FFFFFF1FC0
007FFFFE1FC0
003FFFFC1FC0
000FFFF01FC0
0001FF801FC0
000000001FC0
000000001FC0
000000001FC0
000000001FC0
000000001FC0
000000001FC0
000000001FC0
000000001FC0
000000001FC0
000000001FC0
000000001FC0
000000001FC0
000000001FC0
000000001FC0
000000001FC0
000000001FC0
000000001FC0
ENDCHAR
STARTCHAR 0072
ENCODING 114
SWIDTH 337 0
DWIDTH 30 0
BBX 23 48 6 0
BITMAP
00007E
FE03FE
FE07FE
FE0FFE
FE1FFE
FE3FFE
FE7FFE
FEFFFE
FEFE00
FFF800
FFF000
FFE000
FFC000
FFC000
FF8000
FF8000
FF0000
FF0000
FF0000
FF0000
FF0000
FF0000
FF0000
FF0000
FF0000
FF0000
FF0000
FF0000
FF0000
FF0000
FF0000
FF0000
FF0000
FF0000
FF0000
FF0000
FF0000
FF0000
FF0000
FF0000
FF0000
FF0000
FF0000
FF0000
FF0000
FF0000
FF0000
FF0000
ENDCHAR
STARTCHAR 0073
ENCODING 115
SWIDTH 495 0
DWIDTH 44 0
BBX 38 50 3 -2
BITMAP
0003FF8000
003FFFF000
00FFFFFC00
01FFFFFE00
07FFFFFF00
0FFFFFFF80
0FFFFFFFC0
1FFC01FFE0
3FF0007FE0
3FE0003FE0
3FC0001FF0
7F80000FF0
7F80000FF0
7F80000FF0
7F80000000
7F80000000
7FC0000000
7FE0000000
3FF0000000
3FFC000000
1FFF800000
1FFFF80000
0FFFFFC000
07FFFFF800
01FFFFFE00
007FFFFF80
000FFFFFC0
0001FFFFE0
00001FFFF0
000001FFF8
0000003FF8
0000000FF8
00000007FC
00000003FC
FF000003FC
FF000003FC
FF000003FC
FF800003FC
7F800007F8
7FC00007F8
7FE0000FF8
3FF0001FF0
3FFC00FFF0
1FFFFFFFE0
1FFFFFFFC0
0FFFFFFF80
07FFFFFF00
01FFFFFC00
007FFFF000
0007FF0000
ENDCHAR
STARTCHAR 0074
ENCODING 116
SWIDTH 281 0
DWIDTH 25 0
BBX 22 62 1 -2
BITMAP
01FC00
01FC00
01FC00
01FC00
01FC00
01FC00
01FC00
01FC00
01FC00
01FC00
01FC00
01FC00
01FC00
FFFFFC
FFFFFC
FFFFFC
FFFFFC
FFFFFC
FFFFFC
01FC00
01FC00
01FC00
01FC00
01FC00
01FC00
01FC00
01FC00
01FC00
01FC00
01FC00
01FC00
01FC00
01FC00
01FC00
01FC00
01FC00
01FC00
01FC00
01FC00
01FC00
01FC00
01FC00
01FC00
01FC00
01FC00
01FC00
01FC00
01FC00
01FC00
01FC00
01FC00
01FC00
01FC00
01FC00
01FE00
01FFFC
01FFFC
01FFFC
01FFFC
00FFFC
007FFC
000FF8
ENDCHAR
STARTCHAR 0075
ENCODING 117
SWIDTH 551 0
DWIDTH 49 0
BBX 37 49 6 -2
BITMAP
FE000007F8
FE000007F8
FE000007F8
FE000007F8
FE000007F8
FE000007F8
FE000007F8
FE000007F8
FE000007F8
FE000007F8
FE000007F8
FE000007F8
FE000007F8
FE000007F8
FE000007F8
FE000007F8
FE000007F8
FE000007F8
FE000007F8
FE000007F8
FE000007F8
FE000007F8
FE000007F8
FE000007F8
FE000007F8
FE000007F8
FE000007F8
FE000007F8
FE000007F8
FE000007F8
FE000007F8
FE000007F8
FE000007F8
FE000007F8
FE00000FF8
FE00000FF8
FF00001FF8
FF00001FF8
FF80003FF8
FF80007FF8
FFC000FFF8
7FF003FBF8
7FFFFFFBF8
3FFFFFF3F8
1FFFFFE3F8
0FFFFFC3F8
07FFFF03F8
01FFFC0000
003FE00000
ENDCHAR
STARTCHAR 0076
ENCODING 118
SWIDTH 495 0
DWIDTH 44 0
BBX 42 47 1 0
BITMAP
FF0000003FC0
FF8000007FC0
7F8000007F80
7F8000007F80
7FC00000FF00
3FC00000FF00
3FC00000FF00
3FE00001FE00
1FE00001FE00
1FE00001FE00
0FF00003FC00
0FF00003FC00
0FF00003F800
07F80007F800
07F80007F800
07F8000FF000
03FC000FF000
03FC000FF000
03FC001FE000
01FE001FE000
01FE001FC000
01FE003FC000
00FF003FC000
00FF003F8000
00FF007F8000
007F807F8000
007F807F0000
007F80FF0000
003FC0FE0000
003FC0FE0000
003FC1FE0000
001FE1FC0000
001FE1FC0000
000FE3F80000
000FF3F80000
000FF3F80000
0007F7F00000
0007F7F00000
0007FFF00000
0003FFE00000
0003FFE00000
0003FFC00000
0001FFC00000
0001FFC00000
0001FF800000
0000FF800000
0000FF800000
ENDCHAR
STARTCHAR 0077
ENCODING 119
SWIDTH 720 0
DWIDTH 64 0
BBX 62 47 1 0
BITMAP
FF00003FE00007FC
FF00003FF00007F8
FF00007FF00007F8
7F80007FF00007F8
7F80007FF0000FF8
7F80007FF8000FF0
7F80007FF8000FF0
3FC000FFF8000FF0
3FC000FFF8001FE0
3FC000FFFC001FE0
1FC000FFFC001FE0
1FE001FDFC001FE0
1FE001FDFC003FC0
1FE001FDFE003FC0
0FE001F9FE003FC0
0FF003F8FE003F80
0FF003F8FE007F80
07F003F8FF007F80
07F803F0FF007F80
07F807F07F007F00
07F807F07F00FF00
03F807F07F80FF00
03FC07E03F80FE00
03FC0FE03F80FE00
01FC0FE03F81FE00
01FC0FE03FC1FC00
01FE0FC01FC1FC00
01FE1FC01FC1FC00
00FE1FC01FC3FC00
00FE1FC01FE3F800
00FF1F800FE3F800
007F3F800FE3F800
007F3F800FE7F000
007F3F800FF7F000
007FBF0007F7F000
003FFF0007F7F000
003FFF0007FFE000
003FFF0007FFE000
001FFE0003FFE000
001FFE0003FFC000
001FFE0003FFC000
001FFE0003FFC000
000FFC0001FFC000
000FFC0001FF8000
000FFC0001FF8000
0007FC0001FF8000
0007FC0000FF0000
ENDCHAR
STARTCHAR 0078
ENCODING 120
SWIDTH 495 0
DWIDTH 44 0
BBX 40 47 2 0
BITMAP
7F800001FE
7FC00003FE
3FC00003FC
1FE00007F8
1FF0000FF0
0FF0000FF0
07F8001FE0
07FC003FC0
03FC003FC0
01FE007F80
01FF00FF00
00FF00FF00
007F81FE00
007FC3FC00
003FC3FC00
001FE7F800
000FFFF000
000FFFF000
0007FFE000
0003FFC000
0003FF8000
0001FF8000
0000FF0000
0000FF0000
0001FF8000
0003FFC000
0003FFC000
0007FFE000
000FFFF000
000FEFF000
001FE7F800
003FC7FC00
007F83FC00
007F81FE00
00FF01FF00
01FE00FF00
01FE007F80
03FC007FC0
07FC003FC0
07F8001FE0
0FF0001FF0
1FF0000FF0
1FE0000FF8
3FC00007FC
7FC00003FC
7F800003FE
FF000001FF
ENDCHAR
STARTCHAR 0079
ENCODING 121
SWIDTH 495 0
DWIDTH 44 0
BBX 40 66 2 -19
BITMAP
FF000000FF
FF000000FF
7F800000FF
7F800001FE
7F800001FE
3FC00001FC
3FC00003FC
3FC00003FC
1FC00007F8
1FE00007F8
1FE00007F8
0FE0000FF0
0FF0000FF0
0FF0000FF0
07F0001FE0
07F8001FE0
07F8001FC0
03F8003FC0
03FC003FC0
03FC003F80
01FC007F80
01FE007F80
01FE007F00
00FE00FF00
00FF00FF00
00FF01FE00
007F01FE00
007F81FC00
007F83FC00
003F83FC00
003FC3F800
003FC7F800
001FC7F800
001FE7F000
001FEFF000
000FEFF000
000FFFE000
000FFFE000
0007FFC000
0007FFC000
0007FFC000
0003FF8000
0003FF8000
0003FF8000
0001FF0000
0001FF0000
0001FE0000
0001FE0000
0001FE0000
0001FC0000
0003FC0000
0003FC0000
0007F80000
0007F80000
0007F80000
000FF00000
000FF00000
001FE00000
003FE00000
1FFFE00000
1FFFC00000
1FFF800000
1FFF000000
1FFE000000
1FFC000000
0FF0000000
ENDCHAR
STARTCHAR 007A
ENCODING 122
SWIDTH 495 0
DWIDTH 44 0
BBX 38 47 3 0
BITMAP
3FFFFFFFF0
3FFFFFFFF0
3FFFFFFFF0
3FFFFFFFF0
3FFFFFFFF0
3FFFFFFFF0
0000000FF0
0000001FF0
0000003FE0
0000007FC0
000000FF80
000001FF00
000001FF00
000003FE00
000007FC00
00000FF800
00001FF000
00001FE000
00003FE000
00007FC000
0000FF8000
0001FF0000
0003FE0000
0003FE0000
0007FC0000
000FF80000
001FF00000
003FE00000
007FE00000
007FC00000
00FF800000
01FF000000
03FE000000
07FC000000
07FC000000
0FF8000000
1FF0000000
3FE0000000
7FC0000000
FFC0000000
FF80000000
FFFFFFFFFC
FFFFFFFFFC
FFFFFFFFFC
FFFFFFFFFC
FFFFFFFFFC
FFFFFFFFFC
ENDCHAR
STARTCHAR 007B
ENCODING 123
SWIDTH 337 0
DWIDTH 30 0
BBX 21 84 4 -19
BITMAP
0007F8
001FF8
003FF8
007FF8
00FFF8
00FFF8
01FE00
01FC00
01FC00
01FC00
01FC00
01FC00
01FC00
01FC00
01FC00
01FC00
01FC00
01FC00
01FC00
01FC00
01FC00
01FC00
01FC00
01FC00
01FC00
01FC00
01FC00
01FC00
01FC00
01FC00
01FC00
03F800
03F800
03F800
03F800
07F800
0FF000
1FF000
7FE000
FFC000
FF8000
FE0000
FF0000
FF8000
FFC000
3FE000
0FF000
07F000
07F000
03F800
03F800
03F800
01F800
01FC00
01FC00
01FC00
01FC00
01FC00
01FC00
01FC00
01FC00
01FC00
01FC00
01FC00
01FC00
01FC00
01FC00
01FC00
01FC00
01FC00
01FC00
01FC00
01FC00
01FC00
01FC00
01FC00
01FE00
00FF00
00FFF8
007FF8
007FF8
003FF8
000FF8
0001F8
ENDCHAR
STARTCHAR 007C
ENCODING 124
SWIDTH 258 0
DWIDTH 23 0
BBX 5 84 9 -19
BITMAP
F8
F8
F8
F8
F8
F8
F8
F8
F8
F8
F8
F8
F8
F8
F8
F8
F8
F8
F8
F8
F8
F8
F8
F8
F8
F8
F8
F8
F8
F8
F8
F8
F8
F8
F8
F8
F8
F8
F8
F8
F8
F8
F8
F8
F8
F8
F8
F8
F8
F8
F8
F8
F8
F8
F8
F8
F8
F8
F8
F8
F8
F8
F8
F8
F8
F8
F8
F8
F8
F8
F8
F8
F8
F8
F8
F8
F8
F8
F8
F8
F8
F8
F8
F8
ENDCHAR
STARTCHAR 007D
ENCODING 125
SWIDTH 337 0
DWIDTH 30 0
BBX 20 84 3 -19
BITMAP
FE0000
FF8000
FFC000
FFE000
FFF000
FFF800
07F800
03F800
03F800
01FC00
01FC00
01FC00
01FC00
01FC00
01FC00
01FC00
01FC00
01FC00
01FC00
01FC00
01FC00
01FC00
01FC00
01FC00
01FC00
01FC00
01FC00
01FC00
01FC00
01FC00
01FC00
01FC00
01FC00
01FC00
00FE00
00FE00
00FF00
007F80
003FE0
003FF0
000FF0
0007F0
0007F0
001FF0
003FF0
007FC0
007F80
00FF00
00FE00
00FE00
01FC00
01FC00
01FC00
01FC00
01FC00
01FC00
01FC00
01FC00
01FC00
01FC00
01FC00
01FC00
01FC00
01FC00
01FC00
01FC00
01FC00
01FC00
01FC00
01FC00
01FC00
01FC00
01FC00
01FC00
01F800
03F800
03F800
0FF800
FFF000
FFF000
FFE000
FFC000
FF0000
F80000
ENDCHAR
STARTCHAR 007E
ENCODING 126
SWIDTH 585 0
DWIDTH 52 0
BBX 38 15 7 24
BITMAP
03F0000000
0FFC000000
1FFF00007C
3FFFC0007C
3FFFE0007C
7FFFF8007C
7E1FFE007C
7C07FF00FC
F801FFC1FC
F8007FFFF8
F8003FFFF8
F8000FFFF0
F00007FFE0
000001FFC0
0000007F00
ENDCHAR
STARTCHAR 00A0
ENCODING 160
SWIDTH 281 0
DWIDTH 25 0
BBX 0 0 0 0
BITMAP
ENDCHAR
STARTCHAR 00A1
ENCODING 161
SWIDTH 337 0
DWIDTH 30 0
BBX 7 65 11 -18
BITMAP
FE
FE
FE
FE
FE
FE
FE
FE
FE
00
00
00
00
00
00
38
38
3C
7C
7C
7C
7C
7C
7C
7C
7C
7C
7E
FE
FE
FE
FE
FE
FE
FE
FE
FE
FE
FE
FE
FE
FE
FE
FE
FE
FE
FE
FE
FE
FE
FE
FE
FE
FE
FE
FE
FE
FE
FE
FE
FE
FE
FE
FE
FE
ENDCHAR
STARTCHAR 00A2
ENCODING 162
SWIDTH 551 0
DWIDTH 49 0
BBX 40 67 5 -11
BITMAP
00001E0000
00001E0000
00001E0000
00001E0000
00001E0000
00001E0000
00001E0000
00001E0000
00007FC000
0007FFFC00
001FFFFF00
003FFFFF80
00FFFFFFC0
01FFFFFFE0
03FFFFFFF0
07FF9E7FF8
0FFE1E0FFC
0FF81E07FC
1FF01E03FE
1FE01E01FE
3FE01E01FE
3FC01E00FE
7F801E00FF
7F801E00FF
7F801E00FF
7F001E0000
FF001E0000
FF001E0000
FF001E0000
FF001E0000
FE001E0000
FE001E0000
FE001E0000
FE001E0000
FE001E0000
FE001E0000
FF001E0000
FF001E0000
FF001E0000
FF001E0000
FF001E007F
7F801E007F
7F801E00FF
7F801E00FF
7FC01E00FF
3FC01E01FE
3FE01E01FE
1FF01E03FE
1FF81E07FC
0FFE1E0FFC
07FF9E3FF8
03FFFFFFF0
03FFFFFFE0
00FFFFFFC0
007FFFFF80
001FFFFF00
0007FFFC00
0000FFE000
00001E0000
00001E0000
00001E0000
00001E0000
00001E0000
00001E0000
00001E0000
00001E0000
00001E0000
ENDCHAR
STARTCHAR 00A3
ENCODING 163
SWIDTH 551 0
DWIDTH 49 0
BBX 45 67 2 -2
BITMAP
00001FF80000
0000FFFF0000
0007FFFFE000
000FFFFFF000
003FFFFFFC00
007FFFFFFE00
00FFFFFFFE00
01FFE00FFF00
03FF8003FF80
03FE0000FF80
07FC00007FC0
0FF800007FC0
0FF000003FE0
0FF000003FE0
1FF000001FE0
1FE000001FE0
1FE000001FE0
1FE000001FE0
1FE000000FE0
1FE000000FF0
1FE000000000
1FF000000000
1FF000000000
1FF000000000
0FF800000000
0FF800000000
07FC00000000
07FC00000000
03FE00000000
01FE00000000
01FF00000000
FFFFFFFE0000
FFFFFFFE0000
FFFFFFFE0000
FFFFFFFE0000
FFFFFFFE0000
003FE0000000
001FE0000000
001FE0000000
000FE0000000
000FF0000000
000FF0000000
000FF0000000
000FF0000000
000FF0000000
000FE0000000
000FE0000000
000FE0000000
001FC0000000
001FC0000000
003F80000000
003F00000000
007F00000000
00FE00000000
01FC00000000
03F800000000
07F0FF000040
0FE7FFF000E0
1FDFFFFF07E0
3FFFFFFFFFF0
7FFFFFFFFFF8
3FFFFFFFFFF8
1FFFFFFFFFF8
1FE00FFFFFF0
0F0001FFFFE0
0400003FFF80
00000007FC00
ENDCHAR
STARTCHAR 00A4
ENCODING 164
SWIDTH 551 0
DWIDTH 49 0
BBX 37 36 6 13
BITMAP
0C00000080
1E000003C0
3F03FE07E0
7F9FFF8FF0
FFFFFFFFF8
7FFFFFFFF8
3FFFFFFFF0
1FFFFFFFE0
0FFFFFFFC0
0FFE03FF80
0FF800FF80
1FF0007FC0
1FE0003FC0
1FC0001FC0
3FC0001FE0
3F80001FE0
3F80000FE0
3F80000FE0
3F80000FE0
3F80000FE0
3F80000FE0
3FC0001FC0
1FC0001FC0
1FE0003FC0
1FF0007F80
0FF800FF80
07FE03FF80
0FFFFFFFC0
1FFFFFFFE0
3FFFFFFFF0
7FFFFFFFF8
7FFFFFEFF8
3F8FFF87F0
1F01FC03E0
0E00000180
0400000000
ENDCHAR
STARTCHAR 00A5
ENCODING 165
SWIDTH 551 0
DWIDTH 49 0
BBX 47 63 1 0
BITMAP
FF00000000FE
7F00000001FE
7F80000003FC
3FC0000003F8
1FC0000007F8
1FE0000007F0
0FE000000FF0
0FF000000FE0
07F000001FE0
07F800001FC0
03FC00003F80
01FC00007F80
01FE00007F00
00FE0000FF00
00FF0000FE00
007F0001FE00
003F8001FC00
003FC003F800
001FC003F800
001FE007F000
000FE00FF000
000FF00FE000
0007F81FE000
0003F81FC000
0003FC3FC000
0001FC3F8000
0001FE7F0000
0000FE7F0000
0000FFFE0000
00007FFE0000
00003FFC0000
07FFFFFFFFE0
07FFFFFFFFE0
07FFFFFFFFE0
07FFFFFFFFE0
07FFFFFFFFE0
00000FF00000
00000FF00000
00000FF00000
00000FF00000
00000FF00000
00000FF00000
00000FF00000
07FFFFFFFFE0
07FFFFFFFFE0
07FFFFFFFFE0
07FFFFFFFFE0
07FFFFFFFFE0
00000FF00000
00000FF00000
00000FF00000
00000FF00000
00000FF00000
00000FF00000
00000FF00000
00000FF00000
00000FF00000
00000FF00000
00000FF00000
00000FF00000
00000FF00000
00000FF00000
00000FF00000
ENDCHAR
STARTCHAR 00A6
ENCODING 166
SWIDTH 258 0
DWIDTH 23 0
BBX 5 84 9 -19
BITMAP
F8
F8
F8
F8
F8
F8
F8
F8
F8
F8
F8
F8
F8
F8
F8
F8
F8
F8
F8
F8
F8
F8
F8
F8
F8
F8
F8
F8
F8
F8
F8
F8
F8
F8
F8
F8
00
00
00
00
00
00
00
00
00
00
00
00
F8
F8
F8
F8
F8
F8
F8
F8
F8
F8
F8
F8
F8
F8
F8
F8
F8
F8
F8
F8
F8
F8
F8
F8
F8
F8
F8
F8
F8
F8
F8
F8
F8
F8
F8
F8
ENDCHAR
STARTCHAR 00A7
ENCODING 167
SWIDTH 551 0
DWIDTH 49 0
BBX 41 84 4 -19
BITMAP
00003FC00000
0001FFF80000
0007FFFE0000
001FFFFF0000
003FFFFF8000
007FFFFFC000
00FFFFFFE000
01FFC07FE000
01FF001FF000
03FE000FF000
03FC000FF800
03FC0007F800
03FC0007F800
07F80003F800
07F80003F800
07F80003F800
07FC0003F800
03FC0003F800
03FE00000000
03FF00000000
01FFC0000000
00FFE0000000
00FFF8000000
007FFC000000
00FFFF000000
03FFFF800000
07FFFFE00000
0FF1FFF00000
1FE0FFFC0000
3F803FFE0000
7F801FFF8000
7F000FFFC000
7E0003FFF000
FE0001FFF800
FE00007FFC00
FE00003FFC00
FE00000FFE00
FE000007FF00
FE000003FF00
FF000001FF00
FF000000FF80
FF8000007F80
7FC000007F80
7FF000003F80
3FF800003F80
3FFC00003F80
1FFF00003F80
0FFF80003F80
07FFC0003F80
03FFF0007F00
01FFF8007F00
007FFC00FF00
003FFF01FE00
000FFF83FC00
0007FFC7F800
0003FFFFF000
0000FFFFE000
00007FFF8000
00001FFE0000
00000FFF0000
000003FF8000
000001FFC000
000000FFC000
0000007FE000
0000003FE000
0000001FF000
1FE0001FF000
1FE0000FF000
1FE0000FF000
1FE0000FF000
1FE0000FF000
1FE0000FF000
1FF0001FF000
0FF0001FE000
0FF8003FE000
07FC007FE000
07FF01FFC000
03FFFFFF8000
01FFFFFF8000
01FFFFFF0000
007FFFFC0000
003FFFF80000
000FFFE00000
0001FF000000
ENDCHAR
STARTCHAR 00A8
ENCODING 168
SWIDTH 337 0
DWIDTH 30 0
BBX 23 9 3 55
BITMAP
FF83FE
FF83FE
FF83FE
FF83FE
FF83FE
FF83FE
FF83FE
FF83FE
FF83FE
ENDCHAR
STARTCHAR 00A9
ENCODING 169
SWIDTH 742 0
DWIDTH 66 0
BBX 68 68 -1 -2
BITMAP
0000000FFF00000000
000000FFFFF0000000
000007FFFFFE000000
00001FFFFFFF800000
00007FFFFFFFE00000
0001FFFFFFFFF00000
0003FFC0007FFC0000
0007FF00000FFE0000
000FF8000003FF0000
003FF0000000FF8000
007FC00000007FC000
007F800000001FE000
00FF000000000FF000
01FE0000000007F800
03FC0007FF0003FC00
07F8001FFFC001FC00
07F0007FFFF000FE00
0FE000FFFFF800FF00
0FC001FFFFFC007F00
1FC003FE03FC003F80
1F8007F801FE003F80
3F800FF000FE001F80
3F000FE0007F001FC0
3F001FC0003F000FC0
7F001F80003F800FC0
7E001F80001F800FE0
7E003F80001F8007E0
7E003F0000000007E0
FC003F0000000007E0
FC003F0000000007E0
FC007F0000000007F0
FC007E0000000003F0
FC007E0000000003F0
FC007E0000000003F0
FC007E0000000003F0
FC007E0000000003F0
FC007E0000000003F0
FC007E0000000003F0
FC007F00000FC007E0
FC003F00000FC007E0
FE003F00001FC007E0
7E003F00001F8007E0
7E003F80001F8007E0
7F001F80003F800FC0
7F001FC0003F800FC0
3F001FE0007F001FC0
3F800FE0007F001F80
1F8007F800FE001F80
1FC007FC03FE003F80
0FC003FFFFFC007F00
0FE001FFFFF8007F00
07F000FFFFF000FE00
07F8007FFFE001FC00
03FC001FFF8003FC00
01FC0003FC0007F800
01FF000000000FF000
00FF800000001FE000
007FC00000003FC000
003FF0000000FF8000
001FF8000003FF0000
000FFF00000FFE0000
0003FFC0007FFC0000
0001FFFFFFFFF00000
00007FFFFFFFE00000
00001FFFFFFF800000
000007FFFFFE000000
000000FFFFF0000000
0000000FFE00000000
ENDCHAR
STARTCHAR 00AA
ENCODING 170
SWIDTH 371 0
DWIDTH 33 0
BBX 27 39 3 27
BITMAP
007FC000
03FFF000
0FFFFC00
1FFFFC00
1FFFFE00
3F807E00
3F003F00
3E003F00
7E001F00
7E001F00
00003F00
00003F00
0003FF00
00FFFF00
07FFFF00
1FFFFF00
3FFE1F00
7F801F00
7E001F00
7C001F00
FC001F00
F8003F00
FC003F00
FC007F00
7C00FF00
7F03FF00
7FFFFFE0
3FFFDFE0
1FFF8FE0
0FFE07E0
00E00000
00000000
00000000
00000000
7FFFFF80
7FFFFF80
7FFFFF80
7FFFFF80
7FFFFF80
ENDCHAR
STARTCHAR 00AB
ENCODING 171
SWIDTH 551 0
DWIDTH 49 0
BBX 31 28 9 10
BITMAP
00180002
0038000E
0078001E
00F8003E
03F8007E
07F801FE
0FF803FE
1FF007FC
7FE00FF8
FF803FF0
FF003FC0
FE003F80
F8003F00
F0003C00
F8003E00
FC003F00
FE003F80
FF803FE0
7FC01FF0
3FE00FF8
1FF007FE
0FF801FE
03F800FE
01F8007E
00F8003E
0078000E
00180006
00080002
ENDCHAR
STARTCHAR 00AC
ENCODING 172
SWIDTH 585 0
DWIDTH 52 0
BBX 44 25 4 8
BITMAP
FFFFFFFFFFF0
FFFFFFFFFFF0
FFFFFFFFFFF0
FFFFFFFFFFF0
FFFFFFFFFFF0
FFFFFFFFFFF0
0000000003F0
0000000003F0
0000000003F0
0000000003F0
0000000003F0
0000000003F0
0000000003F0
0000000003F0
0000000003F0
0000000003F0
0000000003F0
0000000003F0
0000000003F0
0000000003F0
0000000003F0
0000000003F0
0000000003F0
0000000003F0
0000000003F0
ENDCHAR
STARTCHAR 00AD
ENCODING 173
SWIDTH 337 0
DWIDTH 30 0
BBX 21 6 4 22
BITMAP
FFFFF8
FFFFF8
FFFFF8
FFFFF8
FFFFF8
FFFFF8
ENDCHAR
STARTCHAR 00AE
ENCODING 174
SWIDTH 742 0
DWIDTH 66 0
BBX 68 68 -1 -2
BITMAP
0000000FFF00000000
000000FFFFF0000000
000007FFFFFE000000
00001FFFFFFF800000
00007FFFFFFFE00000
0001FFFFFFFFF00000
0003FFC0007FFC0000
0007FF00000FFE0000
001FF8000003FF0000
003FF0000000FF8000
007FC00000003FC000
00FF800000001FE000
00FE000000000FF000
01FC0000000007F800
03F81FFFFFC003FC00
07F81FFFFFF801FC00
07F01FFFFFFC00FE00
0FE01FFFFFFF007F00
0FC01FFFFFFF007F00
1FC01FFFFFFF803F80
1F801F80007F803F80
3F801F80003F801F80
3F001F80001FC01FC0
3F001F80001FC00FC0
7F001F80001FC00FC0
7E001F80001FC00FE0
7E001F80001FC007E0
7E001F80001FC007E0
FC001F80001F8007E0
FC001F80003F8007F0
FC001F80007F8003F0
FC001FFFFFFF0003F0
FC001FFFFFFE0003F0
FC001FFFFFFC0003F0
FC001FFFFFFC0003F0
FC001FFFFFFE0003F0
FC001FFFFFFF0003F0
FC001F8000FF0003F0
FC001F80007F8007E0
FC001F80003F8007E0
7E001F80003F8007E0
7E001F80001F8007E0
7E001F80001F800FE0
7F001F80001F800FC0
3F001F80001F800FC0
3F001F80001F801FC0
3F801F80001F801F80
1F801F80001F803F80
1FC01F80001F803F80
0FE01F80001FC07F00
0FE01F80001FC07F00
07F01F80001FE0FE00
07F81F80000FE1FC00
03FC1F80000FE3FC00
01FE0000000007F800
00FF000000000FF000
00FF800000001FE000
007FC00000003FC000
003FF0000000FF8000
001FF8000003FF0000
0007FF00000FFE0000
0003FFC0007FFC0000
0001FFFFFFFFF00000
00007FFFFFFFE00000
00001FFFFFFF800000
000007FFFFFC000000
000000FFFFF0000000
0000000FFE00000000
ENDCHAR
STARTCHAR 00AF
ENCODING 175
SWIDTH 337 0
DWIDTH 30 0
BBX 25 6 2 56
BITMAP
FFFFFF80
FFFFFF80
FFFFFF80
FFFFFF80
FFFFFF80
FFFFFF80
ENDCHAR
STARTCHAR 00B0
ENCODING 176
SWIDTH 405 0
DWIDTH 36 0
BBX 27 27 4 34
BITMAP
003F8000
00FFF000
03FFFC00
07FFFE00
0FFFFF00
1FE0FF80
3F803F80
3F000FC0
7E000FC0
7C0007E0
7C0003E0
FC0003E0
F80003E0
F80003E0
F80003E0
FC0003E0
7C0003E0
7C0007E0
7E0007C0
3F000FC0
3F803F80
1FE0FF80
0FFFFF00
07FFFE00
03FFF800
00FFF000
003F8000
ENDCHAR
STARTCHAR 00B1
ENCODING 177
SWIDTH 585 0
DWIDTH 52 0
BBX 43 56 4 -1
BITMAP
00001F800000
00001F800000
00001F800000
00001F800000
00001F800000
00001F800000
00001F800000
00001F800000
00001F800000
00001F800000
00001F800000
00001F800000
00001F800000
00001F800000
00001F800000
00001F800000
00001F800000
00001F800000
FFFFFFFFFFE0
FFFFFFFFFFE0
FFFFFFFFFFE0
FFFFFFFFFFE0
FFFFFFFFFFE0
FFFFFFFFFFE0
00001F800000
00001F800000
00001F800000
00001F800000
00001F800000
00001F800000
00001F800000
00001F800000
00001F800000
00001F800000
00001F800000
00001F800000
00001F800000
00001F800000
00001F800000
00001F800000
00001F800000
00001F800000
00001F800000
000000000000
000000000000
000000000000
000000000000
000000000000
000000000000
000000000000
FFFFFFFFFFE0
FFFFFFFFFFE0
FFFFFFFFFFE0
FFFFFFFFFFE0
FFFFFFFFFFE0
FFFFFFFFFFE0
ENDCHAR
STARTCHAR 00B2
ENCODING 178
SWIDTH 337 0
DWIDTH 30 0
BBX 27 38 1 25
BITMAP
003FC000
01FFF800
07FFFE00
0FFFFF00
1FFFFF80
1FC03FC0
3F801FC0
3F000FE0
3E0007E0
7E0007E0
7E0003E0
7C0003E0
7C0003E0
7C0007E0
000007E0
00000FC0
00001FC0
00003F80
0000FF00
0003FE00
0007FC00
001FF800
007FE000
00FF8000
03FE0000
07F80000
0FF00000
1FC00000
3F800000
3F000000
7F000000
7E000000
7E000000
FFFFFFE0
FFFFFFE0
FFFFFFE0
FFFFFFE0
FFFFFFE0
ENDCHAR
STARTCHAR 00B3
ENCODING 179
SWIDTH 337 0
DWIDTH 30 0
BBX 27 39 1 24
BITMAP
007FC000
03FFF000
07FFFC00
1FFFFE00
1FFFFF00
3F807F00
3F003F80
7E001F80
7E000F80
7C000FC0
7C000FC0
7C000FC0
FC000F80
00001F80
00001F80
00007F00
003FFE00
003FFC00
003FF800
003FFE00
003FFF00
00003F80
00001FC0
00000FC0
000007E0
000007E0
F80007E0
F80007E0
F80007E0
FC0007E0
FC0007C0
FE000FC0
7E001FC0
7F807F80
3FFFFF00
1FFFFE00
0FFFFC00
03FFF000
00FF8000
ENDCHAR
STARTCHAR 00B4
ENCODING 180
SWIDTH 337 0
DWIDTH 30 0
BBX 17 13 9 53
BITMAP
01FF80
01FF00
03FE00
07FC00
07F800
0FF000
1FE000
1FC000
3F8000
3F0000
7E0000
FC0000
F80000
ENDCHAR
STARTCHAR 00B5
ENCODING 181
SWIDTH 551 0
DWIDTH 49 0
BBX 42 67 6 -20
BITMAP
FE000007F800
FE000007F800
FE000007F800
FE000007F800
FE000007F800
FE000007F800
FE000007F800
FE000007F800
FE000007F800
FE000007F800
FE000007F800
FE000007F800
FE000007F800
FE000007F800
FE000007F800
FE000007F800
FE000007F800
FE000007F800
FE000007F800
FE000007F800
FE000007F800
FE000007F800
FE000007F800
FE000007F800
FE000007F800
FE000007F800
FE000007F800
FE000007F800
FE000007F800
FE000007F800
FE000007F800
FE000007F800
FE000007F800
FE00000FF800
FE00000FF800
FE00000FF800
FF00001FF800
FF00003FF800
FF80003FF800
FF80007FF800
FFC000FFF800
FFF003FFFC00
FFFFFFFBFE00
FFFFFFF3FFC0
FFFFFFE3FFC0
FFFFFFC3FFC0
FFFFFF01FFC0
FEFFFE00FFC0
FE1FF0003F80
FE0000000000
FE0000000000
FE0000000000
FE0000000000
FE0000000000
FE0000000000
FE0000000000
FE0000000000
FE0000000000
FE0000000000
FE0000000000
FE0000000000
FE0000000000
FE0000000000
FE0000000000
FE0000000000
FE0000000000
FE0000000000
ENDCHAR
STARTCHAR 00B6
ENCODING 182
SWIDTH 540 0
DWIDTH 48 0
BBX 42 81 4 -16
BITMAP
0000FFFFFFC0
0007FFFFFFC0
001FFFFFFFC0
007FFFFFFFC0
00FFFFFFFFC0
01FFFFFFFFC0
03FFFF00F800
07FFFF00F800
0FFFFF00F800
0FFFFF00F800
1FFFFF00F800
3FFFFF00F800
3FFFFF00F800
3FFFFF00F800
7FFFFF00F800
7FFFFF00F800
7FFFFF00F800
7FFFFF00F800
FFFFFF00F800
FFFFFF00F800
FFFFFF00F800
FFFFFF00F800
FFFFFF00F800
FFFFFF00F800
FFFFFF00F800
7FFFFF00F800
7FFFFF00F800
7FFFFF00F800
7FFFFF00F800
3FFFFF00F800
3FFFFF00F800
1FFFFF00F800
1FFFFF00F800
0FFFFF00F800
0FFFFF00F800
07FFFF00F800
03FFFF00F800
01FFFF00F800
00FFFF00F800
003FFF00F800
000FFF00F800
0000FF00F800
00001F00F800
00001F00F800
00001F00F800
00001F00F800
00001F00F800
00001F00F800
00001F00F800
00001F00F800
00001F00F800
00001F00F800
00001F00F800
00001F00F800
00001F00F800
00001F00F800
00001F00F800
00001F00F800
00001F00F800
00001F00F800
00001F00F800
00001F00F800
00001F00F800
00001F00F800
00001F00F800
00001F00F800
00001F00F800
00001F00F800
00001F00F800
00001F00F800
00001F00F800
00001F00F800
00001F00F800
00001F00F800
00001F00F800
00001F00F800
00001F00F800
00001F00F800
00001F00F800
00001F00F800
00001F00F800
ENDCHAR
STARTCHAR 00B7
ENCODING 183
SWIDTH 281 0
DWIDTH 25 0
BBX 9 9 10 20
BITMAP
FF80
FF80
FF80
FF80
FF80
FF80
FF80
FF80
FF80
ENDCHAR
STARTCHAR 00B8
ENCODING 184
SWIDTH 337 0
DWIDTH 30 0
BBX 22 19 4 -19
BITMAP
003C00
003800
003800
007800
007000
00FFC0
00FFF0
01FFF8
0187F8
0003F8
0001FC
0001F8
0001F8
7003F8
FC07F8
FFFFF0
7FFFE0
1FFF80
03FE00
ENDCHAR
STARTCHAR 00B9
ENCODING 185
SWIDTH 337 0
DWIDTH 30 0
BBX 14 38 5 25
BITMAP
003C
003C
007C
007C
00FC
01FC
07FC
FFFC
FFFC
FFFC
FFFC
00FC
00FC
00FC
00FC
00FC
00FC
00FC
00FC
00FC
00FC
00FC
00FC
00FC
00FC
00FC
00FC
00FC
00FC
00FC
00FC
00FC
00FC
00FC
00FC
00FC
00FC
00FC
ENDCHAR
STARTCHAR 00BA
ENCODING 186
SWIDTH 360 0
DWIDTH 32 0
BBX 25 39 4 27
BITMAP
00FF0000
03FFE000
0FFFF000
1FFFF800
3FFFFC00
3F80FE00
7F007E00
7E003F00
7C003F00
FC001F00
F8001F00
F8001F80
F8001F80
F8000F80
F8000F80
F8000F80
F8000F80
F8000F80
F8001F80
F8001F80
F8001F00
FC001F00
7C003F00
7E007E00
7F00FE00
3FC1FC00
1FFFFC00
0FFFF800
07FFE000
01FFC000
00180000
00000000
00000000
00000000
7FFFFF00
7FFFFF00
7FFFFF00
7FFFFF00
7FFFFF00
ENDCHAR
STARTCHAR 00BB
ENCODING 187
SWIDTH 551 0
DWIDTH 49 0
BBX 31 29 9 9
BITMAP
00004000
C0006000
E0007000
F0007C00
F8007E00
FE007F00
FF007FC0
FF807FE0
7FC01FF0
3FF00FF8
0FF807FE
07F801FE
03F800FE
00F8007E
0078001E
00F8003E
01F8007E
03F800FE
07F803FE
1FF007FC
3FE00FF8
7FC03FF0
FF807FC0
FE007F80
FC007F00
F8007E00
F0007800
C0007000
80006000
ENDCHAR
STARTCHAR 00BC
ENCODING 188
SWIDTH 832 0
DWIDTH 74 0
BBX 70 65 2 -2
BITMAP
001E000000000F8000
003E000000001F0000
003E000000003F0000
003E000000003E0000
007E000000007C0000
00FE000000007C0000
03FE00000000F80000
FFFE00000001F80000
FFFE00000001F00000
FFFE00000003E00000
FFFE00000007E00000
007E00000007C00000
007E0000000F800000
007E0000000F800000
007E0000001F000000
007E0000003F000000
007E0000003E000000
007E0000007C000000
007E0000007C000000
007E000000F8000000
007E000001F0000000
007E000001F0000000
007E000003E0000000
007E000007E0000000
007E000007C0000000
007E00000F80000F00
007E00000F80001F00
007E00001F00003F00
007E00003F00003F00
007E00003E00007F00
007E00007C0000FF00
007E00007C0001FF00
007E0000F80001FF00
007E0001F00003FF00
007E0001F00007FF00
007E0003E0000FDF00
007E0007E0000F9F00
007E0007C0001F1F00
0000000F80003F1F00
0000000F80007E1F00
0000001F00007C1F00
0000003F0000F81F00
0000003E0001F81F00
0000007C0003F01F00
0000007C0007E01F00
000000F80007C01F00
000001F0000FC01F00
000001F0001F801F00
000003E0003F001F00
000007E0003FFFFFFC
000007C0003FFFFFFC
00000F80003FFFFFFC
00000F80003FFFFFFC
00001F00003FFFFFFC
00003E000000001F00
00003E000000001F00
00007C000000001F00
0000FC000000001F00
0000F8000000001F00
0001F0000000001F00
0001F0000000001F00
0003E0000000001F00
0007E0000000001F00
0007C0000000000000
000F80000000000000
ENDCHAR
STARTCHAR 00BD
ENCODING 189
SWIDTH 832 0
DWIDTH 74 0
BBX 70 65 2 -2
BITMAP
001E000000003E0000
003E000000007C0000
003E00000000F80000
003E00000000F80000
007E00000001F00000
00FE00000003F00000
03FE00000003E00000
FFFE00000007C00000
FFFE00000007C00000
FFFE0000000F800000
FFFE0000001F800000
FFFE0000001F000000
007E0000003E000000
007E0000007E000000
007E0000007C000000
007E000000F8000000
007E000000F8000000
007E000001F0000000
007E000003F0000000
007E000003E0000000
007E000007C0000000
007E000007C0000000
007E00000F80000000
007E00001F00000000
007E00001F00000000
007E00003E0003F000
007E00007E003FFE00
007E00007C00FFFF80
007E0000F801FFFFC0
007E0000F803FFFFE0
007E0001F003FC0FF0
007E0003F007F003F8
007E0003E007E001F8
007E0007C00FC001F8
007E0007C00FC000FC
007E000F800F8000FC
007E001F000F8000FC
007E001F000F8000FC
0000003E001F8000FC
0000007E00000000F8
0000007C00000001F8
000000F800000003F8
000000F800000007F0
000001F00000001FE0
000003E00000003FC0
000003E0000000FF80
000007C0000003FF00
00000FC000000FFC00
00000F8000001FF000
00001F0000007FC000
00001F000000FF0000
00003E000001FE0000
00007E000003F80000
00007C000007F00000
0000F8000007E00000
0000F800000FC00000
0001F000000FC00000
0003E000001F800000
0003E000001FFFFFFC
0007C000001FFFFFFC
000FC000001FFFFFFC
000F8000001FFFFFFC
001F0000001FFFFFFC
001F00000000000000
003E00000000000000
ENDCHAR
STARTCHAR 00BE
ENCODING 190
SWIDTH 832 0
DWIDTH 74 0
BBX 70 65 2 -2
BITMAP
003FC000000003E000
01FFF800000003E000
07FFFE00000007C000
0FFFFF0000000FC000
1FFFFF0000000F8000
1FC03F8000001F0000
3F001F8000001F0000
3F000FC000003E0000
3E000FC000007C0000
7E000FC000007C0000
7E0007C00000F80000
7E0007C00001F80000
7E000FC00001F00000
00000FC00003E00000
00001F800003E00000
00003F800007C00000
001FFF00000F800000
001FFC00000F800000
001FFC00001F000000
001FFF00003F000000
001FFF80003E000000
00003FC0007C000000
00000FE0007C000000
000007E000F8000000
000007E001F8000000
000003E001F0000F00
FC0003E003E0001F00
FC0003E003E0003F00
FC0003E007C0003F00
FC0003E00F80007F00
7E0007E00F8000FF00
7E0007E01F0001FF00
7F000FC03F0001FF00
3FC03FC03E0003FF00
1FFFFF807C0007FF00
0FFFFF007C000FDF00
07FFFE00F8001F9F00
03FFF801F8001F1F00
007FC001F0003E1F00
00000003E0007E1F00
00000007E000FC1F00
00000007C000F81F00
0000000F8001F01F00
0000000F8003F01F00
0000001F0007E01F00
0000003F0007C01F00
0000003E000F801F00
0000007C001F801F00
0000007C003F001F00
000000F8003FFFFFFC
000001F0003FFFFFFC
000001F0003FFFFFFC
000003E0003FFFFFFC
000007E0003FFFFFFC
000007C00000001F00
00000F800000001F00
00000F800000001F00
00001F000000001F00
00003F000000001F00
00003E000000001F00
00007C000000001F00
00007C000000001F00
0000F8000000001F00
0001F0000000000000
0001F0000000000000
ENDCHAR
STARTCHAR 00BF
ENCODING 191
SWIDTH 607 0
DWIDTH 54 0
BBX 39 66 8 -19
BITMAP
0000FF0000
0000FF0000
0000FF0000
0000FF0000
0000FF0000
0000FF0000
0000FF0000
0000FF0000
0000FF0000
0000000000
0000000000
0000000000
0000000000
0000000000
0000000000
0000000000
0000000000
0000000000
0000FF0000
0000FF0000
0000FF0000
0000FF0000
0000FF0000
0000FF0000
0000FF0000
0000FF0000
0001FF0000
0001FF0000
0003FE0000
0007FE0000
000FFC0000
001FF80000
003FF00000
007FE00000
00FFC00000
01FF800000
03FF000000
07FE000000
0FFC000000
1FF8000000
1FF0000000
3FE0000000
3FC0000000
7FC0000000
7F80000000
7F800001FE
7F800001FE
7F800001FE
FF000001FE
FF000001FE
7F800001FE
7F800001FC
7F800003FC
7FC00003FC
7FC00003FC
3FE00007F8
3FF0000FF8
1FF8001FF0
1FFF00FFF0
0FFFFFFFE0
07FFFFFFC0
03FFFFFF80
01FFFFFF00
007FFFFE00
001FFFF000
0003FF8000
ENDCHAR
STARTCHAR 00C0
ENCODING 192
SWIDTH 663 0
DWIDTH 59 0
BBX 56 84 2 0
BITMAP
0001FF80000000
0000FFC0000000
00007FC0000000
00003FE0000000
00001FF0000000
00000FF0000000
000007F8000000
000003FC000000
000001FC000000
000000FE000000
0000007F000000
0000003F000000
0000001F800000
0000000FC00000
00000000000000
00000000000000
00000000000000
00000000000000
00000000000000
000003FF800000
000003FFC00000
000003FFC00000
000007FFE00000
000007FFE00000
000007FFE00000
00000FFFF00000
00000FFFF00000
00000FFFF00000
00001FFFF80000
00001FEFF80000
00001FE7F80000
00003FE7FC0000
00003FC7FC0000
00007FC3FC0000
00007F83FE0000
00007F83FE0000
0000FF81FE0000
0000FF01FF0000
0000FF01FF0000
0001FF00FF0000
0001FE00FF8000
0001FE007F8000
0003FC007FC000
0003FC007FC000
0003FC003FC000
0007F8003FE000
0007F8003FE000
000FF8001FE000
000FF0001FF000
000FF0001FF000
001FF0000FF000
001FE0000FF800
001FE0000FF800
003FC00007F800
003FC00007FC00
003FC00007FC00
007F800003FC00
007FFFFFFFFE00
007FFFFFFFFE00
00FFFFFFFFFE00
00FFFFFFFFFF00
00FFFFFFFFFF00
01FFFFFFFFFF80
01FFFFFFFFFF80
03FE000000FF80
03FE0000007FC0
03FC0000007FC0
07FC0000007FC0
07FC0000003FE0
07F80000003FE0
0FF80000003FE0
0FF80000001FF0
0FF00000001FF0
1FF00000001FF0
1FF00000000FF8
1FE00000000FF8
3FE00000000FF8
3FE000000007FC
7FC000000007FC
7FC000000007FC
7F8000000003FE
FF8000000003FE
FF8000000003FF
FF0000000001FF
ENDCHAR
STARTCHAR 00C1
ENCODING 193
SWIDTH 663 0
DWIDTH 59 0
BBX 56 84 2 0
BITMAP
00000001FF8000
00000003FF0000
00000007FE0000
00000007FC0000
0000000FF80000
0000000FF00000
0000001FE00000
0000003FC00000
0000003F800000
0000007F000000
000000FE000000
000000FC000000
000001F8000000
000003F0000000
00000000000000
00000000000000
00000000000000
00000000000000
00000000000000
000003FF800000
000003FFC00000
000003FFC00000
000007FFE00000
000007FFE00000
000007FFE00000
00000FFFF00000
00000FFFF00000
00000FFFF00000
00001FFFF80000
00001FEFF80000
00001FE7F80000
00003FE7FC0000
00003FC7FC0000
00007FC3FC0000
00007F83FE0000
00007F83FE0000
0000FF81FE0000
0000FF01FF0000
0000FF01FF0000
0001FF00FF0000
0001FE00FF8000
0001FE007F8000
0003FC007FC000
0003FC007FC000
0003FC003FC000
0007F8003FE000
0007F8003FE000
000FF8001FE000
000FF0001FF000
000FF0001FF000
001FF0000FF000
001FE0000FF800
001FE0000FF800
003FC00007F800
003FC00007FC00
003FC00007FC00
007F800003FC00
007FFFFFFFFE00
007FFFFFFFFE00
00FFFFFFFFFE00
00FFFFFFFFFF00
00FFFFFFFFFF00
01FFFFFFFFFF80
01FFFFFFFFFF80
03FE000000FF80
03FE0000007FC0
03FC0000007FC0
07FC0000007FC0
07FC0000003FE0
07F80000003FE0
0FF80000003FE0
0FF80000001FF0
0FF00000001FF0
1FF00000001FF0
1FF00000000FF8
1FE00000000FF8
3FE00000000FF8
3FE000000007FC
7FC000000007FC
7FC000000007FC
7F8000000003FE
FF8000000003FE
FF8000000003FF
FF0000000001FF
ENDCHAR
STARTCHAR 00C2
ENCODING 194
SWIDTH 663 0
DWIDTH 59 0
BBX 56 84 2 0
BITMAP
000001FF000000
000001FF800000
000003FF800000
000003FFC00000
000007FFE00000
00000FEFE00000
00000FE7F00000
00001FC3F80000
00003F81F80000
00003F01FC0000
00007E00FE0000
0000FC007E0000
0000FC003F0000
0001F8001F8000
00000000000000
00000000000000
00000000000000
00000000000000
00000000000000
000003FF800000
000003FFC00000
000003FFC00000
000007FFE00000
000007FFE00000
000007FFE00000
00000FFFF00000
00000FFFF00000
00000FFFF00000
00001FFFF80000
00001FEFF80000
00001FE7F80000
00003FE7FC0000
00003FC7FC0000
00007FC3FC0000
00007F83FE0000
00007F83FE0000
0000FF81FE0000
0000FF01FF0000
0000FF01FF0000
0001FF00FF0000
0001FE00FF8000
0001FE007F8000
0003FC007FC000
0003FC007FC000
0003FC003FC000
0007F8003FE000
0007F8003FE000
000FF8001FE000
000FF0001FF000
000FF0001FF000
001FF0000FF000
001FE0000FF800
001FE0000FF800
003FC00007F800
003FC00007FC00
003FC00007FC00
007F800003FC00
007FFFFFFFFE00
007FFFFFFFFE00
00FFFFFFFFFE00
00FFFFFFFFFF00
00FFFFFFFFFF00
01FFFFFFFFFF80
01FFFFFFFFFF80
03FE000000FF80
03FE0000007FC0
03FC0000007FC0
07FC0000007FC0
07FC0000003FE0
07F80000003FE0
0FF80000003FE0
0FF80000001FF0
0FF00000001FF0
1FF00000001FF0
1FF00000000FF8
1FE00000000FF8
3FE00000000FF8
3FE000000007FC
7FC000000007FC
7FC000000007FC
7F8000000003FE
FF8000000003FE
FF8000000003FF
FF0000000001FF
ENDCHAR
STARTCHAR 00C3
ENCODING 195
SWIDTH 663 0
DWIDTH 59 0
BBX 56 82 2 0
BITMAP
00001F000FC000
00003FC00F8000
00007FF00F8000
0000FFFE1F8000
0001FFFFFF8000
0001FFFFFF0000
0003F8FFFF0000
0003F01FFE0000
0003E007FC0000
00000001F00000
00000000000000
00000000000000
00000000000000
00000000000000
00000000000000
00000000000000
00000000000000
000003FF800000
000003FFC00000
000003FFC00000
000007FFE00000
000007FFE00000
000007FFE00000
00000FFFF00000
00000FFFF00000
00000FFFF00000
00001FFFF80000
00001FEFF80000
00001FE7F80000
00003FE7FC0000
00003FC7FC0000
00007FC3FC0000
00007F83FE0000
00007F83FE0000
0000FF81FE0000
0000FF01FF0000
0000FF01FF0000
0001FF00FF0000
0001FE00FF8000
0001FE007F8000
0003FC007FC000
0003FC007FC000
0003FC003FC000
0007F8003FE000
0007F8003FE000
000FF8001FE000
000FF0001FF000
000FF0001FF000
001FF0000FF000
001FE0000FF800
001FE0000FF800
003FC00007F800
003FC00007FC00
003FC00007FC00
007F800003FC00
007FFFFFFFFE00
007FFFFFFFFE00
00FFFFFFFFFE00
00FFFFFFFFFF00
00FFFFFFFFFF00
01FFFFFFFFFF80
01FFFFFFFFFF80
03FE000000FF80
03FE0000007FC0
03FC0000007FC0
07FC0000007FC0
07FC0000003FE0
07F80000003FE0
0FF80000003FE0
0FF80000001FF0
0FF00000001FF0
1FF00000001FF0
1FF00000000FF8
1FE00000000FF8
3FE00000000FF8
3FE000000007FC
7FC000000007FC
7FC000000007FC
7F8000000003FE
FF8000000003FE
FF8000000003FF
FF0000000001FF
ENDCHAR
STARTCHAR 00C4
ENCODING 196
SWIDTH 663 0
DWIDTH 59 0
BBX 56 81 2 0
BITMAP
0000FF83FF0000
0000FF83FF0000
0000FF83FF0000
0000FF83FF0000
0000FF83FF0000
0000FF83FF0000
0000FF83FF0000
0000FF83FF0000
0000FF83FF0000
00000000000000
00000000000000
00000000000000
00000000000000
00000000000000
00000000000000
00000000000000
000003FF800000
000003FFC00000
000003FFC00000
000007FFE00000
000007FFE00000
000007FFE00000
00000FFFF00000
00000FFFF00000
00000FFFF00000
00001FFFF80000
00001FEFF80000
00001FE7F80000
00003FE7FC0000
00003FC7FC0000
00007FC3FC0000
00007F83FE0000
00007F83FE0000
0000FF81FE0000
0000FF01FF0000
0000FF01FF0000
0001FF00FF0000
0001FE00FF8000
0001FE007F8000
0003FC007FC000
0003FC007FC000
0003FC003FC000
0007F8003FE000
0007F8003FE000
000FF8001FE000
000FF0001FF000
000FF0001FF000
001FF0000FF000
001FE0000FF800
001FE0000FF800
003FC00007F800
003FC00007FC00
003FC00007FC00
007F800003FC00
007FFFFFFFFE00
007FFFFFFFFE00
00FFFFFFFFFE00
00FFFFFFFFFF00
00FFFFFFFFFF00
01FFFFFFFFFF80
01FFFFFFFFFF80
03FE000000FF80
03FE0000007FC0
03FC0000007FC0
07FC0000007FC0
07FC0000003FE0
07F80000003FE0
0FF80000003FE0
0FF80000001FF0
0FF00000001FF0
1FF00000001FF0
1FF00000000FF8
1FE00000000FF8
3FE00000000FF8
3FE000000007FC
7FC000000007FC
7FC000000007FC
7F8000000003FE
FF8000000003FE
FF8000000003FF
FF0000000001FF
ENDCHAR
STARTCHAR 00C5
ENCODING 197
SWIDTH 663 0
DWIDTH 59 0
BBX 56 85 2 0
BITMAP
0000007C000000
000001FF000000
000003FF800000
000007FFC00000
000007C3E00000
00000F81E00000
00000F01E00000
00000F00F00000
00000F00F00000
00000F01E00000
00000F81E00000
000007C3E00000
000007FFC00000
000003FF800000
000001FF000000
0000007C000000
00000000000000
00000000000000
00000000000000
00000000000000
000003FF800000
000003FFC00000
000003FFC00000
000007FFE00000
000007FFE00000
000007FFE00000
00000FFFF00000
00000FFFF00000
00000FFFF00000
00001FFFF80000
00001FEFF80000
00001FE7F80000
00003FE7FC0000
00003FC7FC0000
00007FC3FC0000
00007F83FE0000
00007F83FE0000
0000FF81FE0000
0000FF01FF0000
0000FF01FF0000
0001FF00FF0000
0001FE00FF8000
0001FE007F8000
0003FC007FC000
0003FC007FC000
0003FC003FC000
0007F8003FE000
0007F8003FE000
000FF8001FE000
000FF0001FF000
000FF0001FF000
001FF0000FF000
001FE0000FF800
001FE0000FF800
003FC00007F800
003FC00007FC00
003FC00007FC00
007F800003FC00
007FFFFFFFFE00
007FFFFFFFFE00
00FFFFFFFFFE00
00FFFFFFFFFF00
00FFFFFFFFFF00
01FFFFFFFFFF80
01FFFFFFFFFF80
03FE000000FF80
03FE0000007FC0
03FC0000007FC0
07FC0000007FC0
07FC0000003FE0
07F80000003FE0
0FF80000003FE0
0FF80000001FF0
0FF00000001FF0
1FF00000001FF0
1FF00000000FF8
1FE00000000FF8
3FE00000000FF8
3FE000000007FC
7FC000000007FC
7FC000000007FC
7F8000000003FE
FF8000000003FE
FF8000000003FF
FF0000000001FF
ENDCHAR
STARTCHAR 00C6
ENCODING 198
SWIDTH 1001 0
DWIDTH 89 0
BBX 83 65 1 0
BITMAP
0000003FFFFFFFFFFFFFC0
0000003FFFFFFFFFFFFFC0
0000003FFFFFFFFFFFFFC0
0000007FFFFFFFFFFFFFC0
0000007FFFFFFFFFFFFFC0
000000FFFFFFFFFFFFFFC0
000000FFFFFFFFFFFFFFC0
000001FF007F8000000000
000001FE007F8000000000
000001FE007F8000000000
000003FC007F8000000000
000003FC007F8000000000
000007FC007F8000000000
000007F8007F8000000000
000007F8007F8000000000
00000FF0007F8000000000
00000FF0007F8000000000
00001FF0007F8000000000
00001FE0007F8000000000
00001FE0007F8000000000
00003FE0007F8000000000
00003FC0007F8000000000
00007FC0007F8000000000
00007F80007F8000000000
00007F80007F8000000000
0000FF80007F8000000000
0000FF00007F8000000000
0001FF00007F8000000000
0001FE00007FFFFFFFFF00
0003FE00007FFFFFFFFF00
0003FE00007FFFFFFFFF00
0003FC00007FFFFFFFFF00
0007FC00007FFFFFFFFF00
0007F800007FFFFFFFFF00
000FF800007FFFFFFFFF00
000FF800007F8000000000
000FF000007F8000000000
001FF000007F8000000000
001FF000007F8000000000
003FFFFFFFFF8000000000
003FFFFFFFFF8000000000
003FFFFFFFFF8000000000
007FFFFFFFFF8000000000
007FFFFFFFFF8000000000
00FFFFFFFFFF8000000000
00FFFFFFFFFF8000000000
00FF0000007F8000000000
01FF0000007F8000000000
01FF0000007F8000000000
03FE0000007F8000000000
03FE0000007F8000000000
07FE0000007F8000000000
07FC0000007F8000000000
07FC0000007F8000000000
0FF80000007F8000000000
0FF80000007F8000000000
1FF80000007F8000000000
1FF00000007F8000000000
1FF00000007FFFFFFFFFE0
3FE00000007FFFFFFFFFE0
3FE00000007FFFFFFFFFE0
7FE00000007FFFFFFFFFE0
7FC00000007FFFFFFFFFE0
7FC00000007FFFFFFFFFE0
FF800000007FFFFFFFFFE0
ENDCHAR
STARTCHAR 00C7
ENCODING 199
SWIDTH 720 0
DWIDTH 64 0
BBX 56 85 4 -19
BITMAP
000000FFF00000
00000FFFFF0000
00007FFFFFE000
0001FFFFFFF000
0003FFFFFFFC00
000FFFFFFFFE00
001FFFFFFFFF00
003FFFE0FFFF80
007FFC0007FFC0
00FFF00001FFE0
01FFC000007FE0
01FF8000003FF0
03FF0000001FF0
07FE0000000FF8
07FC0000000FF8
0FF800000007F8
0FF800000007FC
1FF000000007FC
1FF000000003FC
1FE000000003FE
3FE000000003FE
3FC00000000000
3FC00000000000
3FC00000000000
7FC00000000000
7F800000000000
7F800000000000
7F800000000000
7F800000000000
7F800000000000
FF800000000000
FF800000000000
FF800000000000
FF800000000000
FF800000000000
FF800000000000
FF800000000000
FF800000000000
FF800000000000
7F800000000000
7F800000000000
7F800000000000
7F8000000000FF
7FC000000001FF
7FC000000001FF
3FC000000001FF
3FE000000001FF
3FE000000001FE
1FE000000003FE
1FF000000003FE
1FF000000003FE
0FF800000007FC
0FFC00000007FC
07FC0000000FF8
07FE0000001FF8
03FF0000001FF0
03FF8000003FF0
01FFE000007FE0
00FFF00001FFE0
007FFC0007FFC0
003FFFC07FFF80
001FFFFFFFFF00
000FFFFFFFFE00
0007FFFFFFFC00
0001FFFFFFF000
00007FFFFFC000
00001FFFFF0000
000001FFF00000
00000038000000
00000038000000
00000078000000
0000007FE00000
000000FFF00000
000000FFF80000
00000083FC0000
00000001FC0000
00000001FC0000
00000001FC0000
00000001FC0000
00007001FC0000
00007C03F80000
0000FFFFF00000
00007FFFE00000
00000FFFC00000
000001FE000000
ENDCHAR
STARTCHAR 00C8
ENCODING 200
SWIDTH 663 0
DWIDTH 59 0
BBX 46 84 8 0
BITMAP
001FF8000000
000FF8000000
0007FC000000
0003FC000000
0001FE000000
0000FF000000
00007F000000
00003F800000
00001FC00000
00000FC00000
000007E00000
000003F00000
000001F00000
000000F80000
000000000000
000000000000
000000000000
000000000000
000000000000
FFFFFFFFFFF8
FFFFFFFFFFF8
FFFFFFFFFFF8
FFFFFFFFFFF8
FFFFFFFFFFF8
FFFFFFFFFFF8
FFFFFFFFFFF8
FF0000000000
FF0000000000
FF0000000000
FF0000000000
FF0000000000
FF0000000000
FF0000000000
FF0000000000
FF0000000000
FF0000000000
FF0000000000
FF0000000000
FF0000000000
FF0000000000
FF0000000000
FF0000000000
FF0000000000
FF0000000000
FF0000000000
FF0000000000
FF0000000000
FFFFFFFFFFF0
FFFFFFFFFFF0
FFFFFFFFFFF0
FFFFFFFFFFF0
FFFFFFFFFFF0
FFFFFFFFFFF0
FFFFFFFFFFF0
FF0000000000
FF0000000000
FF0000000000
FF0000000000
FF0000000000
FF0000000000
FF0000000000
FF0000000000
FF0000000000
FF0000000000
FF0000000000
FF0000000000
FF0000000000
FF0000000000
FF0000000000
FF0000000000
FF0000000000
FF0000000000
FF0000000000
FF0000000000
FF0000000000
FF0000000000
FF0000000000
FFFFFFFFFFFC
FFFFFFFFFFFC
FFFFFFFFFFFC
FFFFFFFFFFFC
FFFFFFFFFFFC
FFFFFFFFFFFC
FFFFFFFFFFFC
ENDCHAR
STARTCHAR 00C9
ENCODING 201
SWIDTH 663 0
DWIDTH 59 0
BBX 46 84 8 0
BITMAP
0000007FC000
000000FF8000
000001FF0000
000001FE0000
000003FC0000
000007F80000
000007F00000
00000FE00000
00001FC00000
00001F800000
00003F000000
00007E000000
00007C000000
0000F8000000
000000000000
000000000000
000000000000
000000000000
000000000000
FFFFFFFFFFF8
FFFFFFFFFFF8
FFFFFFFFFFF8
FFFFFFFFFFF8
FFFFFFFFFFF8
FFFFFFFFFFF8
FFFFFFFFFFF8
FF0000000000
FF0000000000
FF0000000000
FF0000000000
FF0000000000
FF0000000000
FF0000000000
FF0000000000
FF0000000000
FF0000000000
FF0000000000
FF0000000000
FF0000000000
FF0000000000
FF0000000000
FF0000000000
FF0000000000
FF0000000000
FF0000000000
FF0000000000
FF0000000000
FFFFFFFFFFF0
FFFFFFFFFFF0
FFFFFFFFFFF0
FFFFFFFFFFF0
FFFFFFFFFFF0
FFFFFFFFFFF0
FFFFFFFFFFF0
FF0000000000
FF0000000000
FF0000000000
FF0000000000
FF0000000000
FF0000000000
FF0000000000
FF0000000000
FF0000000000
FF0000000000
FF0000000000
FF0000000000
FF0000000000
FF0000000000
FF0000000000
FF0000000000
FF0000000000
FF0000000000
FF0000000000
FF0000000000
FF0000000000
FF0000000000
FF0000000000
FFFFFFFFFFFC
FFFFFFFFFFFC
FFFFFFFFFFFC
FFFFFFFFFFFC
FFFFFFFFFFFC
FFFFFFFFFFFC
FFFFFFFFFFFC
ENDCHAR
STARTCHAR 00CA
ENCODING 202
SWIDTH 663 0
DWIDTH 59 0
BBX 46 84 8 0
BITMAP
00003FE00000
00003FF00000
00007FF00000
0000FFF80000
0000FFFC0000
0001FDFC0000
0003F8FE0000
0003F87F0000
0007F03F0000
000FE03F8000
000FC01F8000
001F800FC000
001F8007E000
003F0003E000
000000000000
000000000000
000000000000
000000000000
000000000000
FFFFFFFFFFF8
FFFFFFFFFFF8
FFFFFFFFFFF8
FFFFFFFFFFF8
FFFFFFFFFFF8
FFFFFFFFFFF8
FFFFFFFFFFF8
FF0000000000
FF0000000000
FF0000000000
FF0000000000
FF0000000000
FF0000000000
FF0000000000
FF0000000000
FF0000000000
FF0000000000
FF0000000000
FF0000000000
FF0000000000
FF0000000000
FF0000000000
FF0000000000
FF0000000000
FF0000000000
FF0000000000
FF0000000000
FF0000000000
FFFFFFFFFFF0
FFFFFFFFFFF0
FFFFFFFFFFF0
FFFFFFFFFFF0
FFFFFFFFFFF0
FFFFFFFFFFF0
FFFFFFFFFFF0
FF0000000000
FF0000000000
FF0000000000
FF0000000000
FF0000000000
FF0000000000
FF0000000000
FF0000000000
FF0000000000
FF0000000000
FF0000000000
FF0000000000
FF0000000000
FF0000000000
FF0000000000
FF0000000000
FF0000000000
FF0000000000
FF0000000000
FF0000000000
FF0000000000
FF0000000000
FF0000000000
FFFFFFFFFFFC
FFFFFFFFFFFC
FFFFFFFFFFFC
FFFFFFFFFFFC
FFFFFFFFFFFC
FFFFFFFFFFFC
FFFFFFFFFFFC
ENDCHAR
STARTCHAR 00CB
ENCODING 203
SWIDTH 663 0
DWIDTH 59 0
BBX 46 81 8 0
BITMAP
001FF07FC000
001FF07FC000
001FF07FC000
001FF07FC000
001FF07FC000
001FF07FC000
001FF07FC000
001FF07FC000
001FF07FC000
000000000000
000000000000
000000000000
000000000000
000000000000
000000000000
000000000000
FFFFFFFFFFF8
FFFFFFFFFFF8
FFFFFFFFFFF8
FFFFFFFFFFF8
FFFFFFFFFFF8
FFFFFFFFFFF8
FFFFFFFFFFF8
FF0000000000
FF0000000000
FF0000000000
FF0000000000
FF0000000000
FF0000000000
FF0000000000
FF0000000000
FF0000000000
FF0000000000
FF0000000000
FF0000000000
FF0000000000
FF0000000000
FF0000000000
FF0000000000
FF0000000000
FF0000000000
FF0000000000
FF0000000000
FF0000000000
FFFFFFFFFFF0
FFFFFFFFFFF0
FFFFFFFFFFF0
FFFFFFFFFFF0
FFFFFFFFFFF0
FFFFFFFFFFF0
FFFFFFFFFFF0
FF0000000000
FF0000000000
FF0000000000
FF0000000000
FF0000000000
FF0000000000
FF0000000000
FF0000000000
FF0000000000
FF0000000000
FF0000000000
FF0000000000
FF0000000000
FF0000000000
FF0000000000
FF0000000000
FF0000000000
FF0000000000
FF0000000000
FF0000000000
FF0000000000
FF0000000000
FF0000000000
FFFFFFFFFFFC
FFFFFFFFFFFC
FFFFFFFFFFFC
FFFFFFFFFFFC
FFFFFFFFFFFC
FFFFFFFFFFFC
FFFFFFFFFFFC
ENDCHAR
STARTCHAR 00CC
ENCODING 204
SWIDTH 281 0
DWIDTH 25 0
BBX 19 84 0 0
BITMAP
FFC000
7FE000
3FF000
1FF000
0FF800
07F800
03FC00
01FE00
00FE00
007F00
003F80
001F80
000FC0
0007E0
000000
000000
000000
000000
000000
007F80
007F80
007F80
007F80
007F80
007F80
007F80
007F80
007F80
007F80
007F80
007F80
007F80
007F80
007F80
007F80
007F80
007F80
007F80
007F80
007F80
007F80
007F80
007F80
007F80
007F80
007F80
007F80
007F80
007F80
007F80
007F80
007F80
007F80
007F80
007F80
007F80
007F80
007F80
007F80
007F80
007F80
007F80
007F80
007F80
007F80
007F80
007F80
007F80
007F80
007F80
007F80
007F80
007F80
007F80
007F80
007F80
007F80
007F80
007F80
007F80
007F80
007F80
007F80
007F80
ENDCHAR
STARTCHAR 00CD
ENCODING 205
SWIDTH 281 0
DWIDTH 25 0
BBX 19 84 6 0
BITMAP
007FE0
00FFC0
01FF80
01FF00
03FE00
03FC00
07F800
0FF000
0FE000
1FC000
3F8000
3F0000
7E0000
FC0000
000000
000000
000000
000000
000000
1FE000
1FE000
1FE000
1FE000
1FE000
1FE000
1FE000
1FE000
1FE000
1FE000
1FE000
1FE000
1FE000
1FE000
1FE000
1FE000
1FE000
1FE000
1FE000
1FE000
1FE000
1FE000
1FE000
1FE000
1FE000
1FE000
1FE000
1FE000
1FE000
1FE000
1FE000
1FE000
1FE000
1FE000
1FE000
1FE000
1FE000
1FE000
1FE000
1FE000
1FE000
1FE000
1FE000
1FE000
1FE000
1FE000
1FE000
1FE000
1FE000
1FE000
1FE000
1FE000
1FE000
1FE000
1FE000
1FE000
1FE000
1FE000
1FE000
1FE000
1FE000
1FE000
1FE000
1FE000
1FE000
ENDCHAR
STARTCHAR 00CE
ENCODING 206
SWIDTH 281 0
DWIDTH 25 0
BBX 25 84 0 0
BITMAP
00FF8000
00FFC000
01FFC000
03FFE000
03FFF000
07F7F000
0FE3F800
0FE1FC00
1FC0FC00
1F80FE00
3F007E00
7E003F00
7C001F80
FC000F80
00000000
00000000
00000000
00000000
00000000
007F8000
007F8000
007F8000
007F8000
007F8000
007F8000
007F8000
007F8000
007F8000
007F8000
007F8000
007F8000
007F8000
007F8000
007F8000
007F8000
007F8000
007F8000
007F8000
007F8000
007F8000
007F8000
007F8000
007F8000
007F8000
007F8000
007F8000
007F8000
007F8000
007F8000
007F8000
007F8000
007F8000
007F8000
007F8000
007F8000
007F8000
007F8000
007F8000
007F8000
007F8000
007F8000
007F8000
007F8000
007F8000
007F8000
007F8000
007F8000
007F8000
007F8000
007F8000
007F8000
007F8000
007F8000
007F8000
007F8000
007F8000
007F8000
007F8000
007F8000
007F8000
007F8000
007F8000
007F8000
007F8000
ENDCHAR
STARTCHAR 00CF
ENCODING 207
SWIDTH 281 0
DWIDTH 25 0
BBX 23 81 1 0
BITMAP
FF83FE
FF83FE
FF83FE
FF83FE
FF83FE
FF83FE
FF83FE
FF83FE
FF83FE
000000
000000
000000
000000
000000
000000
000000
00FF00
00FF00
00FF00
00FF00
00FF00
00FF00
00FF00
00FF00
00FF00
00FF00
00FF00
00FF00
00FF00
00FF00
00FF00
00FF00
00FF00
00FF00
00FF00
00FF00
00FF00
00FF00
00FF00
00FF00
00FF00
00FF00
00FF00
00FF00
00FF00
00FF00
00FF00
00FF00
00FF00
00FF00
00FF00
00FF00
00FF00
00FF00
00FF00
00FF00
00FF00
00FF00
00FF00
00FF00
00FF00
00FF00
00FF00
00FF00
00FF00
00FF00
00FF00
00FF00
00FF00
00FF00
00FF00
00FF00
00FF00
00FF00
00FF00
00FF00
00FF00
00FF00
00FF00
00FF00
00FF00
ENDCHAR
STARTCHAR 00D0
ENCODING 208
SWIDTH 720 0
DWIDTH 64 0
BBX 57 65 2 0
BITMAP
03FFFFFFF0000000
03FFFFFFFF000000
03FFFFFFFFE00000
03FFFFFFFFF00000
03FFFFFFFFFC0000
03FFFFFFFFFE0000
03FFFFFFFFFF0000
03FC0000FFFF8000
03FC000007FFC000
03FC000001FFE000
03FC0000007FF000
03FC0000003FF000
03FC0000001FF800
03FC0000000FF800
03FC00000007FC00
03FC00000007FC00
03FC00000003FE00
03FC00000003FE00
03FC00000001FE00
03FC00000001FF00
03FC00000001FF00
03FC00000000FF00
03FC00000000FF00
03FC00000000FF80
03FC00000000FF80
03FC000000007F80
03FC000000007F80
03FC000000007F80
03FC000000007F80
FFFFFFF800007F80
FFFFFFF800007F80
FFFFFFF800007F80
FFFFFFF800007F80
FFFFFFF800007F80
FFFFFFF800007F80
03FC000000007F80
03FC000000007F80
03FC000000007F80
03FC000000007F80
03FC000000007F80
03FC00000000FF80
03FC00000000FF80
03FC00000000FF00
03FC00000000FF00
03FC00000000FF00
03FC00000001FF00
03FC00000001FE00
03FC00000003FE00
03FC00000003FE00
03FC00000007FC00
03FC00000007FC00
03FC0000000FF800
03FC0000001FF800
03FC0000003FF000
03FC0000007FF000
03FC000001FFE000
03FC000007FFC000
03FC0000FFFF8000
03FFFFFFFFFF0000
03FFFFFFFFFE0000
03FFFFFFFFFC0000
03FFFFFFFFF00000
03FFFFFFFFE00000
03FFFFFFFF000000
03FFFFFFF0000000
ENDCHAR
STARTCHAR 00D1
ENCODING 209
SWIDTH 720 0
DWIDTH 64 0
BBX 50 82 7 0
BITMAP
00007C003F0000
0001FF003E0000
0003FFC03E0000
0003FFF87E0000
0007FFFFFE0000
0007FFFFFC0000
000FC3FFF80000
000FC07FF80000
000F801FE00000
00000007C00000
00000000000000
00000000000000
00000000000000
00000000000000
00000000000000
00000000000000
00000000000000
FF800000001FC0
FFC00000001FC0
FFC00000001FC0
FFE00000001FC0
FFF00000001FC0
FFF00000001FC0
FFF80000001FC0
FFFC0000001FC0
FFFC0000001FC0
FFFE0000001FC0
FFFE0000001FC0
FFFF0000001FC0
FFFF8000001FC0
FFFF8000001FC0
FF7FC000001FC0
FF3FE000001FC0
FF3FE000001FC0
FF1FF000001FC0
FF1FF800001FC0
FF0FF800001FC0
FF07FC00001FC0
FF07FC00001FC0
FF03FE00001FC0
FF01FF00001FC0
FF01FF00001FC0
FF00FF80001FC0
FF007FC0001FC0
FF007FC0001FC0
FF003FE0001FC0
FF003FF0001FC0
FF001FF0001FC0
FF000FF8001FC0
FF000FF8001FC0
FF0007FC001FC0
FF0003FE001FC0
FF0003FE001FC0
FF0001FF001FC0
FF0000FF801FC0
FF0000FF801FC0
FF00007FC01FC0
FF00007FE01FC0
FF00003FE01FC0
FF00001FF01FC0
FF00001FF01FC0
FF00000FF81FC0
FF000007FC1FC0
FF000007FC1FC0
FF000003FE1FC0
FF000001FF1FC0
FF000001FF1FC0
FF000000FF9FC0
FF000000FFDFC0
FF0000007FDFC0
FF0000003FFFC0
FF0000003FFFC0
FF0000001FFFC0
FF0000000FFFC0
FF0000000FFFC0
FF00000007FFC0
FF00000003FFC0
FF00000003FFC0
FF00000001FFC0
FF00000001FFC0
FF00000000FFC0
FF000000007FC0
ENDCHAR
STARTCHAR 00D2
ENCODING 210
SWIDTH 776 0
DWIDTH 69 0
BBX 63 86 3 -2
BITMAP
00001FF800000000
00000FFC00000000
000007FC00000000
000003FE00000000
000001FF00000000
000000FF00000000
0000007F80000000
0000003F80000000
0000001FC0000000
0000000FE0000000
00000007E0000000
00000003F0000000
00000001F8000000
00000000F8000000
0000000000000000
0000000000000000
0000000000000000
0000000000000000
0000003FFC000000
000003FFFFC00000
00001FFFFFF80000
00007FFFFFFE0000
0001FFFFFFFF8000
0007FFFFFFFFC000
000FFFFFFFFFE000
001FFFF81FFFF800
003FFF0001FFFC00
007FFC00003FFC00
00FFF000000FFE00
01FFC0000007FF00
01FF80000003FF80
03FF00000001FFC0
07FE00000000FFC0
07FC000000007FE0
0FFC000000003FE0
0FF8000000003FF0
1FF0000000001FF0
1FF0000000000FF0
1FE0000000000FF8
3FE0000000000FF8
3FE00000000007F8
3FC00000000007FC
7FC00000000007FC
7FC00000000003FC
7F800000000003FC
7F800000000003FE
7F800000000003FE
7F800000000003FE
7F800000000001FE
FF800000000001FE
FF800000000001FE
FF800000000001FE
FF800000000001FE
FF800000000001FE
FF800000000001FE
7F800000000001FE
7F800000000001FE
7F800000000003FE
7F800000000003FE
7F800000000003FC
7FC00000000003FC
7FC00000000003FC
3FC00000000007FC
3FE00000000007F8
3FE00000000007F8
1FE0000000000FF8
1FF0000000000FF0
1FF0000000001FF0
0FF8000000001FF0
0FFC000000003FE0
07FC000000007FE0
07FE00000000FFC0
03FF00000001FF80
03FF80000003FF80
01FFC0000007FF00
00FFF000000FFE00
007FFC00003FFC00
003FFF0001FFFC00
001FFFF83FFFF000
000FFFFFFFFFE000
0007FFFFFFFFC000
0001FFFFFFFF8000
00007FFFFFFE0000
00001FFFFFF80000
000007FFFFC00000
0000003FFC000000
ENDCHAR
STARTCHAR 00D3
ENCODING 211
SWIDTH 776 0
DWIDTH 69 0
BBX 63 86 3 -2
BITMAP
000000003FF00000
000000003FE00000
000000007FC00000
00000000FF800000
00000000FF000000
00000001FE000000
00000003FC000000
00000003F8000000
00000007F0000000
0000000FE0000000
0000000FC0000000
0000001F80000000
0000003F00000000
0000003E00000000
0000000000000000
0000000000000000
0000000000000000
0000000000000000
0000003FFC000000
000003FFFFC00000
00001FFFFFF80000
00007FFFFFFE0000
0001FFFFFFFF8000
0007FFFFFFFFC000
000FFFFFFFFFE000
001FFFF81FFFF800
003FFF0001FFFC00
007FFC00003FFC00
00FFF000000FFE00
01FFC0000007FF00
01FF80000003FF80
03FF00000001FFC0
07FE00000000FFC0
07FC000000007FE0
0FFC000000003FE0
0FF8000000003FF0
1FF0000000001FF0
1FF0000000000FF0
1FE0000000000FF8
3FE0000000000FF8
3FE00000000007F8
3FC00000000007FC
7FC00000000007FC
7FC00000000003FC
7F800000000003FC
7F800000000003FE
7F800000000003FE
7F800000000003FE
7F800000000001FE
FF800000000001FE
FF800000000001FE
FF800000000001FE
FF800000000001FE
FF800000000001FE
FF800000000001FE
7F800000000001FE
7F800000000001FE
7F800000000003FE
7F800000000003FE
7F800000000003FC
7FC00000000003FC
7FC00000000003FC
3FC00000000007FC
3FE00000000007F8
3FE00000000007F8
1FE0000000000FF8
1FF0000000000FF0
1FF0000000001FF0
0FF8000000001FF0
0FFC000000003FE0
07FC000000007FE0
07FE00000000FFC0
03FF00000001FF80
03FF80000003FF80
01FFC0000007FF00
00FFF000000FFE00
007FFC00003FFC00
003FFF0001FFFC00
001FFFF83FFFF000
000FFFFFFFFFE000
0007FFFFFFFFC000
0001FFFFFFFF8000
00007FFFFFFE0000
00001FFFFFF80000
000007FFFFC00000
0000003FFC000000
ENDCHAR
STARTCHAR 00D4
ENCODING 212
SWIDTH 776 0
DWIDTH 69 0
BBX 63 86 3 -2
BITMAP
0000001FF0000000
0000001FF8000000
0000003FF8000000
0000007FFC000000
0000007FFE000000
000000FEFE000000
000000FE7F000000
000001FC3F800000
000003F83F800000
000003F01FC00000
000007E00FC00000
00000FC007E00000
00000FC003F00000
00001F8001F00000
0000000000000000
0000000000000000
0000000000000000
0000000000000000
0000003FFC000000
000003FFFFC00000
00001FFFFFF80000
00007FFFFFFE0000
0001FFFFFFFF8000
0007FFFFFFFFC000
000FFFFFFFFFE000
001FFFF81FFFF800
003FFF0001FFFC00
007FFC00003FFC00
00FFF000000FFE00
01FFC0000007FF00
01FF80000003FF80
03FF00000001FFC0
07FE00000000FFC0
07FC000000007FE0
0FFC000000003FE0
0FF8000000003FF0
1FF0000000001FF0
1FF0000000000FF0
1FE0000000000FF8
3FE0000000000FF8
3FE00000000007F8
3FC00000000007FC
7FC00000000007FC
7FC00000000003FC
7F800000000003FC
7F800000000003FE
7F800000000003FE
7F800000000003FE
7F800000000001FE
FF800000000001FE
FF800000000001FE
FF800000000001FE
FF800000000001FE
FF800000000001FE
FF800000000001FE
7F800000000001FE
7F800000000001FE
7F800000000003FE
7F800000000003FE
7F800000000003FC
7FC00000000003FC
7FC00000000003FC
3FC00000000007FC
3FE00000000007F8
3FE00000000007F8
1FE0000000000FF8
1FF0000000000FF0
1FF0000000001FF0
0FF8000000001FF0
0FFC000000003FE0
07FC000000007FE0
07FE00000000FFC0
03FF00000001FF80
03FF80000003FF80
01FFC0000007FF00
00FFF000000FFE00
007FFC00003FFC00
003FFF0001FFFC00
001FFFF83FFFF000
000FFFFFFFFFE000
0007FFFFFFFFC000
0001FFFFFFFF8000
00007FFFFFFE0000
00001FFFFFF80000
000007FFFFC00000
0000003FFC000000
ENDCHAR
STARTCHAR 00D5
ENCODING 213
SWIDTH 776 0
DWIDTH 69 0
BBX 63 84 3 -2
BITMAP
000001F0007C0000
000003FC00FC0000
000007FF00F80000
00000FFFE1F80000
00001FFFFFF80000
00001FFFFFF00000
00001F87FFF00000
00003F01FFE00000
00003E007FC00000
000000001F000000
0000000000000000
0000000000000000
0000000000000000
0000000000000000
0000000000000000
0000000000000000
0000003FFC000000
000003FFFFC00000
00001FFFFFF80000
00007FFFFFFE0000
0001FFFFFFFF8000
0007FFFFFFFFC000
000FFFFFFFFFE000
001FFFF81FFFF800
003FFF0001FFFC00
007FFC00003FFC00
00FFF000000FFE00
01FFC0000007FF00
01FF80000003FF80
03FF00000001FFC0
07FE00000000FFC0
07FC000000007FE0
0FFC000000003FE0
0FF8000000003FF0
1FF0000000001FF0
1FF0000000000FF0
1FE0000000000FF8
3FE0000000000FF8
3FE00000000007F8
3FC00000000007FC
7FC00000000007FC
7FC00000000003FC
7F800000000003FC
7F800000000003FE
7F800000000003FE
7F800000000003FE
7F800000000001FE
FF800000000001FE
FF800000000001FE
FF800000000001FE
FF800000000001FE
FF800000000001FE
FF800000000001FE
7F800000000001FE
7F800000000001FE
7F800000000003FE
7F800000000003FE
7F800000000003FC
7FC00000000003FC
7FC00000000003FC
3FC00000000007FC
3FE00000000007F8
3FE00000000007F8
1FE0000000000FF8
1FF0000000000FF0
1FF0000000001FF0
0FF8000000001FF0
0FFC000000003FE0
07FC000000007FE0
07FE00000000FFC0
03FF00000001FF80
03FF80000003FF80
01FFC0000007FF00
00FFF000000FFE00
007FFC00003FFC00
003FFF0001FFFC00
001FFFF83FFFF000
000FFFFFFFFFE000
0007FFFFFFFFC000
0001FFFFFFFF8000
00007FFFFFFE0000
00001FFFFFF80000
000007FFFFC00000
0000003FFC000000
ENDCHAR
STARTCHAR 00D6
ENCODING 214
SWIDTH 776 0
DWIDTH 69 0
BBX 63 83 3 -2
BITMAP
00000FF83FE00000
00000FF83FE00000
00000FF83FE00000
00000FF83FE00000
00000FF83FE00000
00000FF83FE00000
00000FF83FE00000
00000FF83FE00000
00000FF83FE00000
0000000000000000
0000000000000000
0000000000000000
0000000000000000
0000000000000000
0000000000000000
0000003FFC000000
000003FFFFC00000
00001FFFFFF80000
00007FFFFFFE0000
0001FFFFFFFF8000
0007FFFFFFFFC000
000FFFFFFFFFE000
001FFFF81FFFF800
003FFF0001FFFC00
007FFC00003FFC00
00FFF000000FFE00
01FFC0000007FF00
01FF80000003FF80
03FF00000001FFC0
07FE00000000FFC0
07FC000000007FE0
0FFC000000003FE0
0FF8000000003FF0
1FF0000000001FF0
1FF0000000000FF0
1FE0000000000FF8
3FE0000000000FF8
3FE00000000007F8
3FC00000000007FC
7FC00000000007FC
7FC00000000003FC
7F800000000003FC
7F800000000003FE
7F800000000003FE
7F800000000003FE
7F800000000001FE
FF800000000001FE
FF800000000001FE
FF800000000001FE
FF800000000001FE
FF800000000001FE
FF800000000001FE
7F800000000001FE
7F800000000001FE
7F800000000003FE
7F800000000003FE
7F800000000003FC
7FC00000000003FC
7FC00000000003FC
3FC00000000007FC
3FE00000000007F8
3FE00000000007F8
1FE0000000000FF8
1FF0000000000FF0
1FF0000000001FF0
0FF8000000001FF0
0FFC000000003FE0
07FC000000007FE0
07FE00000000FFC0
03FF00000001FF80
03FF80000003FF80
01FFC0000007FF00
00FFF000000FFE00
007FFC00003FFC00
003FFF0001FFFC00
001FFFF83FFFF000
000FFFFFFFFFE000
0007FFFFFFFFC000
0001FFFFFFFF8000
00007FFFFFFE0000
00001FFFFFF80000
000007FFFFC00000
0000003FFC000000
ENDCHAR
STARTCHAR 00D7
ENCODING 215
SWIDTH 585 0
DWIDTH 52 0
BBX 35 35 8 3
BITMAP
0000000200
0C00000700
1E00000F80
3F00001FC0
7F80003FE0
3FC0007FC0
1FE000FF80
0FF001FF00
07F803FE00
03FC07FC00
01FE0FF800
00FF1FF000
007FBFE000
003FFFC000
001FFF8000
000FFF0000
0007FE0000
0007FC0000
000FFE0000
001FFF0000
003FFF8000
007FFFC000
00FFBFE000
01FF1FF000
03FE0FF800
07FC07FC00
0FF803FE00
1FF001FF00
3FE000FF80
7FC0007FC0
FF80003FE0
7F00001FC0
3E00000F80
1C00000700
0800000200
ENDCHAR
STARTCHAR 00D8
ENCODING 216
SWIDTH 776 0
DWIDTH 69 0
BBX 63 69 3 -2
BITMAP
0000000000000010
0000003FFC00003C
000007FFFFC0007E
00001FFFFFF000FE
00007FFFFFFE01FC
0001FFFFFFFF03F8
0007FFFFFFFFC7F0
000FFFFFFFFFEFE0
001FFFF83FFFFFC0
003FFF0001FFFF80
007FF800007FFF00
00FFF000001FFE00
01FFC0000007FF00
03FF80000003FF80
03FF00000003FF80
07FE00000007FFC0
0FFC0000000FFFC0
0FF80000001FFFE0
1FF80000003FBFE0
1FF00000003F1FF0
1FF00000007E1FF0
3FE0000000FC0FF8
3FE0000001F80FF8
3FC0000003F007F8
7FC0000007E007F8
7FC000000FC007FC
7F8000001FC007FC
7F8000003F8003FC
7F8000007F0003FC
FF800000FE0003FC
FF800001FC0003FE
FF800001F80003FE
FF000003F00003FE
FF000007E00003FE
FF00000FC00003FE
FF00001F800003FE
FF00003F000003FE
FF80007E000003FE
FF8000FE000003FE
FF8001FC000003FE
FF8003F8000003FC
7F8007F0000003FC
7F8007E0000003FC
7F800FC0000007FC
7FC01F80000007FC
7FC03F00000007F8
3FC07E00000007F8
3FE0FC0000000FF8
3FE1F80000000FF8
1FF3F00000001FF0
1FF7F00000001FF0
1FFFE00000003FE0
0FFFC00000003FE0
0FFF800000007FC0
07FF00000000FFC0
03FF00000001FF80
03FF80000003FF80
01FFC0000007FF00
03FFF000001FFE00
07FFF800003FFC00
0FFFFF0001FFF800
1FDFFFF83FFFF000
3F8FFFFFFFFFE000
7F07FFFFFFFFC000
FE03FFFFFFFF0000
FC00FFFFFFFC0000
78003FFFFFF00000
300007FFFF800000
0000007FF8000000
ENDCHAR
STARTCHAR 00D9
ENCODING 217
SWIDTH 720 0
DWIDTH 64 0
BBX 49 86 8 -2
BITMAP
000FFC00000000
0007FC00000000
0003FE00000000
0001FF00000000
0000FF00000000
00007F80000000
00003FC0000000
00001FC0000000
00000FE0000000
000007F0000000
000003F0000000
000001F8000000
000000FC000000
0000007C000000
00000000000000
00000000000000
00000000000000
00000000000000
00000000000000
FF000000007F80
FF000000007F80
FF000000007F80
FF000000007F80
FF000000007F80
FF000000007F80
FF000000007F80
FF000000007F80
FF000000007F80
FF000000007F80
FF000000007F80
FF000000007F80
FF000000007F80
FF000000007F80
FF000000007F80
FF000000007F80
FF000000007F80
FF000000007F80
FF000000007F80
FF000000007F80
FF000000007F80
FF000000007F80
FF000000007F80
FF000000007F80
FF000000007F80
FF000000007F80
FF000000007F80
FF000000007F80
FF000000007F80
FF000000007F80
FF000000007F80
FF000000007F80
FF000000007F80
FF000000007F80
FF000000007F80
FF000000007F80
FF000000007F80
FF000000007F80
FF000000007F80
FF000000007F80
FF000000007F80
FF000000007F80
FF000000007F80
FF000000007F80
FF000000007F80
FF000000007F80
FF000000007F80
FF000000007F80
FF000000007F80
FF000000007F80
FF80000000FF80
FF80000000FF80
7FC0000000FF00
7FC0000001FF00
7FE0000003FF00
3FF0000007FE00
3FF800000FFE00
1FFE00003FFC00
0FFF8000FFF800
07FFF80FFFF000
03FFFFFFFFE000
01FFFFFFFFC000
00FFFFFFFF8000
003FFFFFFE0000
000FFFFFF80000
0003FFFFE00000
00003FFC000000
ENDCHAR
STARTCHAR 00DA
ENCODING 218
SWIDTH 720 0
DWIDTH 64 0
BBX 49 86 8 -2
BITMAP
0000003FF00000
0000003FE00000
0000007FC00000
000000FF800000
000000FF000000
000001FE000000
000003FC000000
000003F8000000
000007F0000000
00000FE0000000
00000FC0000000
00001F80000000
00001F00000000
00003E00000000
00000000000000
00000000000000
00000000000000
00000000000000
00000000000000
FF000000007F80
FF000000007F80
FF000000007F80
FF000000007F80
FF000000007F80
FF000000007F80
FF000000007F80
FF000000007F80
FF000000007F80
FF000000007F80
FF000000007F80
FF000000007F80
FF000000007F80
FF000000007F80
FF000000007F80
FF000000007F80
FF000000007F80
FF000000007F80
FF000000007F80
FF000000007F80
FF000000007F80
FF000000007F80
FF000000007F80
FF000000007F80
FF000000007F80
FF000000007F80
FF000000007F80
FF000000007F80
FF000000007F80
FF000000007F80
FF000000007F80
FF000000007F80
FF000000007F80
FF000000007F80
FF000000007F80
FF000000007F80
FF000000007F80
FF000000007F80
FF000000007F80
FF000000007F80
FF000000007F80
FF000000007F80
FF000000007F80
FF000000007F80
FF000000007F80
FF000000007F80
FF000000007F80
FF000000007F80
FF000000007F80
FF000000007F80
FF80000000FF80
FF80000000FF80
7FC0000000FF00
7FC0000001FF00
7FE0000003FF00
3FF0000007FE00
3FF800000FFE00
1FFE00003FFC00
0FFF8000FFF800
07FFF80FFFF000
03FFFFFFFFE000
01FFFFFFFFC000
00FFFFFFFF8000
003FFFFFFE0000
000FFFFFF80000
0003FFFFE00000
00003FFC000000
ENDCHAR
STARTCHAR 00DB
ENCODING 219
SWIDTH 720 0
DWIDTH 64 0
BBX 49 86 8 -2
BITMAP
00000FF8000000
00001FF8000000
00001FFC000000
00003FFE000000
00003FFE000000
00007F7F000000
0000FE3F800000
0000FC3F800000
0001FC1FC00000
0003F80FE00000
0003F007E00000
0007E003F00000
000FC001F80000
000F8001F80000
00000000000000
00000000000000
00000000000000
00000000000000
00000000000000
FF000000007F80
FF000000007F80
FF000000007F80
FF000000007F80
FF000000007F80
FF000000007F80
FF000000007F80
FF000000007F80
FF000000007F80
FF000000007F80
FF000000007F80
FF000000007F80
FF000000007F80
FF000000007F80
FF000000007F80
FF000000007F80
FF000000007F80
FF000000007F80
FF000000007F80
FF000000007F80
FF000000007F80
FF000000007F80
FF000000007F80
FF000000007F80
FF000000007F80
FF000000007F80
FF000000007F80
FF000000007F80
FF000000007F80
FF000000007F80
FF000000007F80
FF000000007F80
FF000000007F80
FF000000007F80
FF000000007F80
FF000000007F80
FF000000007F80
FF000000007F80
FF000000007F80
FF000000007F80
FF000000007F80
FF000000007F80
FF000000007F80
FF000000007F80
FF000000007F80
FF000000007F80
FF000000007F80
FF000000007F80
FF000000007F80
FF000000007F80
FF80000000FF80
FF80000000FF80
7FC0000000FF00
7FC0000001FF00
7FE0000003FF00
3FF0000007FE00
3FF800000FFE00
1FFE00003FFC00
0FFF8000FFF800
07FFF80FFFF000
03FFFFFFFFE000
01FFFFFFFFC000
00FFFFFFFF8000
003FFFFFFE0000
000FFFFFF80000
0003FFFFE00000
00003FFC000000
ENDCHAR
STARTCHAR 00DC
ENCODING 220
SWIDTH 720 0
DWIDTH 64 0
BBX 49 83 8 -2
BITMAP
0007FC1FF00000
0007FC1FF00000
0007FC1FF00000
0007FC1FF00000
0007FC1FF00000
0007FC1FF00000
0007FC1FF00000
0007FC1FF00000
0007FC1FF00000
00000000000000
00000000000000
00000000000000
00000000000000
00000000000000
00000000000000
00000000000000
FF000000007F80
FF000000007F80
FF000000007F80
FF000000007F80
FF000000007F80
FF000000007F80
FF000000007F80
FF000000007F80
FF000000007F80
FF000000007F80
FF000000007F80
FF000000007F80
FF000000007F80
FF000000007F80
FF000000007F80
FF000000007F80
FF000000007F80
FF000000007F80
FF000000007F80
FF000000007F80
FF000000007F80
FF000000007F80
FF000000007F80
FF000000007F80
FF000000007F80
FF000000007F80
FF000000007F80
FF000000007F80
FF000000007F80
FF000000007F80
FF000000007F80
FF000000007F80
FF000000007F80
FF000000007F80
FF000000007F80
FF000000007F80
FF000000007F80
FF000000007F80
FF000000007F80
FF000000007F80
FF000000007F80
FF000000007F80
FF000000007F80
FF000000007F80
FF000000007F80
FF000000007F80
FF000000007F80
FF000000007F80
FF000000007F80
FF000000007F80
FF80000000FF80
FF80000000FF80
7FC0000000FF00
7FC0000001FF00
7FE0000003FF00
3FF0000007FE00
3FF800000FFE00
1FFE00003FFC00
0FFF8000FFF800
07FFF80FFFF000
03FFFFFFFFE000
01FFFFFFFFC000
00FFFFFFFF8000
003FFFFFFE0000
000FFFFFF80000
0003FFFFE00000
00003FFC000000
ENDCHAR
STARTCHAR 00DD
ENCODING 221
SWIDTH 663 0
DWIDTH 59 0
BBX 57 84 1 0
BITMAP
00000001FF800000
00000001FF000000
00000003FE000000
00000007FC000000
00000007F8000000
0000000FF0000000
0000001FE0000000
0000001FC0000000
0000003F80000000
0000003F00000000
0000007E00000000
000000FC00000000
000000F800000000
000001F000000000
0000000000000000
0000000000000000
0000000000000000
0000000000000000
0000000000000000
FFE000000001FF80
7FE000000001FF80
3FF000000003FF00
3FF000000003FF00
1FF800000007FE00
0FFC00000007FC00
0FFC0000000FFC00
07FE0000001FF800
07FE0000001FF000
03FF0000003FF000
01FF8000003FE000
01FF8000007FE000
00FFC00000FFC000
007FC00000FF8000
007FE00001FF8000
003FF00001FF0000
001FF00003FF0000
001FF80003FE0000
000FF80007FC0000
000FFC000FFC0000
0007FE000FF80000
0003FE001FF00000
0003FF001FF00000
0001FF003FE00000
0000FF807FE00000
0000FFC07FC00000
00007FC0FF800000
00007FE0FF800000
00003FE1FF000000
00001FF1FE000000
00001FFBFE000000
00000FFFFC000000
000007FFFC000000
000007FFF8000000
000003FFF0000000
000003FFF0000000
000001FFE0000000
000000FFE0000000
000000FFC0000000
0000007F80000000
0000007F80000000
0000007F80000000
0000007F80000000
0000007F80000000
0000007F80000000
0000007F80000000
0000007F80000000
0000007F80000000
0000007F80000000
0000007F80000000
0000007F80000000
0000007F80000000
0000007F80000000
0000007F80000000
0000007F80000000
0000007F80000000
0000007F80000000
0000007F80000000
0000007F80000000
0000007F80000000
0000007F80000000
0000007F80000000
0000007F80000000
0000007F80000000
0000007F80000000
ENDCHAR
STARTCHAR 00DE
ENCODING 222
SWIDTH 663 0
DWIDTH 59 0
BBX 47 65 8 0
BITMAP
FF0000000000
FF0000000000
FF0000000000
FF0000000000
FF0000000000
FF0000000000
FF0000000000
FF0000000000
FF0000000000
FF0000000000
FF0000000000
FFFFFFFFC000
FFFFFFFFF800
FFFFFFFFFE00
FFFFFFFFFF00
FFFFFFFFFF80
FFFFFFFFFFC0
FFFFFFFFFFE0
FF000003FFF0
FF000000FFF0
FF0000003FF8
FF0000001FF8
FF0000000FFC
FF00000007FC
FF00000007FC
FF00000007FC
FF00000003FE
FF00000003FE
FF00000003FE
FF00000003FE
FF00000003FE
FF00000003FE
FF00000003FE
FF00000007FC
FF00000007FC
FF0000000FFC
FF0000000FFC
FF0000001FF8
FF0000003FF8
FF000000FFF0
FF000007FFF0
FFFFFFFFFFE0
FFFFFFFFFFC0
FFFFFFFFFF80
FFFFFFFFFF00
FFFFFFFFFC00
FFFFFFFFF000
FFFFFFFF8000
FF0000000000
FF0000000000
FF0000000000
FF0000000000
FF0000000000
FF0000000000
FF0000000000
FF0000000000
FF0000000000
FF0000000000
FF0000000000
FF0000000000
FF0000000000
FF0000000000
FF0000000000
FF0000000000
FF0000000000
ENDCHAR
STARTCHAR 00DF
ENCODING 223
SWIDTH 607 0
DWIDTH 54 0
BBX 43 67 6 -2
BITMAP
0000FFC00000
000FFFFC0000
007FFFFF0000
01FFFFFFC000
03FFFFFFE000
07FFFFFFF000
0FFFFFFFF800
1FFF007FFC00
3FF8001FFC00
3FE00007FE00
7FC00003FE00
7F800001FF00
7F800001FF00
FF000000FF00
FF000000FF00
FF000000FF00
FF000000FF00
FF000000FF00
FF000000FF00
FF000000FF00
FF000000FF00
FF000001FE00
FF000003FE00
FF000007FC00
FF00000FF800
FF00003FF000
FF000FFFE000
FF003FFF8000
FF003FFE0000
FF003FFC0000
FF003FFF8000
FF003FFFE000
FF003FFFF000
FF003FFFFC00
FF00003FFE00
FF000007FF00
FF000001FF80
FF000000FF80
FF0000007FC0
FF0000003FC0
FF0000003FE0
FF0000001FE0
FF0000001FE0
FF0000001FE0
FF0000000FE0
FF0000000FE0
FF0000000FE0
FF0000000FE0
FF0000001FE0
FF0000001FE0
FF0000001FE0
FF0000001FE0
FF0000003FC0
FF0000003FC0
FF0000007FC0
FF000000FF80
FF000001FF80
FF000007FF00
FF00001FFF00
FF0000FFFE00
FF007FFFFC00
FF007FFFF800
FF007FFFF000
FF007FFFE000
FF007FFF8000
00007FFC0000
00007FE00000
ENDCHAR
STARTCHAR 00E0
ENCODING 224
SWIDTH 551 0
DWIDTH 49 0
BBX 44 68 4 -2
BITMAP
007FE0000000
003FE0000000
001FF0000000
000FF0000000
0007F8000000
0003FC000000
0001FC000000
0000FE000000
00007F000000
00003F000000
00001F800000
00000FC00000
000007C00000
000000000000
000000000000
000000000000
000000000000
000000000000
0001FFE00000
001FFFFC0000
007FFFFF0000
01FFFFFFC000
03FFFFFFE000
07FFFFFFF000
0FFFFFFFF800
0FFE007FF800
1FF8000FF800
1FF00007FC00
3FE00003FC00
3FC00003FC00
3FC00003FC00
3FC00001FC00
3F800001FC00
00000001FC00
00000001FC00
00000003FC00
00000003FC00
00000007FC00
0000007FFC00
00001FFFFC00
000FFFFFFC00
007FFFFFFC00
03FFFFFFFC00
07FFFFF9FC00
0FFFFF81FC00
1FFFE001FC00
3FFC0001FC00
7FE00001FC00
7FC00001FC00
FF800001FC00
FF000001FC00
FF000001FC00
FF000001FC00
FE000003FC00
FF000003FC00
FF000007FC00
FF000007FC00
FF00001FFC00
FF80003FFC00
7FC0007FFC00
7FF001FFFE00
3FFF7FFDFF00
3FFFFFF9FFF0
1FFFFFF1FFF0
0FFFFFE0FFF0
07FFFF80FFF0
01FFFE007FF0
003FF0001FC0
ENDCHAR
STARTCHAR 00E1
ENCODING 225
SWIDTH 551 0
DWIDTH 49 0
BBX 44 68 4 -2
BITMAP
000001FF0000
000003FE0000
000007FC0000
000007F80000
00000FF00000
00001FE00000
00001FC00000
00003F800000
00007F000000
00007E000000
0000FC000000
0000F8000000
0001F0000000
000000000000
000000000000
000000000000
000000000000
000000000000
0001FFE00000
001FFFFC0000
007FFFFF0000
01FFFFFFC000
03FFFFFFE000
07FFFFFFF000
0FFFFFFFF800
0FFE007FF800
1FF8000FF800
1FF00007FC00
3FE00003FC00
3FC00003FC00
3FC00003FC00
3FC00001FC00
3F800001FC00
00000001FC00
00000001FC00
00000003FC00
00000003FC00
00000007FC00
0000007FFC00
00001FFFFC00
000FFFFFFC00
007FFFFFFC00
03FFFFFFFC00
07FFFFF9FC00
0FFFFF81FC00
1FFFE001FC00
3FFC0001FC00
7FE00001FC00
7FC00001FC00
FF800001FC00
FF000001FC00
FF000001FC00
FF000001FC00
FE000003FC00
FF000003FC00
FF000007FC00
FF000007FC00
FF00001FFC00
FF80003FFC00
7FC0007FFC00
7FF001FFFE00
3FFF7FFDFF00
3FFFFFF9FFF0
1FFFFFF1FFF0
0FFFFFE0FFF0
07FFFF80FFF0
01FFFE007FF0
003FF0001FC0
ENDCHAR
STARTCHAR 00E2
ENCODING 226
SWIDTH 551 0
DWIDTH 49 0
BBX 44 68 4 -2
BITMAP
0000FF800000
0001FFC00000
0001FFC00000
0003FFE00000
0007FFF00000
0007F7F00000
000FE3F80000
001FC1F80000
001F81FC0000
003F80FE0000
003F007E0000
007E003F0000
00FC001F8000
000000000000
000000000000
000000000000
000000000000
000000000000
0001FFE00000
001FFFFC0000
007FFFFF0000
01FFFFFFC000
03FFFFFFE000
07FFFFFFF000
0FFFFFFFF800
0FFE007FF800
1FF8000FF800
1FF00007FC00
3FE00003FC00
3FC00003FC00
3FC00003FC00
3FC00001FC00
3F800001FC00
00000001FC00
00000001FC00
00000003FC00
00000003FC00
00000007FC00
0000007FFC00
00001FFFFC00
000FFFFFFC00
007FFFFFFC00
03FFFFFFFC00
07FFFFF9FC00
0FFFFF81FC00
1FFFE001FC00
3FFC0001FC00
7FE00001FC00
7FC00001FC00
FF800001FC00
FF000001FC00
FF000001FC00
FF000001FC00
FE000003FC00
FF000003FC00
FF000007FC00
FF000007FC00
FF00001FFC00
FF80003FFC00
7FC0007FFC00
7FF001FFFE00
3FFF7FFDFF00
3FFFFFF9FFF0
1FFFFFF1FFF0
0FFFFFE0FFF0
07FFFF80FFF0
01FFFE007FF0
003FF0001FC0
ENDCHAR
STARTCHAR 00E3
ENCODING 227
SWIDTH 551 0
DWIDTH 49 0
BBX 44 66 4 -2
BITMAP
000F8007C000
003FF007C000
007FFE0FC000
00FFFFFFC000
00FFFFFF8000
01FFFFFF8000
01F87FFF0000
01F00FFE0000
01F001FC0000
000000000000
000000000000
000000000000
000000000000
000000000000
000000000000
000000000000
0001FFE00000
001FFFFC0000
007FFFFF0000
01FFFFFFC000
03FFFFFFE000
07FFFFFFF000
0FFFFFFFF800
0FFE007FF800
1FF8000FF800
1FF00007FC00
3FE00003FC00
3FC00003FC00
3FC00003FC00
3FC00001FC00
3F800001FC00
00000001FC00
00000001FC00
00000003FC00
00000003FC00
00000007FC00
0000007FFC00
00001FFFFC00
000FFFFFFC00
007FFFFFFC00
03FFFFFFFC00
07FFFFF9FC00
0FFFFF81FC00
1FFFE001FC00
3FFC0001FC00
7FE00001FC00
7FC00001FC00
FF800001FC00
FF000001FC00
FF000001FC00
FF000001FC00
FE000003FC00
FF000003FC00
FF000007FC00
FF000007FC00
FF00001FFC00
FF80003FFC00
7FC0007FFC00
7FF001FFFE00
3FFF7FFDFF00
3FFFFFF9FFF0
1FFFFFF1FFF0
0FFFFFE0FFF0
07FFFF80FFF0
01FFFE007FF0
003FF0001FC0
ENDCHAR
STARTCHAR 00E4
ENCODING 228
SWIDTH 551 0
DWIDTH 49 0
BBX 44 66 4 -2
BITMAP
00FFC1FF0000
00FFC1FF0000
00FFC1FF0000
00FFC1FF0000
00FFC1FF0000
00FFC1FF0000
00FFC1FF0000
00FFC1FF0000
00FFC1FF0000
000000000000
000000000000
000000000000
000000000000
000000000000
000000000000
000000000000
0001FFE00000
001FFFFC0000
007FFFFF0000
01FFFFFFC000
03FFFFFFE000
07FFFFFFF000
0FFFFFFFF800
0FFE007FF800
1FF8000FF800
1FF00007FC00
3FE00003FC00
3FC00003FC00
3FC00003FC00
3FC00001FC00
3F800001FC00
00000001FC00
00000001FC00
00000003FC00
00000003FC00
00000007FC00
0000007FFC00
00001FFFFC00
000FFFFFFC00
007FFFFFFC00
03FFFFFFFC00
07FFFFF9FC00
0FFFFF81FC00
1FFFE001FC00
3FFC0001FC00
7FE00001FC00
7FC00001FC00
FF800001FC00
FF000001FC00
FF000001FC00
FF000001FC00
FE000003FC00
FF000003FC00
FF000007FC00
FF000007FC00
FF00001FFC00
FF80003FFC00
7FC0007FFC00
7FF001FFFE00
3FFF7FFDFF00
3FFFFFF9FFF0
1FFFFFF1FFF0
0FFFFFE0FFF0
07FFFF80FFF0
01FFFE007FF0
003FF0001FC0
ENDCHAR
STARTCHAR 00E5
ENCODING 229
SWIDTH 551 0
DWIDTH 49 0
BBX 44 69 4 -2
BITMAP
00003E000000
0000FF800000
0001FFC00000
0003FFE00000
0007C1F00000
000780F00000
000780F00000
000780F00000
000780F00000
000780F00000
0007C1F00000
0003FFE00000
0001FFC00000
0000FF800000
00003E000000
000000000000
000000000000
000000000000
000000000000
0001FFE00000
001FFFFC0000
007FFFFF0000
01FFFFFFC000
03FFFFFFE000
07FFFFFFF000
0FFFFFFFF800
0FFE007FF800
1FF8000FF800
1FF00007FC00
3FE00003FC00
3FC00003FC00
3FC00003FC00
3FC00001FC00
3F800001FC00
00000001FC00
00000001FC00
00000003FC00
00000003FC00
00000007FC00
0000007FFC00
00001FFFFC00
000FFFFFFC00
007FFFFFFC00
03FFFFFFFC00
07FFFFF9FC00
0FFFFF81FC00
1FFFE001FC00
3FFC0001FC00
7FE00001FC00
7FC00001FC00
FF800001FC00
FF000001FC00
FF000001FC00
FF000001FC00
FE000003FC00
FF000003FC00
FF000007FC00
FF000007FC00
FF00001FFC00
FF80003FFC00
7FC0007FFC00
7FF001FFFE00
3FFF7FFDFF00
3FFFFFF9FFF0
1FFFFFF1FFF0
0FFFFFE0FFF0
07FFFF80FFF0
01FFFE007FF0
003FF0001FC0
ENDCHAR
STARTCHAR 00E6
ENCODING 230
SWIDTH 888 0
DWIDTH 79 0
BBX 72 50 3 -2
BITMAP
0001FFC00001FF0000
001FFFFC000FFFF000
007FFFFF003FFFFC00
00FFFFFF80FFFFFE00
03FFFFFFC1FFFFFF80
07FFFFFFE3FFFFFFC0
0FFFFFFFF7FFFFFFE0
0FFE003FFFFE01FFF0
1FF8000FFFF8003FF0
1FF00007FFE0001FF8
1FE00003FFC0000FFC
3FC00001FF800007FC
3FC00001FF800003FC
3FC00001FF000003FE
3FC00001FF000001FE
00000001FE000001FE
00000001FE000000FE
00000001FE000000FF
00000003FC000000FF
00000007FC000000FF
0000003FFC000000FF
00003FFFFFFFFFFFFF
000FFFFFFFFFFFFFFF
007FFFFFFFFFFFFFFF
01FFFFFFFFFFFFFFFF
07FFFFF9FFFFFFFFFF
0FFFFF81FFFFFFFFFF
1FFFE001FC00000000
3FFC0001FC00000000
3FF00001FC00000000
7FC00001FC00000000
7F800001FC00000000
FF800001FC00000000
FF000001FE00000000
FF000001FE000000FE
FF000001FE000001FE
FF000003FF000001FE
FF000007FF800003FC
FF00000FFF800007FC
FF80001FFFC0000FF8
7F80003FFFE0001FF8
7FC000FF9FF8003FF0
7FF003FF1FFE00FFF0
3FFF7FFE0FFFFFFFE0
1FFFFFFC07FFFFFFC0
1FFFFFF003FFFFFF80
0FFFFFE001FFFFFE00
03FFFF80007FFFFC00
01FFFE00001FFFF000
003FF0000003FF0000
ENDCHAR
STARTCHAR 00E7
ENCODING 231
SWIDTH 495 0
DWIDTH 44 0
BBX 39 67 3 -19
BITMAP
0000FF8000
0007FFF800
001FFFFE00
007FFFFF00
00FFFFFFC0
01FFFFFFE0
03FFFFFFE0
07FF00FFF0
0FFC001FF8
0FF8000FF8
1FF00007FC
1FE00003FC
3FC00003FC
3FC00001FC
7F800001FE
7F800001FE
7F800001FE
7F00000000
FF00000000
FF00000000
FF00000000
FF00000000
FF00000000
FF00000000
FF00000000
FE00000000
FF00000000
FF00000000
FF00000000
FF00000000
FF00000000
FF00000000
FF000000FE
7F800000FE
7F800001FE
7F800001FE
3FC00001FE
3FC00003FC
3FE00003FC
1FF00007FC
1FF8000FF8
0FFC001FF8
07FF007FF0
07FFFFFFE0
03FFFFFFC0
01FFFFFF80
007FFFFF00
003FFFFE00
000FFFF000
0000FF8000
0000700000
0000F00000
0000E00000
0001FFC000
0001FFE000
0003FFF000
00010FF800
000003F800
000003F800
000003F800
000003F800
00E003F000
00F80FF000
01FFFFE000
00FFFFC000
003FFF8000
0007FC0000
ENDCHAR
STARTCHAR 00E8
ENCODING 232
SWIDTH 551 0
DWIDTH 49 0
BBX 42 68 4 -2
BITMAP
007FE0000000
003FE0000000
001FF0000000
000FF8000000
0007F8000000
0003FC000000
0001FE000000
0000FE000000
00007F000000
00003F800000
00001F800000
00000FC00000
000007C00000
000000000000
000000000000
000000000000
000000000000
000000000000
0000FFC00000
0007FFF80000
001FFFFE0000
007FFFFF8000
00FFFFFFC000
01FFFFFFE000
03FFFFFFF000
07FF807FF800
0FFC001FFC00
1FF80007FC00
1FF00003FE00
3FE00001FE00
3FC00001FF00
3FC00000FF00
7F800000FF00
7F8000007F80
7F0000007F80
FF0000007F80
FF0000007F80
FF0000003F80
FF0000003F80
FFFFFFFFFFC0
FFFFFFFFFFC0
FFFFFFFFFFC0
FFFFFFFFFFC0
FFFFFFFFFFC0
FFFFFFFFFFC0
FE0000000000
FE0000000000
FE0000000000
FF0000000000
FF0000000000
FF0000000000
FF0000000000
7F0000007F00
7F8000007F00
7F800000FF00
3FC00001FF00
3FE00001FE00
1FF00003FE00
1FF80007FC00
0FFC000FFC00
0FFF807FF800
07FFFFFFF000
03FFFFFFE000
01FFFFFFC000
007FFFFF8000
003FFFFE0000
000FFFF80000
0000FFC00000
ENDCHAR
STARTCHAR 00E9
ENCODING 233
SWIDTH 551 0
DWIDTH 49 0
BBX 42 68 4 -2
BITMAP
000001FF8000
000003FF0000
000003FE0000
000007FC0000
00000FF80000
00000FF00000
00001FE00000
00001FC00000
00003F800000
00007F000000
00007E000000
0000FC000000
0001F8000000
000000000000
000000000000
000000000000
000000000000
000000000000
0000FFC00000
0007FFF80000
001FFFFE0000
007FFFFF8000
00FFFFFFC000
01FFFFFFE000
03FFFFFFF000
07FF807FF800
0FFC001FFC00
1FF80007FC00
1FF00003FE00
3FE00001FE00
3FC00001FF00
3FC00000FF00
7F800000FF00
7F8000007F80
7F0000007F80
FF0000007F80
FF0000007F80
FF0000003F80
FF0000003F80
FFFFFFFFFFC0
FFFFFFFFFFC0
FFFFFFFFFFC0
FFFFFFFFFFC0
FFFFFFFFFFC0
FFFFFFFFFFC0
FE0000000000
FE0000000000
FE0000000000
FF0000000000
FF0000000000
FF0000000000
FF0000000000
7F0000007F00
7F8000007F00
7F800000FF00
3FC00001FF00
3FE00001FE00
1FF00003FE00
1FF80007FC00
0FFC000FFC00
0FFF807FF800
07FFFFFFF000
03FFFFFFE000
01FFFFFFC000
007FFFFF8000
003FFFFE0000
000FFFF80000
0000FFC00000
ENDCHAR
STARTCHAR 00EA
ENCODING 234
SWIDTH 551 0
DWIDTH 49 0
BBX 42 68 4 -2
BITMAP
00007FC00000
0000FFE00000
0000FFE00000
0001FFF00000
0003FFF80000
0003FBF80000
0007F1FC0000
000FE0FC0000
000FC07E0000
001FC07F0000
001F803F0000
003F001F8000
007E000FC000
000000000000
000000000000
000000000000
000000000000
000000000000
0000FFC00000
0007FFF80000
001FFFFE0000
007FFFFF8000
00FFFFFFC000
01FFFFFFE000
03FFFFFFF000
07FF807FF800
0FFC001FFC00
1FF80007FC00
1FF00003FE00
3FE00001FE00
3FC00001FF00
3FC00000FF00
7F800000FF00
7F8000007F80
7F0000007F80
FF0000007F80
FF0000007F80
FF0000003F80
FF0000003F80
FFFFFFFFFFC0
FFFFFFFFFFC0
FFFFFFFFFFC0
FFFFFFFFFFC0
FFFFFFFFFFC0
FFFFFFFFFFC0
FE0000000000
FE0000000000
FE0000000000
FF0000000000
FF0000000000
FF0000000000
FF0000000000
7F0000007F00
7F8000007F00
7F800000FF00
3FC00001FF00
3FE00001FE00
1FF00003FE00
1FF80007FC00
0FFC000FFC00
0FFF807FF800
07FFFFFFF000
03FFFFFFE000
01FFFFFFC000
007FFFFF8000
003FFFFE0000
000FFFF80000
0000FFC00000
ENDCHAR
STARTCHAR 00EB
ENCODING 235
SWIDTH 551 0
DWIDTH 49 0
BBX 42 66 4 -2
BITMAP
003FE0FF8000
003FE0FF8000
003FE0FF8000
003FE0FF8000
003FE0FF8000
003FE0FF8000
003FE0FF8000
003FE0FF8000
003FE0FF8000
000000000000
000000000000
000000000000
000000000000
000000000000
000000000000
000000000000
0000FFC00000
0007FFF80000
001FFFFE0000
007FFFFF8000
00FFFFFFC000
01FFFFFFE000
03FFFFFFF000
07FF807FF800
0FFC001FFC00
1FF80007FC00
1FF00003FE00
3FE00001FE00
3FC00001FF00
3FC00000FF00
7F800000FF00
7F8000007F80
7F0000007F80
FF0000007F80
FF0000007F80
FF0000003F80
FF0000003F80
FFFFFFFFFFC0
FFFFFFFFFFC0
FFFFFFFFFFC0
FFFFFFFFFFC0
FFFFFFFFFFC0
FFFFFFFFFFC0
FE0000000000
FE0000000000
FE0000000000
FF0000000000
FF0000000000
FF0000000000
FF0000000000
7F0000007F00
7F8000007F00
7F800000FF00
3FC00001FF00
3FE00001FE00
1FF00003FE00
1FF80007FC00
0FFC000FFC00
0FFF807FF800
07FFFFFFF000
03FFFFFFE000
01FFFFFFC000
007FFFFF8000
003FFFFE0000
000FFFF80000
0000FFC00000
ENDCHAR
STARTCHAR 00EC
ENCODING 236
SWIDTH 281 0
DWIDTH 25 0
BBX 18 66 0 0
BITMAP
FFC000
7FE000
3FE000
1FF000
0FF800
07F800
03FC00
01FE00
00FE00
007F00
003F00
001F80
000FC0
000000
000000
000000
000000
000000
000000
00FF00
00FF00
00FF00
00FF00
00FF00
00FF00
00FF00
00FF00
00FF00
00FF00
00FF00
00FF00
00FF00
00FF00
00FF00
00FF00
00FF00
00FF00
00FF00
00FF00
00FF00
00FF00
00FF00
00FF00
00FF00
00FF00
00FF00
00FF00
00FF00
00FF00
00FF00
00FF00
00FF00
00FF00
00FF00
00FF00
00FF00
00FF00
00FF00
00FF00
00FF00
00FF00
00FF00
00FF00
00FF00
00FF00
00FF00
ENDCHAR
STARTCHAR 00ED
ENCODING 237
SWIDTH 281 0
DWIDTH 25 0
BBX 18 66 6 0
BITMAP
00FFC0
01FF80
01FF00
03FE00
07FC00
07F800
0FF000
1FE000
1FC000
3F8000
7F0000
7E0000
FC0000
000000
000000
000000
000000
000000
000000
3FC000
3FC000
3FC000
3FC000
3FC000
3FC000
3FC000
3FC000
3FC000
3FC000
3FC000
3FC000
3FC000
3FC000
3FC000
3FC000
3FC000
3FC000
3FC000
3FC000
3FC000
3FC000
3FC000
3FC000
3FC000
3FC000
3FC000
3FC000
3FC000
3FC000
3FC000
3FC000
3FC000
3FC000
3FC000
3FC000
3FC000
3FC000
3FC000
3FC000
3FC000
3FC000
3FC000
3FC000
3FC000
3FC000
3FC000
ENDCHAR
STARTCHAR 00EE
ENCODING 238
SWIDTH 281 0
DWIDTH 25 0
BBX 24 66 0 0
BITMAP
00FF80
01FF80
03FFC0
03FFE0
07FFE0
0FE7F0
0FE3F8
1FC3F8
3F81FC
3F00FE
7E007E
FC003F
FC001F
000000
000000
000000
000000
000000
000000
00FF00
00FF00
00FF00
00FF00
00FF00
00FF00
00FF00
00FF00
00FF00
00FF00
00FF00
00FF00
00FF00
00FF00
00FF00
00FF00
00FF00
00FF00
00FF00
00FF00
00FF00
00FF00
00FF00
00FF00
00FF00
00FF00
00FF00
00FF00
00FF00
00FF00
00FF00
00FF00
00FF00
00FF00
00FF00
00FF00
00FF00
00FF00
00FF00
00FF00
00FF00
00FF00
00FF00
00FF00
00FF00
00FF00
00FF00
ENDCHAR
STARTCHAR 00EF
ENCODING 239
SWIDTH 281 0
DWIDTH 25 0
BBX 24 63 0 0
BITMAP
FFC1FF
FFC1FF
FFC1FF
FFC1FF
FFC1FF
FFC1FF
FFC1FF
FFC1FF
FFC1FF
000000
000000
000000
000000
000000
000000
000000
00FF00
00FF00
00FF00
00FF00
00FF00
00FF00
00FF00
00FF00
00FF00
00FF00
00FF00
00FF00
00FF00
00FF00
00FF00
00FF00
00FF00
00FF00
00FF00
00FF00
00FF00
00FF00
00FF00
00FF00
00FF00
00FF00
00FF00
00FF00
00FF00
00FF00
00FF00
00FF00
00FF00
00FF00
00FF00
00FF00
00FF00
00FF00
00FF00
00FF00
00FF00
00FF00
00FF00
00FF00
00FF00
00FF00
00FF00
ENDCHAR
STARTCHAR 00F0
ENCODING 240
SWIDTH 551 0
DWIDTH 49 0
BBX 42 68 3 -2
BITMAP
00C000000000
01F000000000
03FC00700000
07FE01F80000
03FF87FC0000
00FFFFF80000
007FFFE00000
001FFF800000
000FFE000000
003FFF000000
00FFFFC00000
03FF7FE00000
07FC3FF00000
03F01FF80000
01C00FFC0000
000007FE0000
000003FF0000
000001FF8000
0000FE7FC000
0007FFFFE000
003FFFFFE000
007FFFFFF000
00FFFFFFF800
01FFFFFFF800
03FFFFFFFC00
07FF803FFC00
0FFE000FFE00
0FF80007FE00
1FF00003FF00
1FF00001FF00
3FE00000FF80
3FC00000FF80
3FC000007F80
7F8000007F80
7F8000007FC0
7F8000003FC0
7F8000003FC0
7F0000003FC0
FF0000003FC0
FF0000003FC0
FF0000001FC0
FF0000001FC0
FF0000001FC0
FF0000001FC0
FF0000001FC0
FF0000001FC0
FF0000003FC0
FF0000003FC0
7F0000003FC0
7F8000003FC0
7F8000003FC0
7F8000007F80
7FC000007F80
3FC000007F80
3FC00000FF80
3FE00000FF00
1FF00001FF00
1FF80003FE00
0FFC0007FE00
0FFE000FFC00
07FF807FFC00
03FFFFFFF800
01FFFFFFF000
00FFFFFFE000
007FFFFFC000
001FFFFF0000
0007FFFC0000
0000FFC00000
ENDCHAR
STARTCHAR 00F1
ENCODING 241
SWIDTH 551 0
DWIDTH 49 0
BBX 37 64 6 0
BITMAP
003F001F80
00FFE01F80
01FFFC3F00
01FFFFFF00
03FFFFFF00
03FFFFFE00
03E1FFFC00
07E03FF800
07C007F000
0000000000
0000000000
0000000000
0000000000
0000000000
0000000000
0000000000
00007FE000
FE03FFFC00
FE07FFFF00
FE0FFFFF80
FE3FFFFFC0
FE3FFFFFE0
FE7FFFFFF0
FEFE007FF0
FFFC001FF8
FFF0000FF8
FFE00007F8
FFE00007F8
FFC00007F8
FF800003F8
FF800003F8
FF800003F8
FF000003F8
FF000003F8
FF000003F8
FF000003F8
FF000003F8
FF000003F8
FF000003F8
FF000003F8
FF000003F8
FF000003F8
FF000003F8
FF000003F8
FF000003F8
FF000003F8
FF000003F8
FF000003F8
FF000003F8
FF000003F8
FF000003F8
FF000003F8
FF000003F8
FF000003F8
FF000003F8
FF000003F8
FF000003F8
FF000003F8
FF000003F8
FF000003F8
FF000003F8
FF000003F8
FF000003F8
FF000003F8
ENDCHAR
STARTCHAR 00F2
ENCODING 242
SWIDTH 551 0
DWIDTH 49 0
BBX 42 68 3 -2
BITMAP
007FE0000000
003FF0000000
001FF0000000
000FF8000000
0007FC000000
0003FC000000
0001FE000000
0000FF000000
00007F000000
00003F800000
00001FC00000
00000FC00000
000007E00000
000000000000
000000000000
000000000000
000000000000
000000000000
0000FFC00000
0007FFFC0000
001FFFFF0000
007FFFFFC000
00FFFFFFE000
01FFFFFFF000
03FFFFFFF800
07FF807FFC00
0FFE000FFC00
0FFC0007FE00
1FF80003FE00
1FF00001FF00
3FE00000FF00
3FC00000FF80
3FC000007F80
7FC000007F80
7F8000007F80
7F8000003FC0
7F8000003FC0
7F0000003FC0
FF0000003FC0
FF0000003FC0
FF0000001FC0
FF0000001FC0
FF0000001FC0
FF0000001FC0
FF0000001FC0
FF0000001FC0
FF0000003FC0
FF0000003FC0
7F0000003FC0
7F8000003FC0
7F8000003FC0
7F8000007FC0
7FC000007F80
3FC000007F80
3FC00000FF80
3FE00000FF00
1FF00001FF00
1FF80003FE00
0FFC0007FE00
0FFE000FFC00
07FF807FF800
03FFFFFFF800
01FFFFFFF000
00FFFFFFE000
007FFFFF8000
001FFFFF0000
0007FFFC0000
0000FFC00000
ENDCHAR
STARTCHAR 00F3
ENCODING 243
SWIDTH 551 0
DWIDTH 49 0
BBX 42 68 3 -2
BITMAP
000001FF8000
000001FF0000
000003FE0000
000007FC0000
000007F80000
00000FF00000
00001FE00000
00001FC00000
00003F800000
00007F000000
00007E000000
0000FC000000
0001F8000000
000000000000
000000000000
000000000000
000000000000
000000000000
0000FFC00000
0007FFFC0000
001FFFFF0000
007FFFFFC000
00FFFFFFE000
01FFFFFFF000
03FFFFFFF800
07FF807FFC00
0FFE000FFC00
0FFC0007FE00
1FF80003FE00
1FF00001FF00
3FE00000FF00
3FC00000FF80
3FC000007F80
7FC000007F80
7F8000007F80
7F8000003FC0
7F8000003FC0
7F0000003FC0
FF0000003FC0
FF0000003FC0
FF0000001FC0
FF0000001FC0
FF0000001FC0
FF0000001FC0
FF0000001FC0
FF0000001FC0
FF0000003FC0
FF0000003FC0
7F0000003FC0
7F8000003FC0
7F8000003FC0
7F8000007FC0
7FC000007F80
3FC000007F80
3FC00000FF80
3FE00000FF00
1FF00001FF00
1FF80003FE00
0FFC0007FE00
0FFE000FFC00
07FF807FF800
03FFFFFFF800
01FFFFFFF000
00FFFFFFE000
007FFFFF8000
001FFFFF0000
0007FFFC0000
0000FFC00000
ENDCHAR
STARTCHAR 00F4
ENCODING 244
SWIDTH 551 0
DWIDTH 49 0
BBX 42 68 3 -2
BITMAP
00007FC00000
0000FFC00000
0001FFE00000
0001FFF00000
0003FFF00000
0003FBF80000
0007F1FC0000
000FE1FC0000
000FC0FE0000
001F807F0000
003F803F0000
003F001F8000
007E000FC000
000000000000
000000000000
000000000000
000000000000
000000000000
0000FFC00000
0007FFFC0000
001FFFFF0000
007FFFFFC000
00FFFFFFE000
01FFFFFFF000
03FFFFFFF800
07FF807FFC00
0FFE000FFC00
0FFC0007FE00
1FF80003FE00
1FF00001FF00
3FE00000FF00
3FC00000FF80
3FC000007F80
7FC000007F80
7F8000007F80
7F8000003FC0
7F8000003FC0
7F0000003FC0
FF0000003FC0
FF0000003FC0
FF0000001FC0
FF0000001FC0
FF0000001FC0
FF0000001FC0
FF0000001FC0
FF0000001FC0
FF0000003FC0
FF0000003FC0
7F0000003FC0
7F8000003FC0
7F8000003FC0
7F8000007FC0
7FC000007F80
3FC000007F80
3FC00000FF80
3FE00000FF00
1FF00001FF00
1FF80003FE00
0FFC0007FE00
0FFE000FFC00
07FF807FF800
03FFFFFFF800
01FFFFFFF000
00FFFFFFE000
007FFFFF8000
001FFFFF0000
0007FFFC0000
0000FFC00000
ENDCHAR
STARTCHAR 00F5
ENCODING 245
SWIDTH 551 0
DWIDTH 49 0
BBX 42 66 3 -2
BITMAP
0007E003E000
001FF803E000
003FFF07E000
003FFFFFE000
007FFFFFC000
007FFFFFC000
00FC3FFF8000
00F807FF0000
00F800FE0000
000000000000
000000000000
000000000000
000000000000
000000000000
000000000000
000000000000
0000FFC00000
0007FFFC0000
001FFFFF0000
007FFFFFC000
00FFFFFFE000
01FFFFFFF000
03FFFFFFF800
07FF807FFC00
0FFE000FFC00
0FFC0007FE00
1FF80003FE00
1FF00001FF00
3FE00000FF00
3FC00000FF80
3FC000007F80
7FC000007F80
7F8000007F80
7F8000003FC0
7F8000003FC0
7F0000003FC0
FF0000003FC0
FF0000003FC0
FF0000001FC0
FF0000001FC0
FF0000001FC0
FF0000001FC0
FF0000001FC0
FF0000001FC0
FF0000003FC0
FF0000003FC0
7F0000003FC0
7F8000003FC0
7F8000003FC0
7F8000007FC0
7FC000007F80
3FC000007F80
3FC00000FF80
3FE00000FF00
1FF00001FF00
1FF80003FE00
0FFC0007FE00
0FFE000FFC00
07FF807FF800
03FFFFFFF800
01FFFFFFF000
00FFFFFFE000
007FFFFF8000
001FFFFF0000
0007FFFC0000
0000FFC00000
ENDCHAR
STARTCHAR 00F6
ENCODING 246
SWIDTH 551 0
DWIDTH 49 0
BBX 42 66 3 -2
BITMAP
007FE0FF8000
007FE0FF8000
007FE0FF8000
007FE0FF8000
007FE0FF8000
007FE0FF8000
007FE0FF8000
007FE0FF8000
007FE0FF8000
000000000000
000000000000
000000000000
000000000000
000000000000
000000000000
000000000000
0000FFC00000
0007FFFC0000
001FFFFF0000
007FFFFFC000
00FFFFFFE000
01FFFFFFF000
03FFFFFFF800
07FF807FFC00
0FFE000FFC00
0FFC0007FE00
1FF80003FE00
1FF00001FF00
3FE00000FF00
3FC00000FF80
3FC000007F80
7FC000007F80
7F8000007F80
7F8000003FC0
7F8000003FC0
7F0000003FC0
FF0000003FC0
FF0000003FC0
FF0000001FC0
FF0000001FC0
FF0000001FC0
FF0000001FC0
FF0000001FC0
FF0000001FC0
FF0000003FC0
FF0000003FC0
7F0000003FC0
7F8000003FC0
7F8000003FC0
7F8000007FC0
7FC000007F80
3FC000007F80
3FC00000FF80
3FE00000FF00
1FF00001FF00
1FF80003FE00
0FFC0007FE00
0FFE000FFC00
07FF807FF800
03FFFFFFF800
01FFFFFFF000
00FFFFFFE000
007FFFFF8000
001FFFFF0000
0007FFFC0000
0000FFC00000
ENDCHAR
STARTCHAR 00F7
ENCODING 247
SWIDTH 585 0
DWIDTH 52 0
BBX 43 42 4 0
BITMAP
00007FE00000
00007FE00000
00007FE00000
00007FE00000
00007FE00000
00007FE00000
00007FE00000
00007FE00000
00007FE00000
000000000000
000000000000
000000000000
000000000000
000000000000
000000000000
000000000000
000000000000
000000000000
FFFFFFFFFFE0
FFFFFFFFFFE0
FFFFFFFFFFE0
FFFFFFFFFFE0
FFFFFFFFFFE0
FFFFFFFFFFE0
000000000000
000000000000
000000000000
000000000000
000000000000
000000000000
000000000000
000000000000
000000000000
00007FE00000
00007FE00000
00007FE00000
00007FE00000
00007FE00000
00007FE00000
00007FE00000
00007FE00000
00007FE00000
ENDCHAR
STARTCHAR 00F8
ENCODING 248
SWIDTH 607 0
DWIDTH 54 0
BBX 45 51 2 -3
BITMAP
00007FE00020
0003FFFE0070
000FFFFF80F8
003FFFFFC1F0
007FFFFFF3E0
00FFFFFFFFC0
01FFFFFFFF80
03FFC03FFF80
07FF0007FF00
07FE0003FF00
0FFC0001FF00
0FF80000FF80
1FF00001FF80
1FE00003FFC0
1FE00007FFC0
3FE0000FFFC0
3FC0000F9FE0
3FC0001F1FE0
3FC0003E1FE0
3F80007C1FE0
7F8000F81FE0
7F8001F01FE0
7F8003E00FE0
7F8007C00FE0
7F800FC00FE0
7F800F800FE0
7F801F000FE0
7F803E000FE0
7F807C001FE0
7F80F8001FE0
3F81F0001FE0
3FC3E0001FE0
3FC7C0001FE0
3FC7C0003FC0
3FEF80003FC0
1FFF00003FC0
1FFE00007FC0
1FFC00007F80
0FF80000FF80
0FFC0001FF00
07FE0003FF00
07FF0007FE00
07FFC03FFC00
0FFFFFFFFC00
1FFFFFFFF800
3E7FFFFFF000
7C3FFFFFC000
F80FFFFF8000
F003FFFE0000
60007FE00000
200000000000
ENDCHAR
STARTCHAR 00F9
ENCODING 249
SWIDTH 551 0
DWIDTH 49 0
BBX 37 68 6 -2
BITMAP
03FF000000
01FF800000
00FF800000
007FC00000
003FE00000
001FE00000
000FF00000
0007F00000
0003F80000
0001FC0000
0000FC0000
00007E0000
00003F0000
0000000000
0000000000
0000000000
0000000000
0000000000
0000000000
FE000007F8
FE000007F8
FE000007F8
FE000007F8
FE000007F8
FE000007F8
FE000007F8
FE000007F8
FE000007F8
FE000007F8
FE000007F8
FE000007F8
FE000007F8
FE000007F8
FE000007F8
FE000007F8
FE000007F8
FE000007F8
FE000007F8
FE000007F8
FE000007F8
FE000007F8
FE000007F8
FE000007F8
FE000007F8
FE000007F8
FE000007F8
FE000007F8
FE000007F8
FE000007F8
FE000007F8
FE000007F8
FE000007F8
FE000007F8
FE00000FF8
FE00000FF8
FF00001FF8
FF00001FF8
FF80003FF8
FF80007FF8
FFC000FFF8
7FF003FBF8
7FFFFFFBF8
3FFFFFF3F8
1FFFFFE3F8
0FFFFFC3F8
07FFFF03F8
01FFFC0000
003FE00000
ENDCHAR
STARTCHAR 00FA
ENCODING 250
SWIDTH 551 0
DWIDTH 49 0
BBX 37 68 6 -2
BITMAP
00000FFC00
00001FF800
00001FF000
00003FE000
00007FC000
00007F8000
0000FF0000
0001FE0000
0001FC0000
0003F80000
0003F00000
0007E00000
000FC00000
0000000000
0000000000
0000000000
0000000000
0000000000
0000000000
FE000007F8
FE000007F8
FE000007F8
FE000007F8
FE000007F8
FE000007F8
FE000007F8
FE000007F8
FE000007F8
FE000007F8
FE000007F8
FE000007F8
FE000007F8
FE000007F8
FE000007F8
FE000007F8
FE000007F8
FE000007F8
FE000007F8
FE000007F8
FE000007F8
FE000007F8
FE000007F8
FE000007F8
FE000007F8
FE000007F8
FE000007F8
FE000007F8
FE000007F8
FE000007F8
FE000007F8
FE000007F8
FE000007F8
FE000007F8
FE00000FF8
FE00000FF8
FF00001FF8
FF00001FF8
FF80003FF8
FF80007FF8
FFC000FFF8
7FF003FBF8
7FFFFFFBF8
3FFFFFF3F8
1FFFFFE3F8
0FFFFFC3F8
07FFFF03F8
01FFFC0000
003FE00000
ENDCHAR
STARTCHAR 00FB
ENCODING 251
SWIDTH 551 0
DWIDTH 49 0
BBX 37 68 6 -2
BITMAP
0003FE0000
0007FF0000
0007FF0000
000FFF8000
001FFFC000
001FDFC000
003F8FE000
007F07E000
007E07F000
00FC03F800
01FC01F800
01F800FC00
03F0007E00
0000000000
0000000000
0000000000
0000000000
0000000000
0000000000
FE000007F8
FE000007F8
FE000007F8
FE000007F8
FE000007F8
FE000007F8
FE000007F8
FE000007F8
FE000007F8
FE000007F8
FE000007F8
FE000007F8
FE000007F8
FE000007F8
FE000007F8
FE000007F8
FE000007F8
FE000007F8
FE000007F8
FE000007F8
FE000007F8
FE000007F8
FE000007F8
FE000007F8
FE000007F8
FE000007F8
FE000007F8
FE000007F8
FE000007F8
FE000007F8
FE000007F8
FE000007F8
FE000007F8
FE000007F8
FE00000FF8
FE00000FF8
FF00001FF8
FF00001FF8
FF80003FF8
FF80007FF8
FFC000FFF8
7FF003FBF8
7FFFFFFBF8
3FFFFFF3F8
1FFFFFE3F8
0FFFFFC3F8
07FFFF03F8
01FFFC0000
003FE00000
ENDCHAR
STARTCHAR 00FC
ENCODING 252
SWIDTH 551 0
DWIDTH 49 0
BBX 37 66 6 -2
BITMAP
01FF07FC00
01FF07FC00
01FF07FC00
01FF07FC00
01FF07FC00
01FF07FC00
01FF07FC00
01FF07FC00
01FF07FC00
0000000000
0000000000
0000000000
0000000000
0000000000
0000000000
0000000000
0000000000
FE000007F8
FE000007F8
FE000007F8
FE000007F8
FE000007F8
FE000007F8
FE000007F8
FE000007F8
FE000007F8
FE000007F8
FE000007F8
FE000007F8
FE000007F8
FE000007F8
FE000007F8
FE000007F8
FE000007F8
FE000007F8
FE000007F8
FE000007F8
FE000007F8
FE000007F8
FE000007F8
FE000007F8
FE000007F8
FE000007F8
FE000007F8
FE000007F8
FE000007F8
FE000007F8
FE000007F8
FE000007F8
FE000007F8
FE000007F8
FE00000FF8
FE00000FF8
FF00001FF8
FF00001FF8
FF80003FF8
FF80007FF8
FFC000FFF8
7FF003FBF8
7FFFFFFBF8
3FFFFFF3F8
1FFFFFE3F8
0FFFFFC3F8
07FFFF03F8
01FFFC0000
003FE00000
ENDCHAR
STARTCHAR 00FD
ENCODING 253
SWIDTH 495 0
DWIDTH 44 0
BBX 40 85 2 -19
BITMAP
000003FF00
000007FE00
00000FFC00
00000FF800
00001FF000
00003FE000
00003FC000
00007F8000
00007E0000
0000FC0000
0001F80000
0001F00000
0003E00000
0000000000
0000000000
0000000000
0000000000
0000000000
0000000000
FF000000FF
FF000000FF
7F800000FF
7F800001FE
7F800001FE
3FC00001FC
3FC00003FC
3FC00003FC
1FC00007F8
1FE00007F8
1FE00007F8
0FE0000FF0
0FF0000FF0
0FF0000FF0
07F0001FE0
07F8001FE0
07F8001FC0
03F8003FC0
03FC003FC0
03FC003F80
01FC007F80
01FE007F80
01FE007F00
00FE00FF00
00FF00FF00
00FF01FE00
007F01FE00
007F81FC00
007F83FC00
003F83FC00
003FC3F800
003FC7F800
001FC7F800
001FE7F000
001FEFF000
000FEFF000
000FFFE000
000FFFE000
0007FFC000
0007FFC000
0007FFC000
0003FF8000
0003FF8000
0003FF8000
0001FF0000
0001FF0000
0001FE0000
0001FE0000
0001FE0000
0001FC0000
0003FC0000
0003FC0000
0007F80000
0007F80000
0007F80000
000FF00000
000FF00000
001FE00000
003FE00000
1FFFE00000
1FFFC00000
1FFF800000
1FFF000000
1FFE000000
1FFC000000
0FF0000000
ENDCHAR
STARTCHAR 00FE
ENCODING 254
SWIDTH 551 0
DWIDTH 49 0
BBX 41 83 5 -19
BITMAP
FE0000000000
FE0000000000
FE0000000000
FE0000000000
FE0000000000
FE0000000000
FE0000000000
FE0000000000
FE0000000000
FE0000000000
FE0000000000
FE0000000000
FE0000000000
FE0000000000
FE0000000000
FE0000000000
FE007FC00000
FE03FFF80000
FE0FFFFE0000
FE1FFFFF8000
FE3FFFFFC000
FE7FFFFFE000
FEFFFFFFF000
FFFF80FFF000
FFFC003FF800
FFF8000FFC00
FFF00007FC00
FFE00003FE00
FFC00003FE00
FFC00001FF00
FF800001FF00
FF800000FF00
FF000000FF00
FF0000007F80
FF0000007F80
FF0000007F80
FF0000007F80
FE0000007F80
FE0000003F80
FE0000003F80
FE0000003F80
FE0000003F80
FE0000003F80
FE0000003F80
FE0000007F80
FF0000007F80
FF0000007F80
FF0000007F80
FF0000007F80
FF000000FF80
FF800000FF00
FF800000FF00
FFC00001FF00
FFC00003FE00
FFE00003FE00
FFF00007FC00
FFF8000FFC00
FFFC003FF800
FFFF80FFF800
FEFFFFFFF000
FEFFFFFFE000
FE7FFFFFC000
FE1FFFFF8000
FE0FFFFE0000
FE03FFF80000
FE007FC00000
FE0000000000
FE0000000000
FE0000000000
FE0000000000
FE0000000000
FE0000000000
FE0000000000
FE0000000000
FE0000000000
FE0000000000
FE0000000000
FE0000000000
FE0000000000
FE0000000000
FE0000000000
FE0000000000
FE0000000000
ENDCHAR
STARTCHAR 00FF
ENCODING 255
SWIDTH 495 0
DWIDTH 44 0
BBX 40 83 2 -19
BITMAP
00FF83FF00
00FF83FF00
00FF83FF00
00FF83FF00
00FF83FF00
00FF83FF00
00FF83FF00
00FF83FF00
00FF83FF00
0000000000
0000000000
0000000000
0000000000
0000000000
0000000000
0000000000
0000000000
FF000000FF
FF000000FF
7F800000FF
7F800001FE
7F800001FE
3FC00001FC
3FC00003FC
3FC00003FC
1FC00007F8
1FE00007F8
1FE00007F8
0FE0000FF0
0FF0000FF0
0FF0000FF0
07F0001FE0
07F8001FE0
07F8001FC0
03F8003FC0
03FC003FC0
03FC003F80
01FC007F80
01FE007F80
01FE007F00
00FE00FF00
00FF00FF00
00FF01FE00
007F01FE00
007F81FC00
007F83FC00
003F83FC00
003FC3F800
003FC7F800
001FC7F800
001FE7F000
001FEFF000
000FEFF000
000FFFE000
000FFFE000
0007FFC000
0007FFC000
0007FFC000
0003FF8000
0003FF8000
0003FF8000
0001FF0000
0001FF0000
0001FE0000
0001FE0000
0001FE0000
0001FC0000
0003FC0000
0003FC0000
0007F80000
0007F80000
0007F80000
000FF00000
000FF00000
001FE00000
003FE00000
1FFFE00000
1FFFC00000
1FFF800000
1FFF000000
1FFE000000
1FFC000000
0FF0000000
ENDCHAR
STARTCHAR 0100
ENCODING 256
SWIDTH 663 0
DWIDTH 59 0
BBX 56 80 2 0
BITMAP
0000FFFFFF0000
0000FFFFFF0000
0000FFFFFF0000
0000FFFFFF0000
0000FFFFFF0000
0000FFFFFF0000
00000000000000
00000000000000
00000000000000
00000000000000
00000000000000
00000000000000
00000000000000
00000000000000
00000000000000
000003FF800000
000003FFC00000
000003FFC00000
000007FFE00000
000007FFE00000
000007FFE00000
00000FFFF00000
00000FFFF00000
00000FFFF00000
00001FFFF80000
00001FEFF80000
00001FE7F80000
00003FE7FC0000
00003FC7FC0000
00007FC3FC0000
00007F83FE0000
00007F83FE0000
0000FF81FE0000
0000FF01FF0000
0000FF01FF0000
0001FF00FF0000
0001FE00FF8000
0001FE007F8000
0003FC007FC000
0003FC007FC000
0003FC003FC000
0007F8003FE000
0007F8003FE000
000FF8001FE000
000FF0001FF000
000FF0001FF000
001FF0000FF000
001FE0000FF800
001FE0000FF800
003FC00007F800
003FC00007FC00
003FC00007FC00
007F800003FC00
007FFFFFFFFE00
007FFFFFFFFE00
00FFFFFFFFFE00
00FFFFFFFFFF00
00FFFFFFFFFF00
01FFFFFFFFFF80
01FFFFFFFFFF80
03FE000000FF80
03FE0000007FC0
03FC0000007FC0
07FC0000007FC0
07FC0000003FE0
07F80000003FE0
0FF80000003FE0
0FF80000001FF0
0FF00000001FF0
1FF00000001FF0
1FF00000000FF8
1FE00000000FF8
3FE00000000FF8
3FE000000007FC
7FC000000007FC
7FC000000007FC
7F8000000003FE
FF8000000003FE
FF8000000003FF
FF0000000001FF
ENDCHAR
STARTCHAR 0101
ENCODING 257
SWIDTH 551 0
DWIDTH 49 0
BBX 44 64 4 -2
BITMAP
00FFFFFF8000
00FFFFFF8000
00FFFFFF8000
00FFFFFF8000
00FFFFFF8000
00FFFFFF8000
000000000000
000000000000
000000000000
000000000000
000000000000
000000000000
000000000000
000000000000
0001FFE00000
001FFFFC0000
007FFFFF0000
01FFFFFFC000
03FFFFFFE000
07FFFFFFF000
0FFFFFFFF800
0FFE007FF800
1FF8000FF800
1FF00007FC00
3FE00003FC00
3FC00003FC00
3FC00003FC00
3FC00001FC00
3F800001FC00
00000001FC00
00000001FC00
00000003FC00
00000003FC00
00000007FC00
0000007FFC00
00001FFFFC00
000FFFFFFC00
007FFFFFFC00
03FFFFFFFC00
07FFFFF9FC00
0FFFFF81FC00
1FFFE001FC00
3FFC0001FC00
7FE00001FC00
7FC00001FC00
FF800001FC00
FF000001FC00
FF000001FC00
FF000001FC00
FE000003FC00
FF000003FC00
FF000007FC00
FF000007FC00
FF00001FFC00
FF80003FFC00
7FC0007FFC00
7FF001FFFE00
3FFF7FFDFF00
3FFFFFF9FFF0
1FFFFFF1FFF0
0FFFFFE0FFF0
07FFFF80FFF0
01FFFE007FF0
003FF0001FC0
ENDCHAR
STARTCHAR 0102
ENCODING 258
SWIDTH 663 0
DWIDTH 59 0
BBX 56 83 2 0
BITMAP
0003F0000F8000
0001F0000F8000
0001F0001F8000
0001F8001F8000
0001FC007F0000
0001FF81FF0000
0000FFFFFE0000
00007FFFFE0000
00003FFFFC0000
00001FFFF80000
00000FFFE00000
000001FF000000
00000000000000
00000000000000
00000000000000
00000000000000
00000000000000
00000000000000
000003FF800000
000003FFC00000
000003FFC00000
000007FFE00000
000007FFE00000
000007FFE00000
00000FFFF00000
00000FFFF00000
00000FFFF00000
00001FFFF80000
00001FEFF80000
00001FE7F80000
00003FE7FC0000
00003FC7FC0000
00007FC3FC0000
00007F83FE0000
00007F83FE0000
0000FF81FE0000
0000FF01FF0000
0000FF01FF0000
0001FF00FF0000
0001FE00FF8000
0001FE007F8000
0003FC007FC000
0003FC007FC000
0003FC003FC000
0007F8003FE000
0007F8003FE000
000FF8001FE000
000FF0001FF000
000FF0001FF000
001FF0000FF000
001FE0000FF800
001FE0000FF800
003FC00007F800
003FC00007FC00
003FC00007FC00
007F800003FC00
007FFFFFFFFE00
007FFFFFFFFE00
00FFFFFFFFFE00
00FFFFFFFFFF00
00FFFFFFFFFF00
01FFFFFFFFFF80
01FFFFFFFFFF80
03FE000000FF80
03FE0000007FC0
03FC0000007FC0
07FC0000007FC0
07FC0000003FE0
07F80000003FE0
0FF80000003FE0
0FF80000001FF0
0FF00000001FF0
1FF00000001FF0
1FF00000000FF8
1FE00000000FF8
3FE00000000FF8
3FE000000007FC
7FC000000007FC
7FC000000007FC
7F8000000003FE
FF8000000003FE
FF8000000003FF
FF0000000001FF
ENDCHAR
STARTCHAR 0103
ENCODING 259
SWIDTH 551 0
DWIDTH 49 0
BBX 44 67 4 -2
BITMAP
01F00007C000
01F8000FC000
01F8000FC000
01FC001F8000
00FE003F8000
00FF80FF8000
007FFFFF0000
007FFFFE0000
003FFFFC0000
001FFFF80000
0007FFF00000
0000FF800000
000000000000
000000000000
000000000000
000000000000
000000000000
0001FFE00000
001FFFFC0000
007FFFFF0000
01FFFFFFC000
03FFFFFFE000
07FFFFFFF000
0FFFFFFFF800
0FFE007FF800
1FF8000FF800
1FF00007FC00
3FE00003FC00
3FC00003FC00
3FC00003FC00
3FC00001FC00
3F800001FC00
00000001FC00
00000001FC00
00000003FC00
00000003FC00
00000007FC00
0000007FFC00
00001FFFFC00
000FFFFFFC00
007FFFFFFC00
03FFFFFFFC00
07FFFFF9FC00
0FFFFF81FC00
1FFFE001FC00
3FFC0001FC00
7FE00001FC00
7FC00001FC00
FF800001FC00
FF000001FC00
FF000001FC00
FF000001FC00
FE000003FC00
FF000003FC00
FF000007FC00
FF000007FC00
FF00001FFC00
FF80003FFC00
7FC0007FFC00
7FF001FFFE00
3FFF7FFDFF00
3FFFFFF9FFF0
1FFFFFF1FFF0
0FFFFFE0FFF0
07FFFF80FFF0
01FFFE007FF0
003FF0001FC0
ENDCHAR
STARTCHAR 0104
ENCODING 260
SWIDTH 663 0
DWIDTH 59 0
BBX 60 83 2 -18
BITMAP
000003FF80000000
000003FFC0000000
000003FFC0000000
000007FFE0000000
000007FFE0000000
000007FFE0000000
00000FFFF0000000
00000FFFF0000000
00000FFFF0000000
00001FFFF8000000
00001FEFF8000000
00001FE7F8000000
00003FE7FC000000
00003FC7FC000000
00007FC3FC000000
00007F83FE000000
00007F83FE000000
0000FF81FE000000
0000FF01FF000000
0000FF01FF000000
0001FF00FF000000
0001FE00FF800000
0001FE007F800000
0003FC007FC00000
0003FC007FC00000
0003FC003FC00000
0007F8003FE00000
0007F8003FE00000
000FF8001FE00000
000FF0001FF00000
000FF0001FF00000
001FF0000FF00000
001FE0000FF80000
001FE0000FF80000
003FC00007F80000
003FC00007FC0000
003FC00007FC0000
007F800003FC0000
007FFFFFFFFE0000
007FFFFFFFFE0000
00FFFFFFFFFE0000
00FFFFFFFFFF0000
00FFFFFFFFFF0000
01FFFFFFFFFF8000
01FFFFFFFFFF8000
03FE000000FF8000
03FE0000007FC000
03FC0000007FC000
07FC0000007FC000
07FC0000003FE000
07F80000003FE000
0FF80000003FE000
0FF80000001FF000
0FF00000001FF000
1FF00000001FF000
1FF00000000FF800
1FE00000000FF800
3FE00000000FF800
3FE000000007FC00
7FC000000007FC00
7FC000000007FC00
7F8000000003FE00
FF8000000003FE00
FF8000000003FF00
FF0000000001FF00
0000000000007E00
000000000001F800
000000000007F000
00000000000FC000
00000000001F8000
00000000003F8000
00000000003F0000
00000000007F0000
00000000007F0000
00000000007F0000
00000000007F0000
00000000007F0000
00000000003F8000
00000000003FE030
00000000001FFFF0
00000000000FFFF0
000000000003FFF0
0000000000007F80
ENDCHAR
STARTCHAR 0105
ENCODING 261
SWIDTH 551 0
DWIDTH 49 0
BBX 49 66 4 -18
BITMAP
0001FFE0000000
001FFFFC000000
007FFFFF800000
01FFFFFFC00000
03FFFFFFE00000
07FFFFFFF00000
0FFFFFFFF80000
0FFE007FF80000
1FF8000FF80000
1FF00007FC0000
1FE00003FC0000
3FC00003FC0000
3FC00001FC0000
3FC00001FC0000
3FC00001FC0000
00000001FC0000
00000001FC0000
00000003FC0000
00000003FC0000
00000007FC0000
0000003FFC0000
00001FFFFC0000
000FFFFFFC0000
007FFFFFFC0000
01FFFFFFFC0000
07FFFFF9FC0000
0FFFFF81FC0000
1FFFE001FC0000
3FFC0001FC0000
7FE00001FC0000
7FC00001FC0000
7F800001FC0000
FF000001FC0000
FF000001FC0000
FF000001FC0000
FE000003FC0000
FF000003FC0000
FF000007FC0000
FF000007FC0000
FF00001FFC0000
FF80003FFC0000
7FC0007FFC0000
7FF001FFFE0000
3FFF7FFFFF0000
3FFFFFF9FFF000
1FFFFFF1FFF000
0FFFFFE0FFF000
03FFFF80FFF000
01FFFE007FF000
003FF0001FE000
000000000F8000
000000003F0000
000000007E0000
00000000FC0000
00000001F80000
00000001F80000
00000001F80000
00000001F80000
00000001F80000
00000001F80000
00000001FC0000
00000001FF0080
00000000FFFF80
000000007FFF80
000000001FFF80
0000000003FE00
ENDCHAR
STARTCHAR 0106
ENCODING 262
SWIDTH 720 0
DWIDTH 64 0
BBX 56 86 4 -2
BITMAP
00000000FFC000
00000001FF8000
00000001FF0000
00000003FE0000
00000007FC0000
00000007F80000
0000000FF00000
0000001FE00000
0000001FC00000
0000003F800000
0000003F000000
0000007E000000
000000FC000000
000000F8000000
00000000000000
00000000000000
00000000000000
00000000000000
000000FFF00000
00000FFFFF0000
00007FFFFFE000
0001FFFFFFF000
0003FFFFFFFC00
000FFFFFFFFE00
001FFFFFFFFF00
003FFFE0FFFF80
007FFC0007FFC0
00FFF00001FFE0
01FFC000007FE0
01FF8000003FF0
03FF0000001FF0
07FE0000001FF8
07FC0000000FF8
0FF800000007F8
0FF800000007FC
1FF000000007FC
1FF000000003FC
1FE000000003FE
3FE000000003FE
3FC00000000000
3FC00000000000
3FC00000000000
7FC00000000000
7F800000000000
7F800000000000
7F800000000000
7F800000000000
7F800000000000
FF800000000000
FF800000000000
FF800000000000
FF800000000000
FF800000000000
FF800000000000
FF800000000000
FF800000000000
FF800000000000
7F800000000000
7F800000000000
7F800000000000
7F8000000000FF
7FC000000001FF
7FC000000001FF
3FC000000001FF
3FE000000001FF
3FE000000001FE
3FE000000003FE
1FF000000003FE
1FF000000003FE
0FF800000007FC
0FFC00000007FC
07FC0000000FF8
07FE0000001FF8
03FF0000001FF8
03FF8000003FF0
01FFE00000FFE0
00FFF00001FFE0
007FFE0007FFC0
003FFFE07FFF80
001FFFFFFFFF00
000FFFFFFFFE00
0007FFFFFFFC00
0001FFFFFFF000
00007FFFFFC000
00001FFFFF0000
000001FFF00000
ENDCHAR
STARTCHAR 0107
ENCODING 263
SWIDTH 495 0
DWIDTH 44 0
BBX 39 68 3 -2
BITMAP
000001FF80
000001FF00
000003FE00
000007FC00
000007F800
00000FF000
00001FE000
00001FC000
00003F8000
00007F0000
00007E0000
0000FC0000
0001F80000
0000000000
0000000000
0000000000
0000000000
0000000000
0000FF8000
0007FFF800
001FFFFE00
007FFFFF00
00FFFFFFC0
01FFFFFFE0
03FFFFFFE0
07FF00FFF0
0FFC001FF8
0FF8000FF8
1FF00007FC
1FE00003FC
3FC00003FC
3FC00001FC
7F800001FE
7F800001FE
7F800001FE
7F00000000
FF00000000
FF00000000
FF00000000
FF00000000
FF00000000
FF00000000
FF00000000
FF00000000
FF00000000
FF00000000
FF00000000
FF00000000
FF00000000
FF00000000
FF000000FE
7F800000FE
7F800001FE
7F800001FE
3FC00001FE
3FC00003FC
3FE00003FC
1FF00007FC
1FF8000FF8
0FFC001FF8
07FF807FF0
07FFFFFFE0
03FFFFFFC0
01FFFFFF80
007FFFFF00
003FFFFE00
000FFFF800
0000FF8000
ENDCHAR
STARTCHAR 0108
ENCODING 264
SWIDTH 720 0
DWIDTH 64 0
BBX 56 86 4 -2
BITMAP
0000007FC00000
000000FFC00000
000000FFE00000
000001FFE00000
000003FFF00000
000003FFF80000
000007F3F80000
00000FE1FC0000
00000FC0FE0000
00001FC07E0000
00003F803F0000
00003F001F8000
00007E001F8000
00007C000FC000
00000000000000
00000000000000
00000000000000
00000000000000
000000FFF00000
00000FFFFF0000
00007FFFFFE000
0001FFFFFFF000
0003FFFFFFFC00
000FFFFFFFFE00
001FFFFFFFFF00
003FFFE0FFFF80
007FFC0007FFC0
00FFF00001FFE0
01FFC000007FE0
01FF8000003FF0
03FF0000001FF0
07FE0000001FF8
07FC0000000FF8
0FF800000007F8
0FF800000007FC
1FF000000007FC
1FF000000003FC
1FE000000003FE
3FE000000003FE
3FC00000000000
3FC00000000000
3FC00000000000
7FC00000000000
7F800000000000
7F800000000000
7F800000000000
7F800000000000
7F800000000000
FF800000000000
FF800000000000
FF800000000000
FF800000000000
FF800000000000
FF800000000000
FF800000000000
FF800000000000
FF800000000000
7F800000000000
7F800000000000
7F800000000000
7F8000000000FF
7FC000000001FF
7FC000000001FF
3FC000000001FF
3FE000000001FF
3FE000000001FE
3FE000000003FE
1FF000000003FE
1FF000000003FE
0FF800000007FC
0FFC00000007FC
07FC0000000FF8
07FE0000001FF8
03FF0000001FF8
03FF8000003FF0
01FFE00000FFE0
00FFF00001FFE0
007FFE0007FFC0
003FFFE07FFF80
001FFFFFFFFF00
000FFFFFFFFE00
0007FFFFFFFC00
0001FFFFFFF000
00007FFFFFC000
00001FFFFF0000
000001FFF00000
ENDCHAR
STARTCHAR 0109
ENCODING 265
SWIDTH 495 0
DWIDTH 44 0
BBX 39 68 3 -2
BITMAP
0000FF8000
0000FFC000
0001FFE000
0003FFE000
0003FFF000
0007F7F000
000FE3F800
000FE1FC00
001FC0FC00
003F807E00
003F007F00
007E003F00
007C001F80
0000000000
0000000000
0000000000
0000000000
0000000000
0000FF8000
0007FFF800
001FFFFE00
007FFFFF00
00FFFFFFC0
01FFFFFFE0
03FFFFFFE0
07FF00FFF0
0FFC001FF8
0FF8000FF8
1FF00007FC
1FE00003FC
3FC00003FC
3FC00001FC
7F800001FE
7F800001FE
7F800001FE
7F00000000
FF00000000
FF00000000
FF00000000
FF00000000
FF00000000
FF00000000
FF00000000
FF00000000
FF00000000
FF00000000
FF00000000
FF00000000
FF00000000
FF00000000
FF000000FE
7F800000FE
7F800001FE
7F800001FE
3FC00001FE
3FC00003FC
3FE00003FC
1FF00007FC
1FF8000FF8
0FFC001FF8
07FF807FF0
07FFFFFFE0
03FFFFFFC0
01FFFFFF80
007FFFFF00
003FFFFE00
000FFFF800
0000FF8000
ENDCHAR
STARTCHAR 010A
ENCODING 266
SWIDTH 720 0
DWIDTH 64 0
BBX 56 83 4 -2
BITMAP
0000007FE00000
0000007FE00000
0000007FE00000
0000007FE00000
0000007FE00000
0000007FE00000
0000007FE00000
0000007FE00000
0000007FE00000
00000000000000
00000000000000
00000000000000
00000000000000
00000000000000
00000000000000
000000FFF00000
00000FFFFF0000
00007FFFFFE000
0001FFFFFFF000
0003FFFFFFFC00
000FFFFFFFFE00
001FFFFFFFFF00
003FFFE0FFFF80
007FFC0007FFC0
00FFF00001FFE0
01FFC000007FE0
01FF8000003FF0
03FF0000001FF0
07FE0000001FF8
07FC0000000FF8
0FF800000007F8
0FF800000007FC
1FF000000007FC
1FF000000003FC
1FE000000003FE
3FE000000003FE
3FC00000000000
3FC00000000000
3FC00000000000
7FC00000000000
7F800000000000
7F800000000000
7F800000000000
7F800000000000
7F800000000000
FF800000000000
FF800000000000
FF800000000000
FF800000000000
FF800000000000
FF800000000000
FF800000000000
FF800000000000
FF800000000000
7F800000000000
7F800000000000
7F800000000000
7F8000000000FF
7FC000000001FF
7FC000000001FF
3FC000000001FF
3FE000000001FF
3FE000000001FE
3FE000000003FE
1FF000000003FE
1FF000000003FE
0FF800000007FC
0FFC00000007FC
07FC0000000FF8
07FE0000001FF8
03FF0000001FF8
03FF8000003FF0
01FFE00000FFE0
00FFF00001FFE0
007FFE0007FFC0
003FFFE07FFF80
001FFFFFFFFF00
000FFFFFFFFE00
0007FFFFFFFC00
0001FFFFFFF000
00007FFFFFC000
00001FFFFF0000
000001FFF00000
ENDCHAR
STARTCHAR 010B
ENCODING 267
SWIDTH 495 0
DWIDTH 44 0
BBX 39 66 3 -2
BITMAP
0000FF8000
0000FF8000
0000FF8000
0000FF8000
0000FF8000
0000FF8000
0000FF8000
0000FF8000
0000FF8000
0000000000
0000000000
0000000000
0000000000
0000000000
0000000000
0000000000
0000FF8000
0007FFF800
001FFFFE00
007FFFFF00
00FFFFFFC0
01FFFFFFE0
03FFFFFFE0
07FF00FFF0
0FFC001FF8
0FF8000FF8
1FF00007FC
1FE00003FC
3FC00003FC
3FC00001FC
7F800001FE
7F800001FE
7F800001FE
7F00000000
FF00000000
FF00000000
FF00000000
FF00000000
FF00000000
FF00000000
FF00000000
FF00000000
FF00000000
FF00000000
FF00000000
FF00000000
FF00000000
FF00000000
FF000000FE
7F800000FE
7F800001FE
7F800001FE
3FC00001FE
3FC00003FC
3FE00003FC
1FF00007FC
1FF8000FF8
0FFC001FF8
07FF807FF0
07FFFFFFE0
03FFFFFFC0
01FFFFFF80
007FFFFF00
003FFFFE00
000FFFF800
0000FF8000
ENDCHAR
STARTCHAR 010C
ENCODING 268
SWIDTH 720 0
DWIDTH 64 0
BBX 56 86 4 -2
BITMAP
00007E0007C000
00003F000FC000
00003F801F8000
00001F803F8000
00000FC07F0000
00000FE07E0000
000007F0FE0000
000003F9FC0000
000003FFF80000
000001FFF80000
000000FFF00000
000000FFE00000
0000007FE00000
0000003FC00000
00000000000000
00000000000000
00000000000000
00000000000000
000000FFF00000
00000FFFFF0000
00007FFFFFE000
0001FFFFFFF000
0003FFFFFFFC00
000FFFFFFFFE00
001FFFFFFFFF00
003FFFE0FFFF80
007FFC0007FFC0
00FFF00001FFE0
01FFC000007FE0
01FF8000003FF0
03FF0000001FF0
07FE0000001FF8
07FC0000000FF8
0FF800000007F8
0FF800000007FC
1FF000000007FC
1FF000000003FC
1FE000000003FE
3FE000000003FE
3FC00000000000
3FC00000000000
3FC00000000000
7FC00000000000
7F800000000000
7F800000000000
7F800000000000
7F800000000000
7F800000000000
FF800000000000
FF800000000000
FF800000000000
FF800000000000
FF800000000000
FF800000000000
FF800000000000
FF800000000000
FF800000000000
7F800000000000
7F800000000000
7F800000000000
7F8000000000FF
7FC000000001FF
7FC000000001FF
3FC000000001FF
3FE000000001FF
3FE000000001FE
3FE000000003FE
1FF000000003FE
1FF000000003FE
0FF800000007FC
0FFC00000007FC
07FC0000000FF8
07FE0000001FF8
03FF0000001FF8
03FF8000003FF0
01FFE00000FFE0
00FFF00001FFE0
007FFE0007FFC0
003FFFE07FFF80
001FFFFFFFFF00
000FFFFFFFFE00
0007FFFFFFFC00
0001FFFFFFF000
00007FFFFFC000
00001FFFFF0000
000001FFF00000
ENDCHAR
STARTCHAR 010D
ENCODING 269
SWIDTH 495 0
DWIDTH 44 0
BBX 39 68 3 -2
BITMAP
00FC001F80
007E003F00
007F003F00
003F007E00
001F80FC00
001FC1FC00
000FE3F800
0007F3F800
0007FFF000
0003FFE000
0001FFE000
0001FFC000
0000FF8000
0000000000
0000000000
0000000000
0000000000
0000000000
0000FF8000
0007FFF800
001FFFFE00
007FFFFF00
00FFFFFFC0
01FFFFFFE0
03FFFFFFE0
07FF00FFF0
0FFC001FF8
0FF8000FF8
1FF00007FC
1FE00003FC
3FC00003FC
3FC00001FC
7F800001FE
7F800001FE
7F800001FE
7F00000000
FF00000000
FF00000000
FF00000000
FF00000000
FF00000000
FF00000000
FF00000000
FF00000000
FF00000000
FF00000000
FF00000000
FF00000000
FF00000000
FF00000000
FF000000FE
7F800000FE
7F800001FE
7F800001FE
3FC00001FE
3FC00003FC
3FE00003FC
1FF00007FC
1FF8000FF8
0FFC001FF8
07FF807FF0
07FFFFFFE0
03FFFFFFC0
01FFFFFF80
007FFFFF00
003FFFFE00
000FFFF800
0000FF8000
ENDCHAR
STARTCHAR 010E
ENCODING 270
SWIDTH 720 0
DWIDTH 64 0
BBX 51 84 8 0
BITMAP
007E0007E00000
003F000FC00000
001F801F800000
001FC03F800000
000FC03F000000
0007E07E000000
0007F0FE000000
0003F9FC000000
0001FFFC000000
0001FFF8000000
0000FFF0000000
00007FF0000000
00007FE0000000
00003FC0000000
00000000000000
00000000000000
00000000000000
00000000000000
00000000000000
FFFFFFFC000000
FFFFFFFFC00000
FFFFFFFFF80000
FFFFFFFFFC0000
FFFFFFFFFF0000
FFFFFFFFFF8000
FFFFFFFFFFC000
FF00003FFFE000
FF000001FFF000
FF0000007FF800
FF0000001FFC00
FF0000000FFC00
FF00000007FE00
FF00000003FE00
FF00000001FF00
FF00000001FF00
FF00000000FF80
FF00000000FF80
FF000000007F80
FF000000007FC0
FF000000007FC0
FF000000003FC0
FF000000003FC0
FF000000003FE0
FF000000003FE0
FF000000001FE0
FF000000001FE0
FF000000001FE0
FF000000001FE0
FF000000001FE0
FF000000001FE0
FF000000001FE0
FF000000001FE0
FF000000001FE0
FF000000001FE0
FF000000001FE0
FF000000001FE0
FF000000001FE0
FF000000001FE0
FF000000001FE0
FF000000003FE0
FF000000003FE0
FF000000003FC0
FF000000003FC0
FF000000007FC0
FF000000007FC0
FF000000007F80
FF00000000FF80
FF00000000FF80
FF00000001FF00
FF00000001FF00
FF00000003FE00
FF00000007FE00
FF0000000FFC00
FF0000001FFC00
FF0000007FF800
FF000001FFF000
FF00003FFFE000
FFFFFFFFFFC000
FFFFFFFFFF8000
FFFFFFFFFF0000
FFFFFFFFFC0000
FFFFFFFFF00000
FFFFFFFFC00000
FFFFFFFC000000
ENDCHAR
STARTCHAR 010F
ENCODING 271
SWIDTH 641 0
DWIDTH 57 0
BBX 56 67 2 -2
BITMAP
000000001FC1FF
000000001FC1FF
000000001FC1FF
000000001FC1FF
000000001FC1FF
000000001FC1FF
000000001FC1FF
000000001FC1FF
000000001FC1FF
000000001FC00F
000000001FC00F
000000001FC00E
000000001FC01E
000000001FC01E
000000001FC01E
000000001FC03C
000000001FC0FC
0000FF801FC1F8
0007FFF01FC1F0
001FFFFC1FC1C0
007FFFFE1FC000
00FFFFFF1FC000
01FFFFFF9FC000
03FFFFFFDFC000
07FFC07FFFC000
07FF001FFFC000
0FFC0007FFC000
1FF80003FFC000
1FF00001FFC000
3FE00000FFC000
3FE00000FFC000
3FC000007FC000
7FC000007FC000
7F8000007FC000
7F8000003FC000
7F8000003FC000
7F8000003FC000
7F0000003FC000
FF0000003FC000
FF0000001FC000
FF0000001FC000
FF0000001FC000
FF0000001FC000
FF0000001FC000
FF0000001FC000
FF0000003FC000
7F0000003FC000
7F8000003FC000
7F8000003FC000
7F8000003FC000
7F8000007FC000
3FC000007FC000
3FC000007FC000
3FE00000FFC000
3FE00000FFC000
1FF00001FFC000
1FF80003FFC000
0FFC0007FFC000
07FF000FFFC000
07FFC07FFFC000
03FFFFFFDFC000
01FFFFFF9FC000
00FFFFFF1FC000
007FFFFE1FC000
001FFFFC1FC000
0007FFF0000000
0000FF80000000
ENDCHAR
STARTCHAR 0110
ENCODING 272
SWIDTH 720 0
DWIDTH 64 0
BBX 57 65 2 0
BITMAP
03FFFFFFF0000000
03FFFFFFFF000000
03FFFFFFFFE00000
03FFFFFFFFF00000
03FFFFFFFFFC0000
03FFFFFFFFFE0000
03FFFFFFFFFF0000
03FC0000FFFF8000
03FC000007FFC000
03FC000001FFE000
03FC0000007FF000
03FC0000003FF000
03FC0000001FF800
03FC0000000FF800
03FC00000007FC00
03FC00000007FC00
03FC00000003FE00
03FC00000003FE00
03FC00000001FE00
03FC00000001FF00
03FC00000001FF00
03FC00000000FF00
03FC00000000FF00
03FC00000000FF80
03FC00000000FF80
03FC000000007F80
03FC000000007F80
03FC000000007F80
03FC000000007F80
FFFFFFF800007F80
FFFFFFF800007F80
FFFFFFF800007F80
FFFFFFF800007F80
FFFFFFF800007F80
FFFFFFF800007F80
03FC000000007F80
03FC000000007F80
03FC000000007F80
03FC000000007F80
03FC000000007F80
03FC00000000FF80
03FC00000000FF80
03FC00000000FF00
03FC00000000FF00
03FC00000000FF00
03FC00000001FF00
03FC00000001FE00
03FC00000003FE00
03FC00000003FE00
03FC00000007FC00
03FC00000007FC00
03FC0000000FF800
03FC0000001FF800
03FC0000003FF000
03FC0000007FF000
03FC000001FFE000
03FC000007FFC000
03FC0000FFFF8000
03FFFFFFFFFF0000
03FFFFFFFFFE0000
03FFFFFFFFFC0000
03FFFFFFFFF00000
03FFFFFFFFE00000
03FFFFFFFF000000
03FFFFFFF0000000
ENDCHAR
STARTCHAR 0111
ENCODING 273
SWIDTH 551 0
DWIDTH 49 0
BBX 48 67 2 -2
BITMAP
000000001FC0
000000001FC0
000000001FC0
000000001FC0
000000001FC0
000000001FC0
000000001FC0
000007FFFFFF
000007FFFFFF
000007FFFFFF
000007FFFFFF
000007FFFFFF
000000001FC0
000000001FC0
000000001FC0
000000001FC0
000000001FC0
0000FF801FC0
0007FFF01FC0
001FFFFC1FC0
007FFFFE1FC0
00FFFFFF1FC0
01FFFFFF9FC0
03FFFFFFDFC0
07FFF1FFFFC0
07FF001FFFC0
0FFC000FFFC0
1FF80003FFC0
1FF00003FFC0
3FE00001FFC0
3FE00000FFC0
3FC00000FFC0
7FC000007FC0
7F8000007FC0
7F8000003FC0
7F8000003FC0
7F8000003FC0
7F0000003FC0
FF0000003FC0
FF0000003FC0
FF0000001FC0
FF0000001FC0
FF0000001FC0
FF0000001FC0
FF0000003FC0
7F0000003FC0
7F0000003FC0
7F8000003FC0
7F8000003FC0
7F8000003FC0
7F8000007FC0
3FC000007FC0
3FC00000FFC0
3FE00000FFC0
1FF00001FFC0
1FF00001FFC0
0FF80003FFC0
0FFE0007FFC0
07FF001FFFC0
07FFF0FFFFC0
03FFFFFFFFC0
01FFFFFFDFC0
00FFFFFF9FC0
007FFFFE1FC0
001FFFFC1FC0
0007FFF00000
0000FF800000
ENDCHAR
STARTCHAR 0112
ENCODING 274
SWIDTH 663 0
DWIDTH 59 0
BBX 46 80 8 0
BITMAP
003FFFFFE000
003FFFFFE000
003FFFFFE000
003FFFFFE000
003FFFFFE000
003FFFFFE000
000000000000
000000000000
000000000000
000000000000
000000000000
000000000000
000000000000
000000000000
000000000000
FFFFFFFFFFF8
FFFFFFFFFFF8
FFFFFFFFFFF8
FFFFFFFFFFF8
FFFFFFFFFFF8
FFFFFFFFFFF8
FFFFFFFFFFF8
FF0000000000
FF0000000000
FF0000000000
FF0000000000
FF0000000000
FF0000000000
FF0000000000
FF0000000000
FF0000000000
FF0000000000
FF0000000000
FF0000000000
FF0000000000
FF0000000000
FF0000000000
FF0000000000
FF0000000000
FF0000000000
FF0000000000
FF0000000000
FF0000000000
FFFFFFFFFFF0
FFFFFFFFFFF0
FFFFFFFFFFF0
FFFFFFFFFFF0
FFFFFFFFFFF0
FFFFFFFFFFF0
FFFFFFFFFFF0
FF0000000000
FF0000000000
FF0000000000
FF0000000000
FF0000000000
FF0000000000
FF0000000000
FF0000000000
FF0000000000
FF0000000000
FF0000000000
FF0000000000
FF0000000000
FF0000000000
FF0000000000
FF0000000000
FF0000000000
FF0000000000
FF0000000000
FF0000000000
FF0000000000
FF0000000000
FF0000000000
FFFFFFFFFFFC
FFFFFFFFFFFC
FFFFFFFFFFFC
FFFFFFFFFFFC
FFFFFFFFFFFC
FFFFFFFFFFFC
FFFFFFFFFFFC
ENDCHAR
STARTCHAR 0113
ENCODING 275
SWIDTH 551 0
DWIDTH 49 0
BBX 42 64 4 -2
BITMAP
007FFFFFC000
007FFFFFC000
007FFFFFC000
007FFFFFC000
007FFFFFC000
007FFFFFC000
000000000000
000000000000
000000000000
000000000000
000000000000
000000000000
000000000000
000000000000
0000FFC00000
0007FFF80000
001FFFFE0000
007FFFFF8000
00FFFFFFC000
01FFFFFFE000
03FFFFFFF000
07FF807FF800
0FFC001FFC00
1FF80007FC00
1FF00003FE00
3FE00001FE00
3FC00001FF00
3FC00000FF00
7F800000FF00
7F8000007F80
7F0000007F80
FF0000007F80
FF0000007F80
FF0000003F80
FF0000003F80
FFFFFFFFFFC0
FFFFFFFFFFC0
FFFFFFFFFFC0
FFFFFFFFFFC0
FFFFFFFFFFC0
FFFFFFFFFFC0
FE0000000000
FE0000000000
FE0000000000
FF0000000000
FF0000000000
FF0000000000
FF0000000000
7F0000007F00
7F8000007F00
7F800000FF00
3FC00001FF00
3FE00001FE00
1FF00003FE00
1FF80007FC00
0FFC000FFC00
0FFF807FF800
07FFFFFFF000
03FFFFFFE000
01FFFFFFC000
007FFFFF8000
003FFFFE0000
000FFFF80000
0000FFC00000
ENDCHAR
STARTCHAR 0114
ENCODING 276
SWIDTH 663 0
DWIDTH 59 0
BBX 46 83 8 0
BITMAP
007E0001F000
007E0001F000
007E0003F000
003F0007E000
003F800FE000
003FE03FE000
001FFFFFC000
000FFFFF8000
000FFFFF8000
0003FFFE0000
0001FFFC0000
00003FE00000
000000000000
000000000000
000000000000
000000000000
000000000000
000000000000
FFFFFFFFFFF8
FFFFFFFFFFF8
FFFFFFFFFFF8
FFFFFFFFFFF8
FFFFFFFFFFF8
FFFFFFFFFFF8
FFFFFFFFFFF8
FF0000000000
FF0000000000
FF0000000000
FF0000000000
FF0000000000
FF0000000000
FF0000000000
FF0000000000
FF0000000000
FF0000000000
FF0000000000
FF0000000000
FF0000000000
FF0000000000
FF0000000000
FF0000000000
FF0000000000
FF0000000000
FF0000000000
FF0000000000
FF0000000000
FFFFFFFFFFF0
FFFFFFFFFFF0
FFFFFFFFFFF0
FFFFFFFFFFF0
FFFFFFFFFFF0
FFFFFFFFFFF0
FFFFFFFFFFF0
FF0000000000
FF0000000000
FF0000000000
FF0000000000
FF0000000000
FF0000000000
FF0000000000
FF0000000000
FF0000000000
FF0000000000
FF0000000000
FF0000000000
FF0000000000
FF0000000000
FF0000000000
FF0000000000
FF0000000000
FF0000000000
FF0000000000
FF0000000000
FF0000000000
FF0000000000
FF0000000000
FFFFFFFFFFFC
FFFFFFFFFFFC
FFFFFFFFFFFC
FFFFFFFFFFFC
FFFFFFFFFFFC
FFFFFFFFFFFC
FFFFFFFFFFFC
ENDCHAR
STARTCHAR 0115
ENCODING 277
SWIDTH 551 0
DWIDTH 49 0
BBX 42 67 4 -2
BITMAP
00F80003E000
00FC0007E000
00FC0007E000
00FE000FC000
007F001FC000
007FC07FC000
003FFFFF8000
003FFFFF0000
001FFFFE0000
0007FFFC0000
0003FFF80000
00007FC00000
000000000000
000000000000
000000000000
000000000000
000000000000
0000FFC00000
0007FFF80000
001FFFFE0000
007FFFFF8000
00FFFFFFC000
01FFFFFFE000
03FFFFFFF000
07FF807FF800
0FFC001FFC00
1FF80007FC00
1FF00003FE00
3FE00001FE00
3FC00001FF00
3FC00000FF00
7F800000FF00
7F8000007F80
7F0000007F80
FF0000007F80
FF0000007F80
FF0000003F80
FF0000003F80
FFFFFFFFFFC0
FFFFFFFFFFC0
FFFFFFFFFFC0
FFFFFFFFFFC0
FFFFFFFFFFC0
FFFFFFFFFFC0
FE0000000000
FE0000000000
FE0000000000
FF0000000000
FF0000000000
FF0000000000
FF0000000000
7F0000007F00
7F8000007F00
7F800000FF00
3FC00001FF00
3FE00001FE00
1FF00003FE00
1FF80007FC00
0FFC000FFC00
0FFF807FF800
07FFFFFFF000
03FFFFFFE000
01FFFFFFC000
007FFFFF8000
003FFFFE0000
000FFFF80000
0000FFC00000
ENDCHAR
STARTCHAR 0116
ENCODING 278
SWIDTH 663 0
DWIDTH 59 0
BBX 46 81 8 0
BITMAP
00003FE00000
00003FE00000
00003FE00000
00003FE00000
00003FE00000
00003FE00000
00003FE00000
00003FE00000
00003FE00000
000000000000
000000000000
000000000000
000000000000
000000000000
000000000000
000000000000
FFFFFFFFFFF8
FFFFFFFFFFF8
FFFFFFFFFFF8
FFFFFFFFFFF8
FFFFFFFFFFF8
FFFFFFFFFFF8
FFFFFFFFFFF8
FF0000000000
FF0000000000
FF0000000000
FF0000000000
FF0000000000
FF0000000000
FF0000000000
FF0000000000
FF0000000000
FF0000000000
FF0000000000
FF0000000000
FF0000000000
FF0000000000
FF0000000000
FF0000000000
FF0000000000
FF0000000000
FF0000000000
FF0000000000
FF0000000000
FFFFFFFFFFF0
FFFFFFFFFFF0
FFFFFFFFFFF0
FFFFFFFFFFF0
FFFFFFFFFFF0
FFFFFFFFFFF0
FFFFFFFFFFF0
FF0000000000
FF0000000000
FF0000000000
FF0000000000
FF0000000000
FF0000000000
FF0000000000
FF0000000000
FF0000000000
FF0000000000
FF0000000000
FF0000000000
FF0000000000
FF0000000000
FF0000000000
FF0000000000
FF0000000000
FF0000000000
FF0000000000
FF0000000000
FF0000000000
FF0000000000
FF0000000000
FFFFFFFFFFFC
FFFFFFFFFFFC
FFFFFFFFFFFC
FFFFFFFFFFFC
FFFFFFFFFFFC
FFFFFFFFFFFC
FFFFFFFFFFFC
ENDCHAR
STARTCHAR 0117
ENCODING 279
SWIDTH 551 0
DWIDTH 49 0
BBX 42 66 4 -2
BITMAP
00007FC00000
00007FC00000
00007FC00000
00007FC00000
00007FC00000
00007FC00000
00007FC00000
00007FC00000
00007FC00000
000000000000
000000000000
000000000000
000000000000
000000000000
000000000000
000000000000
0000FFC00000
0007FFF80000
001FFFFE0000
007FFFFF8000
00FFFFFFC000
01FFFFFFE000
03FFFFFFF000
07FF807FF800
0FFC001FFC00
1FF80007FC00
1FF00003FE00
3FE00001FE00
3FC00001FF00
3FC00000FF00
7F800000FF00
7F8000007F80
7F0000007F80
FF0000007F80
FF0000007F80
FF0000003F80
FF0000003F80
FFFFFFFFFFC0
FFFFFFFFFFC0
FFFFFFFFFFC0
FFFFFFFFFFC0
FFFFFFFFFFC0
FFFFFFFFFFC0
FE0000000000
FE0000000000
FE0000000000
FF0000000000
FF0000000000
FF0000000000
FF0000000000
7F0000007F00
7F8000007F00
7F800000FF00
3FC00001FF00
3FE00001FE00
1FF00003FE00
1FF80007FC00
0FFC000FFC00
0FFF807FF800
07FFFFFFF000
03FFFFFFE000
01FFFFFFC000
007FFFFF8000
003FFFFE0000
000FFFF80000
0000FFC00000
ENDCHAR
STARTCHAR 0118
ENCODING 280
SWIDTH 663 0
DWIDTH 59 0
BBX 50 83 8 -18
BITMAP
FFFFFFFFFFF800
FFFFFFFFFFF800
FFFFFFFFFFF800
FFFFFFFFFFF800
FFFFFFFFFFF800
FFFFFFFFFFF800
FFFFFFFFFFF800
FF000000000000
FF000000000000
FF000000000000
FF000000000000
FF000000000000
FF000000000000
FF000000000000
FF000000000000
FF000000000000
FF000000000000
FF000000000000
FF000000000000
FF000000000000
FF000000000000
FF000000000000
FF000000000000
FF000000000000
FF000000000000
FF000000000000
FF000000000000
FF000000000000
FFFFFFFFFFF000
FFFFFFFFFFF000
FFFFFFFFFFF000
FFFFFFFFFFF000
FFFFFFFFFFF000
FFFFFFFFFFF000
FFFFFFFFFFF000
FF000000000000
FF000000000000
FF000000000000
FF000000000000
FF000000000000
FF000000000000
FF000000000000
FF000000000000
FF000000000000
FF000000000000
FF000000000000
FF000000000000
FF000000000000
FF000000000000
FF000000000000
FF000000000000
FF000000000000
FF000000000000
FF000000000000
FF000000000000
FF000000000000
FF000000000000
FF000000000000
FFFFFFFFFFFC00
FFFFFFFFFFFC00
FFFFFFFFFFFC00
FFFFFFFFFFFC00
FFFFFFFFFFFC00
FFFFFFFFFFFC00
FFFFFFFFFFFC00
0000000001F800
0000000007F000
000000000FC000
000000003F8000
000000007F0000
000000007E0000
00000000FE0000
00000000FC0000
00000000FC0000
00000001FC0000
00000000FC0000
00000000FE0000
00000000FE0000
00000000FF8040
000000007FFFC0
000000003FFFC0
000000000FFFC0
0000000001FF00
ENDCHAR
STARTCHAR 0119
ENCODING 281
SWIDTH 551 0
DWIDTH 49 0
BBX 42 66 4 -18
BITMAP
0000FFC00000
0007FFF80000
001FFFFE0000
007FFFFF8000
00FFFFFFC000
01FFFFFFE000
03FFFFFFF000
07FF807FF800
0FFC001FFC00
0FF80007FC00
1FF00003FE00
3FE00001FE00
3FC00001FF00
3FC00000FF00
7F800000FF80
7F8000007F80
7F0000007F80
FF0000007F80
FF0000003F80
FF0000003F80
FF0000003F80
FFFFFFFFFFC0
FFFFFFFFFFC0
FFFFFFFFFFC0
FFFFFFFFFFC0
FFFFFFFFFFC0
FFFFFFFFFFC0
FE0000000000
FE0000000000
FE0000000000
FF0000000000
FF0000000000
FF0000000000
FF0000000000
7F8000007F80
7F8000007F00
7F800000FF00
3FC00000FF00
3FE00001FE00
1FF00003FE00
1FF80007FC00
0FFC000FFC00
0FFF803FF800
07FFFFFFF000
03FFFFFFE000
01FFFFFFE000
007FFFFFC000
003FFFFF8000
000FFFFF0000
0000FFDE0000
0000007C0000
000000F80000
000001F80000
000003F00000
000003F00000
000007E00000
000007E00000
000007E00000
000007E00000
000007F00000
000007F00000
000003FC0200
000003FFFE00
000000FFFE00
0000007FFE00
0000000FFC00
ENDCHAR
STARTCHAR 011A
ENCODING 282
SWIDTH 663 0
DWIDTH 59 0
BBX 46 84 8 0
BITMAP
003F0007E000
001F8007E000
001F800FC000
000FC01F8000
0007E03F8000
0007F07F0000
0003F87E0000
0001FCFE0000
0001FDFC0000
0000FFF80000
0000FFF80000
00007FF00000
00003FF00000
00003FE00000
000000000000
000000000000
000000000000
000000000000
000000000000
FFFFFFFFFFF8
FFFFFFFFFFF8
FFFFFFFFFFF8
FFFFFFFFFFF8
FFFFFFFFFFF8
FFFFFFFFFFF8
FFFFFFFFFFF8
FF0000000000
FF0000000000
FF0000000000
FF0000000000
FF0000000000
FF0000000000
FF0000000000
FF0000000000
FF0000000000
FF0000000000
FF0000000000
FF0000000000
FF0000000000
FF0000000000
FF0000000000
FF0000000000
FF0000000000
FF0000000000
FF0000000000
FF0000000000
FF0000000000
FFFFFFFFFFF0
FFFFFFFFFFF0
FFFFFFFFFFF0
FFFFFFFFFFF0
FFFFFFFFFFF0
FFFFFFFFFFF0
FFFFFFFFFFF0
FF0000000000
FF0000000000
FF0000000000
FF0000000000
FF0000000000
FF0000000000
FF0000000000
FF0000000000
FF0000000000
FF0000000000
FF0000000000
FF0000000000
FF0000000000
FF0000000000
FF0000000000
FF0000000000
FF0000000000
FF0000000000
FF0000000000
FF0000000000
FF0000000000
FF0000000000
FF0000000000
FFFFFFFFFFFC
FFFFFFFFFFFC
FFFFFFFFFFFC
FFFFFFFFFFFC
FFFFFFFFFFFC
FFFFFFFFFFFC
FFFFFFFFFFFC
ENDCHAR
STARTCHAR 011B
ENCODING 283
SWIDTH 551 0
DWIDTH 49 0
BBX 42 68 4 -2
BITMAP
007E000FC000
003F001F8000
003F003F8000
001F803F0000
000FC07E0000
000FE0FE0000
0007F1FC0000
0007FBF80000
0003FBF80000
0001FFF00000
0001FFF00000
0000FFE00000
00007FC00000
000000000000
000000000000
000000000000
000000000000
000000000000
0000FFC00000
0007FFF80000
001FFFFE0000
007FFFFF8000
00FFFFFFC000
01FFFFFFE000
03FFFFFFF000
07FF807FF800
0FFC001FFC00
1FF80007FC00
1FF00003FE00
3FE00001FE00
3FC00001FF00
3FC00000FF00
7F800000FF00
7F8000007F80
7F0000007F80
FF0000007F80
FF0000007F80
FF0000003F80
FF0000003F80
FFFFFFFFFFC0
FFFFFFFFFFC0
FFFFFFFFFFC0
FFFFFFFFFFC0
FFFFFFFFFFC0
FFFFFFFFFFC0
FE0000000000
FE0000000000
FE0000000000
FF0000000000
FF0000000000
FF0000000000
FF0000000000
7F0000007F00
7F8000007F00
7F800000FF00
3FC00001FF00
3FE00001FE00
1FF00003FE00
1FF80007FC00
0FFC000FFC00
0FFF807FF800
07FFFFFFF000
03FFFFFFE000
01FFFFFFC000
007FFFFF8000
003FFFFE0000
000FFFF80000
0000FFC00000
ENDCHAR
STARTCHAR 011C
ENCODING 284
SWIDTH 776 0
DWIDTH 69 0
BBX 59 86 4 -2
BITMAP
0000003FE0000000
0000007FE0000000
0000007FF0000000
000000FFF8000000
000001FFF8000000
000001FDFC000000
000003F9FC000000
000007F0FE000000
000007F07F000000
00000FE03F000000
00000FC01F800000
00001F800FC00000
00003F000FC00000
00003E0007E00000
0000000000000000
0000000000000000
0000000000000000
0000000000000000
0000007FF8000000
00000FFFFFC00000
00003FFFFFF00000
0000FFFFFFFC0000
0003FFFFFFFF0000
0007FFFFFFFF8000
001FFFFFFFFFE000
003FFFF83FFFF000
007FFE0001FFF800
00FFF800007FF800
00FFE000001FFC00
01FFC000000FFE00
03FF00000007FE00
07FE00000003FF00
07FC00000001FF00
0FFC00000000FF80
0FF800000000FF80
1FF0000000007F80
1FF0000000007FC0
3FE0000000007FC0
3FE0000000003FC0
3FC0000000000000
3FC0000000000000
7FC0000000000000
7F80000000000000
7F80000000000000
7F80000000000000
FF80000000000000
FF80000000000000
FF00000000000000
FF00000000000000
FF00000000000000
FF000000FFFFFFE0
FF000000FFFFFFE0
FF000000FFFFFFE0
FF000000FFFFFFE0
FF000000FFFFFFE0
FF000000FFFFFFE0
FF800000FFFFFFE0
FF80000000000FE0
FF80000000000FE0
FF80000000000FE0
7F80000000000FE0
7FC0000000000FE0
7FC0000000001FE0
7FC0000000001FE0
3FE0000000001FE0
3FE0000000001FE0
3FE0000000003FE0
1FF0000000003FE0
1FF0000000007FE0
0FF8000000007FE0
0FFC00000000FFE0
07FE00000000FFE0
07FE00000001FFE0
03FF00000003FFE0
01FFC000000FFFE0
01FFE000001FFFE0
00FFF800007FEFE0
007FFF0001FFCFE0
003FFFF83FFF8FE0
001FFFFFFFFF07E0
000FFFFFFFFC07E0
0003FFFFFFF807E0
0001FFFFFFE007E0
00007FFFFFC003E0
00000FFFFE000000
000000FFE0000000
ENDCHAR
STARTCHAR 011D
ENCODING 285
SWIDTH 551 0
DWIDTH 49 0
BBX 40 85 3 -19
BITMAP
00007FC000
0000FFC000
0001FFE000
0001FFF000
0003FFF000
0007FBF800
0007F1FC00
000FE1FC00
001FC0FE00
001F807F00
003F003F00
003F001F80
007E000FC0
0000000000
0000000000
0000000000
0000000000
0000000000
0001FE0000
000FFFC07F
003FFFF07F
007FFFF87F
00FFFFFC7F
01FFFFFE7F
03FFFFFF7F
07FF00FFFF
07FC003FFF
0FF8001FFF
1FF0000FFF
1FE00007FF
3FE00003FF
3FC00003FF
3FC00001FF
7F800001FF
7F800001FF
7F800001FF
7F000000FF
7F000000FF
FF000000FF
FF000000FF
FF000000FF
FF000000FF
FF000000FF
FF000000FF
FF000000FF
FF000000FF
FF000000FF
FF000000FF
FF000000FF
7F000000FF
7F800001FF
7F800001FF
7F800001FF
7FC00001FF
3FC00003FF
3FE00003FF
1FE00007FF
1FF0000FFF
0FF8001FFF
0FFC003FFF
07FF00FFFF
03FFFFFEFF
01FFFFFCFF
00FFFFF8FF
007FFFF0FF
003FFFE0FF
000FFF80FE
0001FE00FE
00000000FE
00000000FE
00000001FE
3F800001FE
3F800001FC
3FC00003FC
3FC00003FC
1FE00007F8
1FF0000FF8
1FF8001FF0
0FFE00FFE0
07FFFFFFE0
03FFFFFFC0
01FFFFFF00
00FFFFFE00
003FFFF800
0007FFC000
ENDCHAR
STARTCHAR 011E
ENCODING 286
SWIDTH 776 0
DWIDTH 69 0
BBX 59 85 4 -2
BITMAP
00003E0000F80000
00003F0001F80000
00003F0001F80000
00001F8003F00000
00001FC007F00000
00001FF01FF00000
00000FFFFFE00000
00000FFFFFC00000
000007FFFFC00000
000003FFFF000000
000000FFFE000000
0000003FF0000000
0000000000000000
0000000000000000
0000000000000000
0000000000000000
0000000000000000
0000007FF8000000
00000FFFFFC00000
00003FFFFFF00000
0000FFFFFFFC0000
0003FFFFFFFF0000
0007FFFFFFFF8000
001FFFFFFFFFE000
003FFFF83FFFF000
007FFE0001FFF800
00FFF800007FF800
00FFE000001FFC00
01FFC000000FFE00
03FF00000007FE00
07FE00000003FF00
07FC00000001FF00
0FFC00000000FF80
0FF800000000FF80
1FF0000000007F80
1FF0000000007FC0
3FE0000000007FC0
3FE0000000003FC0
3FC0000000000000
3FC0000000000000
7FC0000000000000
7F80000000000000
7F80000000000000
7F80000000000000
FF80000000000000
FF80000000000000
FF00000000000000
FF00000000000000
FF00000000000000
FF000000FFFFFFE0
FF000000FFFFFFE0
FF000000FFFFFFE0
FF000000FFFFFFE0
FF000000FFFFFFE0
FF000000FFFFFFE0
FF800000FFFFFFE0
FF80000000000FE0
FF80000000000FE0
FF80000000000FE0
7F80000000000FE0
7FC0000000000FE0
7FC0000000001FE0
7FC0000000001FE0
3FE0000000001FE0
3FE0000000001FE0
3FE0000000003FE0
1FF0000000003FE0
1FF0000000007FE0
0FF8000000007FE0
0FFC00000000FFE0
07FE00000000FFE0
07FE00000001FFE0
03FF00000003FFE0
01FFC000000FFFE0
01FFE000001FFFE0
00FFF800007FEFE0
007FFF0001FFCFE0
003FFFF83FFF8FE0
001FFFFFFFFF07E0
000FFFFFFFFC07E0
0003FFFFFFF807E0
0001FFFFFFE007E0
00007FFFFFC003E0
00000FFFFE000000
000000FFE0000000
ENDCHAR
STARTCHAR 011F
ENCODING 287
SWIDTH 551 0
DWIDTH 49 0
BBX 40 84 3 -19
BITMAP
00F80007C0
00F80007C0
00FC000FC0
00FC000FC0
00FE001F80
007FC0FF80
007FFFFF00
003FFFFF00
001FFFFE00
000FFFFC00
0003FFF000
00007F8000
0000000000
0000000000
0000000000
0000000000
0000000000
0001FE0000
000FFFC07F
003FFFF07F
007FFFF87F
00FFFFFC7F
01FFFFFE7F
03FFFFFF7F
07FF00FFFF
07FC003FFF
0FF8001FFF
1FF0000FFF
1FE00007FF
3FE00003FF
3FC00003FF
3FC00001FF
7F800001FF
7F800001FF
7F800001FF
7F000000FF
7F000000FF
FF000000FF
FF000000FF
FF000000FF
FF000000FF
FF000000FF
FF000000FF
FF000000FF
FF000000FF
FF000000FF
FF000000FF
FF000000FF
7F000000FF
7F800001FF
7F800001FF
7F800001FF
7FC00001FF
3FC00003FF
3FE00003FF
1FE00007FF
1FF0000FFF
0FF8001FFF
0FFC003FFF
07FF00FFFF
03FFFFFEFF
01FFFFFCFF
00FFFFF8FF
007FFFF0FF
003FFFE0FF
000FFF80FE
0001FE00FE
00000000FE
00000000FE
00000001FE
3F800001FE
3F800001FC
3FC00003FC
3FC00003FC
1FE00007F8
1FF0000FF8
1FF8001FF0
0FFE00FFE0
07FFFFFFE0
03FFFFFFC0
01FFFFFF00
00FFFFFE00
003FFFF800
0007FFC000
ENDCHAR
STARTCHAR 0120
ENCODING 288
SWIDTH 776 0
DWIDTH 69 0
BBX 59 83 4 -2
BITMAP
0000003FE0000000
0000003FE0000000
0000003FE0000000
0000003FE0000000
0000003FE0000000
0000003FE0000000
0000003FE0000000
0000003FE0000000
0000003FE0000000
0000000000000000
0000000000000000
0000000000000000
0000000000000000
0000000000000000
0000000000000000
0000007FF8000000
00000FFFFFC00000
00003FFFFFF00000
0000FFFFFFFC0000
0003FFFFFFFF0000
0007FFFFFFFF8000
001FFFFFFFFFE000
003FFFF83FFFF000
007FFE0001FFF800
00FFF800007FF800
00FFE000001FFC00
01FFC000000FFE00
03FF00000007FE00
07FE00000003FF00
07FC00000001FF00
0FFC00000000FF80
0FF800000000FF80
1FF0000000007F80
1FF0000000007FC0
3FE0000000007FC0
3FE0000000003FC0
3FC0000000000000
3FC0000000000000
7FC0000000000000
7F80000000000000
7F80000000000000
7F80000000000000
FF80000000000000
FF80000000000000
FF00000000000000
FF00000000000000
FF00000000000000
FF000000FFFFFFE0
FF000000FFFFFFE0
FF000000FFFFFFE0
FF000000FFFFFFE0
FF000000FFFFFFE0
FF000000FFFFFFE0
FF800000FFFFFFE0
FF80000000000FE0
FF80000000000FE0
FF80000000000FE0
7F80000000000FE0
7FC0000000000FE0
7FC0000000001FE0
7FC0000000001FE0
3FE0000000001FE0
3FE0000000001FE0
3FE0000000003FE0
1FF0000000003FE0
1FF0000000007FE0
0FF8000000007FE0
0FFC00000000FFE0
07FE00000000FFE0
07FE00000001FFE0
03FF00000003FFE0
01FFC000000FFFE0
01FFE000001FFFE0
00FFF800007FEFE0
007FFF0001FFCFE0
003FFFF83FFF8FE0
001FFFFFFFFF07E0
000FFFFFFFFC07E0
0003FFFFFFF807E0
0001FFFFFFE007E0
00007FFFFFC003E0
00000FFFFE000000
000000FFE0000000
ENDCHAR
STARTCHAR 0121
ENCODING 289
SWIDTH 551 0
DWIDTH 49 0
BBX 40 83 3 -19
BITMAP
0000FF8000
0000FF8000
0000FF8000
0000FF8000
0000FF8000
0000FF8000
0000FF8000
0000FF8000
0000FF8000
0000000000
0000000000
0000000000
0000000000
0000000000
0000000000
0000000000
0001FE0000
000FFFC07F
003FFFF07F
007FFFF87F
00FFFFFC7F
01FFFFFE7F
03FFFFFF7F
07FF00FFFF
07FC003FFF
0FF8001FFF
1FF0000FFF
1FE00007FF
3FE00003FF
3FC00003FF
3FC00001FF
7F800001FF
7F800001FF
7F800001FF
7F000000FF
7F000000FF
FF000000FF
FF000000FF
FF000000FF
FF000000FF
FF000000FF
FF000000FF
FF000000FF
FF000000FF
FF000000FF
FF000000FF
FF000000FF
7F000000FF
7F800001FF
7F800001FF
7F800001FF
7FC00001FF
3FC00003FF
3FE00003FF
1FE00007FF
1FF0000FFF
0FF8001FFF
0FFC003FFF
07FF00FFFF
03FFFFFEFF
01FFFFFCFF
00FFFFF8FF
007FFFF0FF
003FFFE0FF
000FFF80FE
0001FE00FE
00000000FE
00000000FE
00000001FE
3F800001FE
3F800001FC
3FC00003FC
3FC00003FC
1FE00007F8
1FF0000FF8
1FF8001FF0
0FFE00FFE0
07FFFFFFE0
03FFFFFFC0
01FFFFFF00
00FFFFFE00
003FFFF800
0007FFC000
ENDCHAR
ENDFONT
